<?xml version="1.0" encoding="iso-8859-1"?>
<!-- Generator: Adobe Illustrator 19.0.0, SVG Export Plug-In . SVG Version: 6.00 Build 0)  -->
<svg version="1.1" id="Capa_1" xmlns="http://www.w3.org/2000/svg" xmlns:xlink="http://www.w3.org/1999/xlink" x="0px" y="0px"
	 viewBox="0 0 512 512" style="enable-background:new 0 0 512 512;" xml:space="preserve">
<path style="fill:#3B465C;" d="M512,256c0,141.385-114.615,256-256,256c-57.166,0-109.944-18.735-152.555-50.395
	c-9.592-7.137-18.672-14.921-27.167-23.301c-8.234-8.108-15.914-16.781-22.988-25.934C19.874,369.121,0,314.88,0,256
	S19.874,142.879,53.29,99.631c14.378-18.61,31.263-35.192,50.155-49.236C146.056,18.735,198.834,0,256,0
	C397.385,0,512,114.615,512,256z"/>
<path style="fill:#E89435;" d="M103.445,0v461.605c-9.592-7.137-18.672-14.921-27.167-23.301
	c-8.234-8.108-15.914-16.781-22.988-25.934V0H103.445z"/>
<g>
	<rect x="76.277" y="0" style="fill:#FDBC69;" width="27.166" height="80.739"/>
	<path style="fill:#FDBC69;" d="M103.445,113.027v348.578c-9.592-7.137-18.672-14.921-27.167-23.301V113.027L103.445,113.027
		L103.445,113.027z"/>
	<rect x="7.313" y="49.392" style="fill:#FDBC69;" width="472.294" height="48.149"/>
</g>
<rect x="7.313" y="82.651" style="fill:#E89435;" width="472.294" height="14.891"/>
<path style="fill:#E0E2E2;" d="M432.766,362.862H173.274c-20.1,0-36.393-16.294-36.393-36.393V177.736
	c0-20.1,16.294-36.393,36.393-36.393h259.491c20.1,0,36.393,16.294,36.393,36.393v148.732
	C469.159,346.568,452.865,362.862,432.766,362.862z"/>
<g>
	<path style="fill:#34A8C0;" d="M213.421,170.6L213.421,170.6c-7.502,0-13.584-6.081-13.584-13.584V32.967
		c0-7.502,6.081-13.584,13.584-13.584l0,0c7.502,0,13.584,6.081,13.584,13.584v124.05C227.005,164.519,220.924,170.6,213.421,170.6z
		"/>
	<path style="fill:#34A8C0;" d="M392.619,170.6L392.619,170.6c-7.502,0-13.584-6.081-13.584-13.584V32.967
		c0-7.502,6.081-13.584,13.584-13.584l0,0c7.502,0,13.584,6.081,13.584,13.584v124.05C406.203,164.519,400.122,170.6,392.619,170.6z
		"/>
</g>
<g>
	<path style="fill:#B5423C;" d="M226.003,206.652h-11.264v-15.276h23.528c3.331,0,5.657-2.841,5.657-6.909
		c0-3.9-2.379-6.73-5.657-6.73h-31.421c-3.888,0-6.82,2.47-6.82,5.746v59.174c0,3.383,3.025,5.746,7.357,5.746
		s7.357-2.363,7.357-5.746v-23.259h11.264c3.278,0,5.656-2.643,5.656-6.283C231.659,209.369,229.28,206.652,226.003,206.652z"/>
	<path style="fill:#B5423C;" d="M294.025,177.737c-14.404,0-22.665,8.229-22.665,22.575v26.05c0,14.346,8.261,22.575,22.665,22.575
		c14.46,0,22.755-8.229,22.755-22.575v-26.05C316.78,185.966,308.485,177.737,294.025,177.737z M302.065,200.312v26.05
		c0,6.096-2.555,8.936-8.04,8.936c-5.499,0-7.952-2.756-7.952-8.936v-26.05c0-6.181,2.452-8.936,7.952-8.936
		C299.511,191.376,302.065,194.216,302.065,200.312z"/>
	<path style="fill:#B5423C;" d="M396.797,241.223c0-0.433-0.068-1.54-0.69-2.617l-11.05-20.758
		c7.428-3.064,11.471-9.779,11.471-19.237c0-13.461-8.24-20.875-23.202-20.875h-17.009c-3.221,0-5.746,2.484-5.746,5.656v59.263
		c0,3.33,3.056,5.746,7.268,5.746c4.263,0,7.357-2.417,7.357-5.746v-22.364h4.831l12.358,24.207
		c1.909,3.629,4.624,4.171,6.072,4.171C392.234,248.67,396.797,245.348,396.797,241.223z M381.815,199.417
		c0,5.711-2.46,8.042-8.489,8.042h-8.13v-16.082h8.13C379.355,191.376,381.815,193.705,381.815,199.417z"/>
	<path style="fill:#B5423C;" d="M186.714,287.313c-6.234-2.521-9.76-4.128-9.76-7.846c0-3.673,2.886-5.534,8.578-5.534
		c4.234,0,6.504,1.167,8.329,2.105c1.297,0.667,2.521,1.297,4.025,1.297c4.275,0,6.552-4.48,6.552-7.716
		c0-8.803-16.97-9.057-18.905-9.057c-11.26,0-23.292,5.202-23.292,19.801c0,13.292,9.869,17.455,17.799,20.801
		c7.004,2.955,11.296,5.035,11.296,10.353c0,5.983-5.43,6.876-8.667,6.876c-5.325,0-7.834-2.273-10.048-4.278
		c-1.516-1.373-3.085-2.794-5.261-2.794c-3.79,0-6.73,4.147-6.73,7.716c0,7.541,11.824,13.175,22.396,13.175
		c14.201,0,23.023-8.307,23.023-21.681C206.048,295.13,194.873,290.612,186.714,287.313z"/>
	<path style="fill:#B5423C;" d="M268.116,265.303c-1.015-3.043-4.376-5.008-8.565-5.008c-4.136,0-7.463,1.966-8.495,5.068
		l-17.798,57.953c-0.223,0.67-0.223,1.248-0.223,1.63c0,3.918,4.406,6.551,8.521,6.551c4.167,0,5.448-2.658,5.822-3.857
		l3.125-10.824h18.182l3.142,10.878c0.754,2.417,2.838,3.803,5.716,3.803c4.072,0,8.61-2.691,8.61-6.552
		c0-0.695-0.189-1.26-0.293-1.569L268.116,265.303z M265.02,303.98h-10.939l5.47-18.761L265.02,303.98z"/>
	<path style="fill:#B5423C;" d="M356.519,317.856h-20.663v-51.369c0-3.383-2.957-5.656-7.357-5.656c-4.4,0-7.357,2.273-7.357,5.656
		v59.263c0,3.276,2.932,5.746,6.82,5.746h28.557c3.173,0,5.477-2.868,5.477-6.819C361.997,320.726,359.693,317.856,356.519,317.856z
		"/>
	<path style="fill:#B5423C;" d="M430.449,317.856h-23.976v-15.365h11.174c3.731,0,5.746-3.237,5.746-6.283
		c0-3.684-2.47-6.463-5.746-6.463h-11.174V274.47h23.976c3.329,0,5.746-2.906,5.746-6.909c0-3.9-2.417-6.73-5.746-6.73h-31.869
		c-3.888,0-6.82,2.47-6.82,5.746v59.174c0,3.276,2.932,5.746,6.82,5.746h31.869c3.329,0,5.746-2.831,5.746-6.73
		C436.195,320.762,433.778,317.856,430.449,317.856z"/>
</g>
<g>
</g>
<g>
</g>
<g>
</g>
<g>
</g>
<g>
</g>
<g>
</g>
<g>
</g>
<g>
</g>
<g>
</g>
<g>
</g>
<g>
</g>
<g>
</g>
<g>
</g>
<g>
</g>
<g>
</g>
</svg>
