<?xml version="1.0" encoding="iso-8859-1"?>
<!-- Generator: Adobe Illustrator 19.0.0, SVG Export Plug-In . SVG Version: 6.00 Build 0)  -->
<svg version="1.1" id="Capa_1" xmlns="http://www.w3.org/2000/svg" xmlns:xlink="http://www.w3.org/1999/xlink" x="0px" y="0px"
	 viewBox="0 0 512 512" style="enable-background:new 0 0 512 512;" xml:space="preserve">
<circle style="fill:#5B5660;" cx="255.998" cy="255.999" r="255.998"/>
<path style="fill:#FFD13F;" d="M512,256.001c0,141.384-114.614,255.998-255.998,255.998c-65.651,0-125.512-24.701-170.819-65.327
	c-26.112-23.406-47.386-52.098-62.14-84.385C8.247,329.916,0.003,293.92,0.003,256.001c0-141.384,114.614-255.998,255.998-255.998
	S512,114.616,512,256.001z"/>
<rect x="335.41" y="31.348" style="fill:#992D26;" width="94.04" height="137.163"/>
<rect x="365.19" y="57.993" style="fill:#B5423C;" width="64.261" height="110.518"/>
<path style="fill:#E0E2E2;" d="M429.454,183.495V444.28c-41.514,38.264-95.723,62.976-155.595,67.103
	c-5.172,0.355-10.407,0.564-15.673,0.596c-0.721,0.021-1.452,0.021-2.184,0.021c-4.524,0-9.017-0.115-13.49-0.355
	c-34.659-1.797-67.5-10.491-97.164-24.733c-5.329-2.56-10.553-5.298-15.673-8.213c-5.35-3.03-10.574-6.259-15.673-9.665
	c-11.128-7.429-21.65-15.715-31.451-24.753V183.495l103.308-92.316l70.144-62.683l70.175,62.714L429.454,183.495z"/>
<polygon style="fill:#CCCCCC;" points="429.454,183.495 429.454,269.49 256.002,128.409 82.55,269.49 82.55,183.495 185.858,91.179 
	256.002,34.128 326.176,91.211 "/>
<polygon style="fill:#3B465C;" points="58.109,255.236 11.956,198.492 255.998,0.002 500.041,198.492 453.888,255.236 
	255.998,94.283 "/>
<rect x="323.666" y="0.003" style="fill:#E0E2E2;" width="117.54" height="41.345"/>
<rect x="323.666" y="0.003" style="fill:#CCCCCC;" width="26.216" height="41.345"/>
<rect x="175.678" y="252.927" style="fill:#FDBC69;" width="160.642" height="160.642"/>
<path style="fill:#3B465C;" d="M160.006,237.257v191.99h191.99v-191.99H160.006z M320.65,303.601h-33.301v-34.997h33.301V303.601z
	 M191.353,268.604h64.65v129.297h-64.65L191.353,268.604L191.353,268.604z M287.349,397.901v-62.954h33.301v62.954H287.349z"/>
<path style="fill:#FB4A75;" d="M215.773,167.206l-115.074,11.128L23.043,362.287c14.754,32.287,36.028,60.98,62.14,84.385
	l104.385,44.063l98.492-233.314L215.773,167.206z M175.158,204.205c4.942-11.713,18.442-17.199,30.166-12.257
	c11.713,4.942,17.199,18.453,12.246,30.166c-4.942,11.713-18.442,17.209-30.156,12.257
	C175.691,229.429,170.216,215.918,175.158,204.205z"/>
<path style="fill:#FFFFFF;" d="M198.888,345.172c-17.324-7.314-33.677-5.569-42.203,14.618l-12.225,28.954
	c-8.516,20.187,1.64,33.123,18.965,40.437c17.136,7.231,33.687,5.569,42.214-14.618l12.215-28.954
	C226.379,365.422,216.024,352.402,198.888,345.172z M197.467,376.999l-12.225,28.954c-2.842,6.729-8.004,8.161-14.325,5.486
	c-6.322-2.664-8.704-7.272-5.862-14.002l12.225-28.954c2.842-6.729,7.805-8.244,14.127-5.569
	C197.728,365.578,200.309,370.27,197.467,376.999z M218.312,266.157c-3.678-1.546-7.628-1.296-10.721,1.484L73.961,384.449
	c-1.128,0.961-2.132,2.215-2.654,3.438c-2.152,5.099-0.073,12.706,6.854,15.632c3.877,1.641,8.61,1.233,11.327-1.223l133.84-116.725
	c1.128-0.961,1.933-2.299,2.456-3.521C228.531,275.519,224.017,268.571,218.312,266.157z M133.018,240.003
	c-17.335-7.314-33.687-5.569-42.214,14.618l-12.215,28.954c-8.526,20.187,1.63,33.123,18.965,40.437
	c17.126,7.231,33.687,5.569,42.203-14.618l12.225-28.954C160.498,260.253,150.144,247.234,133.018,240.003z M131.586,271.831
	l-12.215,28.964c-2.842,6.729-8.014,8.15-14.336,5.475c-6.322-2.664-8.693-7.272-5.851-14.002l12.215-28.954
	c2.842-6.729,7.805-8.244,14.127-5.569C131.848,260.41,134.428,265.102,131.586,271.831z"/>
<g>
</g>
<g>
</g>
<g>
</g>
<g>
</g>
<g>
</g>
<g>
</g>
<g>
</g>
<g>
</g>
<g>
</g>
<g>
</g>
<g>
</g>
<g>
</g>
<g>
</g>
<g>
</g>
<g>
</g>
</svg>
