<?xml version="1.0" encoding="iso-8859-1"?>
<!-- Generator: Adobe Illustrator 19.0.0, SVG Export Plug-In . SVG Version: 6.00 Build 0)  -->
<svg version="1.1" id="Capa_1" xmlns="http://www.w3.org/2000/svg" xmlns:xlink="http://www.w3.org/1999/xlink" x="0px" y="0px"
	 viewBox="0 0 512 512" style="enable-background:new 0 0 512 512;" xml:space="preserve">
<path style="fill:#FDBC69;" d="M512,256c0,87.009-43.405,163.871-109.746,210.129c-29.895,20.856-64.449,35.485-101.794,42.015
	C286.02,510.683,271.161,512,256,512c-19.602,0-38.682-2.205-57.01-6.374c-31.943-7.262-61.618-20.501-87.771-38.484
	C44.042,421.01,0,343.646,0,256S44.042,90.99,111.219,44.857c25.172-17.304,53.593-30.218,84.167-37.637
	C214.821,2.497,235.112,0,256,0C397.385,0,512,114.615,512,256z"/>
<path style="fill:#EA9434;" d="M483.297,199.962l-43.28,53.217l-22.915-18.641v220.411C373.112,490.632,317.053,512,256,512
	c-62.495,0-119.745-22.382-164.185-59.58V234.538l-22.915,18.641l-43.28-53.217L254.454,13.845l74.47,60.562V22.34h31.796
	c13.197,5.914,25.799,12.915,37.689,20.898c6.447,4.315,12.685,8.923,18.693,13.814v89.078L483.297,199.962z"/>
<path style="fill:#E0E2E2;" d="M473.945,300.617c0,49.539-29.393,92.212-71.69,111.543v53.969
	c-29.895,20.856-64.449,35.485-101.794,42.015V412.16c-42.297-19.331-71.69-62.004-71.69-111.543
	c0-47.553,27.094-88.785,66.664-109.108v73.174c0,30.887,25.036,55.923,55.923,55.923c30.877,0,55.912-25.036,55.912-55.923v-73.185
	C446.851,211.822,473.945,253.064,473.945,300.617z"/>
<path style="fill:#253140;" d="M198.99,18.056v487.57c-21.985-4.995-42.904-12.831-62.328-23.092
	c-8.798-4.639-17.293-9.791-25.443-15.391V18.056C111.219,8.088,119.306,0,129.275,0h51.66c5.904,0,11.149,2.842,14.451,7.22
	C197.642,10.24,198.99,13.991,198.99,18.056z"/>
<path style="fill:#3B465C;" d="M198.99,192.815v312.811c-21.985-4.995-42.904-12.831-62.328-23.092V210.871
	c0-9.968,8.088-18.056,18.056-18.056H198.99z"/>
<path style="fill:#CCCCCC;" d="M303.02,43.269v102.609c0,15.245-12.361,27.596-27.596,27.596H43.269
	c-15.245,0-27.596-12.351-27.596-27.596V43.269c0-15.235,12.351-27.596,27.596-27.596h232.155
	C290.659,15.673,303.02,28.035,303.02,43.269z"/>
<path style="fill:#E0E2E2;" d="M303.02,43.269v102.609c0,15.245-12.361,27.596-27.596,27.596H70.437
	c-15.245,0-27.596-12.351-27.596-27.596V43.269c0-15.235,12.351-27.596,27.596-27.596h204.988
	C290.659,15.673,303.02,28.035,303.02,43.269z"/>
<g>
</g>
<g>
</g>
<g>
</g>
<g>
</g>
<g>
</g>
<g>
</g>
<g>
</g>
<g>
</g>
<g>
</g>
<g>
</g>
<g>
</g>
<g>
</g>
<g>
</g>
<g>
</g>
<g>
</g>
</svg>
