<svg xmlns="http://www.w3.org/2000/svg" viewBox="0 0 64 64"><g id="Accountant-Cashier"><path d="M38,37.58V55H4V37.58a6.015,6.015,0,0,1,4.18-5.72c.08-.02.16-.05.24-.07l4.6-1.34C13.33,33.55,16.78,36,21,36s7.67-2.45,7.98-5.55l4.6,1.34c.08.02.16.05.24.07a1.336,1.336,0,0,1,.18.07,5.691,5.691,0,0,1,2,1.19A5.976,5.976,0,0,1,38,37.58Z" style="fill:#3d9ae2"/><path d="M38,37.58V55H36V45l-2-4V31.93a5.691,5.691,0,0,1,2,1.19A5.976,5.976,0,0,1,38,37.58Z" style="fill:#1e81ce"/><path d="M60,29V41l-2,4V59a2.006,2.006,0,0,1-2,2H40a2.006,2.006,0,0,1-2-2V45l-2-4V29a2.006,2.006,0,0,1,2-2H58A2.006,2.006,0,0,1,60,29Z" style="fill:#ff9811"/><rect x="40" y="31" width="16" height="10" style="fill:#ffde55"/><polygon points="56 11 56 27 40 27 40 11 42 15 44 11 46 15 48.01 11 50 15 52 11 54 15 56 11" style="fill:#e6e7e8"/><rect x="50" y="53" width="4" height="4" style="fill:#e6e7e8"/><rect x="50" y="49" width="4" height="4" style="fill:#d1d3d4"/><rect x="50" y="45" width="4" height="4" style="fill:#e6e7e8"/><rect x="46" y="53" width="4" height="4" style="fill:#d1d3d4"/><rect x="46" y="49" width="4" height="4" style="fill:#e6e7e8"/><rect x="46" y="45" width="4" height="4" style="fill:#d1d3d4"/><rect x="42" y="53" width="4" height="4" style="fill:#e6e7e8"/><rect x="42" y="49" width="4" height="4" style="fill:#d1d3d4"/><rect x="42" y="45" width="4" height="4" style="fill:#e6e7e8"/><path d="M31,21.68A6.97,6.97,0,0,1,35,28a6.824,6.824,0,0,1-1.18,3.86c-.08-.02-.16-.05-.24-.07l-4.6-1.34L24,29V26.42A8.008,8.008,0,0,0,29,19V15h-.53a4.02,4.02,0,0,1-3.58-2.21L24,11l-1.07,1.07A9.991,9.991,0,0,1,15.86,15H13v4a8.014,8.014,0,0,0,2.34,5.66A8.124,8.124,0,0,0,18,26.42V29l-4.98,1.45-4.6,1.34c-.08.02-.16.05-.24.07A6.824,6.824,0,0,1,7,28a6.97,6.97,0,0,1,4-6.32V13a10,10,0,0,1,20,0Z" style="fill:#787680"/><path d="M24,26.42A8,8,0,0,1,13,19V15h2.86a9.991,9.991,0,0,0,7.07-2.93L24,11l.89,1.79A4.02,4.02,0,0,0,28.47,15H29v4A8.008,8.008,0,0,1,24,26.42Z" style="fill:#ffc477"/><path d="M28.98,30.45C28.67,33.55,25.22,36,21,36s-7.67-2.45-7.98-5.55L18,29V26.42a8.049,8.049,0,0,0,6,0V29Z" style="fill:#ffb655"/><path d="M24,26.42v1a8.049,8.049,0,0,1-6,0v-1a8.049,8.049,0,0,0,6,0Z" style="fill:#ffa733"/><path d="M54,44H42a1,1,0,0,0-1,1V57a1,1,0,0,0,1,1H54a1,1,0,0,0,1-1V45A1,1,0,0,0,54,44Zm-1,4H51V46h2Zm-6,4V50h2v2Zm2,2v2H47V54Zm-4-2H43V50h2Zm2-4V46h2v2Zm4,2h2v2H51Zm-6-4v2H43V46Zm-2,8h2v2H43Zm8,2V54h2v2Z"/><path d="M58,26H57V11a1,1,0,0,0-1.9-.447L54,12.764l-1.1-2.211a1.042,1.042,0,0,0-1.79,0l-1.1,2.2-1.095-2.2a.963.963,0,0,0-.9-.555,1,1,0,0,0-.893.551L46,12.77,44.9,10.553a1.042,1.042,0,0,0-1.79,0L42,12.764l-1.1-2.211A1,1,0,0,0,39,11V26H38a2.982,2.982,0,0,0-2.085.851A7.888,7.888,0,0,0,32,21.075V13a11,11,0,0,0-22,0v8.075A7.975,7.975,0,0,0,6.758,31.382,6.985,6.985,0,0,0,3,37.58V55a1,1,0,0,0,1,1H37v3a3,3,0,0,0,3,3H56a3,3,0,0,0,3-3V45.236l1.9-3.789A1,1,0,0,0,61,41V29A3,3,0,0,0,58,26ZM41,15.236l.1.211a1.042,1.042,0,0,0,1.79,0L44,13.236l1.1,2.211A1,1,0,0,0,46,16h0a1,1,0,0,0,.894-.551l1.113-2.213,1.1,2.209A1,1,0,0,0,50,16h0a1,1,0,0,0,.9-.553L52,13.236l1.1,2.211a1.042,1.042,0,0,0,1.79,0l.1-.211V26H41ZM30.573,22.584A5.937,5.937,0,0,1,34,28a5.849,5.849,0,0,1-.652,2.681L25,28.25v-1.2A9,9,0,0,0,30,19v2.68A1,1,0,0,0,30.573,22.584ZM21,26a7.008,7.008,0,0,1-7-7V16h1.858a10.927,10.927,0,0,0,7.778-3.222l.09-.09.274.548a4.967,4.967,0,0,0,4,2.742V19A7.008,7.008,0,0,1,21,26Zm-2,3V27.768a8.737,8.737,0,0,0,4,0V29a1,1,0,0,0,.72.96l4.086,1.19C27.067,33.363,24.272,35,21,35s-6.067-1.637-6.806-3.85l4.086-1.19A1,1,0,0,0,19,29ZM12,13a9,9,0,0,1,18,0v2a1,1,0,0,0-1-1h-.528a2.982,2.982,0,0,1-2.683-1.658L24.9,10.553a1,1,0,0,0-.735-.54,1.017,1.017,0,0,0-.867.28l-1.071,1.071A8.941,8.941,0,0,1,15.858,14H13a1,1,0,0,0-1,1Zm-.573,9.584a1,1,0,0,0,.573-.9V19a9,9,0,0,0,5,8.05v1.2L8.652,30.681A5.849,5.849,0,0,1,8,28,5.937,5.937,0,0,1,11.427,22.584ZM31,54V50.064a7.629,7.629,0,0,0,0-12.128V36H29v2.5a1,1,0,0,0,.533.884,5.552,5.552,0,0,1,0,9.232A1,1,0,0,0,29,49.5V54H13V49.5a1,1,0,0,0-.533-.884,5.552,5.552,0,0,1,0-9.232A1,1,0,0,0,13,38.5V36H11v1.936a7.629,7.629,0,0,0,0,12.128V54H5V37.58a4.988,4.988,0,0,1,3.424-4.75l.172-.05.1-.03,3.572-1.04C13.248,34.794,16.767,37,21,37s7.752-2.206,8.728-5.29L33.3,32.75l.1.03.106.031a4.983,4.983,0,0,1,1.49.811V41a1,1,0,0,0,.1.447L37,45.236V54ZM59,40.764l-1.9,3.789A1,1,0,0,0,57,45V59a1,1,0,0,1-1,1H40a1,1,0,0,1-1-1V45a1,1,0,0,0-.1-.447L37,40.764V29a1,1,0,0,1,1-1H58a1,1,0,0,1,1,1Z"/><path d="M56,30H40a1,1,0,0,0-1,1V41a1,1,0,0,0,1,1H56a1,1,0,0,0,1-1V31A1,1,0,0,0,56,30ZM55,40H41V32H55Z"/><rect x="43" y="18" width="6" height="2"/><rect x="51" y="18" width="2" height="2"/><rect x="43" y="22" width="6" height="2"/><rect x="51" y="22" width="2" height="2"/><path d="M21,22a2,2,0,0,1-2-2H17a4,4,0,0,0,8,0H23A2,2,0,0,1,21,22Z"/></g></svg>