<svg xmlns="http://www.w3.org/2000/svg" viewBox="0 0 64 64"><g id="Accountant"><path d="M57,37.58V53H23V37.58A5.979,5.979,0,0,1,25.13,33a6.051,6.051,0,0,1,2.05-1.14c.08-.02.16-.05.24-.07l4.6-1.34C32.33,33.55,35.78,36,40,36s7.67-2.45,7.98-5.55l4.6,1.34c.08.02.16.05.24.07A6.015,6.015,0,0,1,57,37.58Z" style="fill:#5aaae7"/><polygon points="61 53 61 57 59 57 6 57 3 57 3 53 5 53 23 53 31 53 49 53 57 53 61 53" style="fill:#603913"/><rect x="6" y="57" width="53" height="4" style="fill:#8b5e3c"/><path d="M50,21.68A6.97,6.97,0,0,1,54,28a6.824,6.824,0,0,1-1.18,3.86c-.08-.02-.16-.05-.24-.07l-4.6-1.34L43,29V26.42A8.008,8.008,0,0,0,48,19V15h-.53a4.02,4.02,0,0,1-3.58-2.21L43,11l-1.07,1.07A9.991,9.991,0,0,1,34.86,15H32v4a8.014,8.014,0,0,0,2.34,5.66A8.124,8.124,0,0,0,37,26.42V29l-4.98,1.45-4.6,1.34c-.08.02-.16.05-.24.07A6.824,6.824,0,0,1,26,28a6.97,6.97,0,0,1,4-6.32V13a10,10,0,0,1,20,0Z" style="fill:#787680"/><path d="M43,26.42A8,8,0,0,1,32,19V15h2.86a9.991,9.991,0,0,0,7.07-2.93L43,11l.89,1.79A4.02,4.02,0,0,0,47.47,15H48v4A8.008,8.008,0,0,1,43,26.42Z" style="fill:#ffc477"/><path d="M47.98,30.45C47.67,33.55,44.22,36,40,36s-7.67-2.45-7.98-5.55L37,29V26.42a8.049,8.049,0,0,0,6,0V29Z" style="fill:#ffb655"/><path d="M31,35V49H5V35a2.006,2.006,0,0,1,2-2H29A2.006,2.006,0,0,1,31,35Z" style="fill:#ffa733"/><circle cx="18" cy="41" r="2" style="fill:#ffd422"/><path d="M11.05,7H11a8,8,0,0,0-.05,16H11a8,8,0,0,0,.05-16Z" style="fill:#ffd422"/><rect x="5" y="49" width="26" height="4" style="fill:#cc7400"/><rect x="6" y="57" width="53" height="2" style="fill:#754c29"/><path d="M43,26.42v1a8.049,8.049,0,0,1-6,0v-1a8.049,8.049,0,0,0,6,0Z" style="fill:#ffa733"/><path d="M40,22a2,2,0,0,1-2-2H36a4,4,0,0,0,8,0H42A2,2,0,0,1,40,22Z"/><path d="M61,52H58V37.58a6.985,6.985,0,0,0-3.758-6.2A7.975,7.975,0,0,0,51,21.075V13a11,11,0,0,0-22,0v8.075a7.975,7.975,0,0,0-3.241,10.309,7,7,0,0,0-.967.616H7a3,3,0,0,0-3,3V52H3a1,1,0,0,0-1,1v4a1,1,0,0,0,1,1H5v3a1,1,0,0,0,1,1H59a1,1,0,0,0,1-1V58h1a1,1,0,0,0,1-1V53A1,1,0,0,0,61,52ZM56,37.58V52H50V50.064a7.629,7.629,0,0,0,0-12.128V36H48v2.5a1,1,0,0,0,.533.884,5.552,5.552,0,0,1,0,9.232A1,1,0,0,0,48,49.5V52H32V35a2.994,2.994,0,0,0-2.173-2.87l1.445-.42C32.248,34.794,35.767,37,40,37s7.752-2.206,8.728-5.29L52.3,32.75l.1.03.109.032A5,5,0,0,1,56,37.58ZM27.353,32l-.054-.175.076.175ZM40,26a7.008,7.008,0,0,1-7-7V16h1.858a10.927,10.927,0,0,0,7.778-3.222l.09-.09.274.548a4.967,4.967,0,0,0,4,2.742V19A7.008,7.008,0,0,1,40,26Zm-2,3V27.768a8.737,8.737,0,0,0,4,0V29a1,1,0,0,0,.72.96l4.086,1.19C46.067,33.363,43.272,35,40,35s-6.067-1.637-6.806-3.85l4.086-1.19A1,1,0,0,0,38,29Zm11.573-6.416A5.937,5.937,0,0,1,53,28a5.849,5.849,0,0,1-.652,2.681L44,28.25v-1.2A9,9,0,0,0,49,19v2.68A1,1,0,0,0,49.573,22.584ZM31,13a9,9,0,0,1,18,0v2a1,1,0,0,0-1-1h-.528a2.982,2.982,0,0,1-2.683-1.658L43.9,10.553a1,1,0,0,0-.735-.54,1.016,1.016,0,0,0-.867.28l-1.071,1.071A8.941,8.941,0,0,1,34.858,14H32a1,1,0,0,0-1,1Zm-.573,9.584a1,1,0,0,0,.573-.9V19a9,9,0,0,0,5,8.05v1.2l-8.348,2.431A5.849,5.849,0,0,1,27,28,5.937,5.937,0,0,1,30.427,22.584ZM6,35a1,1,0,0,1,1-1H29a1,1,0,0,1,1,1V48H6ZM6,50H30v2H6ZM58,60H7V58H58Zm2-4H4V54H60Z"/><path d="M18,38a3,3,0,1,0,3,3A3,3,0,0,0,18,38Zm0,4a1,1,0,1,1,1-1A1,1,0,0,1,18,42Z"/><path d="M11,18a1,1,0,0,1-1-1H8a3,3,0,0,0,2,2.816V21h2V19.816A2.993,2.993,0,0,0,11,14a1,1,0,1,1,1-1h2a3,3,0,0,0-2-2.816V9H10v1.184A2.993,2.993,0,0,0,11,16a1,1,0,0,1,0,2Z"/><path d="M11,24a9,9,0,1,0-9-9A9.011,9.011,0,0,0,11,24ZM11,8a7,7,0,1,1-7,7A7.008,7.008,0,0,1,11,8Z"/><rect x="23" y="11" width="4" height="2"/><rect x="24" y="3.764" width="2" height="4.472" transform="translate(8.453 25.677) rotate(-63.435)"/><rect x="22.764" y="17" width="4.472" height="2" transform="translate(-5.411 13.081) rotate(-26.565)"/><rect x="53" y="11" width="4" height="2"/><rect x="52.764" y="5" width="4.472" height="2" transform="translate(3.123 25.23) rotate(-26.565)"/><rect x="54" y="15.764" width="2" height="4.472" transform="translate(14.304 59.144) rotate(-63.435)"/></g></svg>