<svg xmlns="http://www.w3.org/2000/svg" viewBox="0 0 64 64"><g id="Businessman-Avatar-3" data-name="Businessman-Avatar"><path d="M43,61H14V40.58a6.013,6.013,0,0,1,4.42-5.79L28,32h1l2,4L29,54l3,3,3-3L33,36l2-4h1l9.58,2.79A6.013,6.013,0,0,1,50,40.58V61Z" style="fill:#3d9ae2"/><path d="M42,13v4H40.47a4.02,4.02,0,0,1-3.58-2.21L36,13l-.49.49A11.989,11.989,0,0,1,27.03,17H22V13a10,10,0,0,1,20,0Z" style="fill:#787680"/><path d="M41,17v3a9,9,0,0,1-13,8.06A9.028,9.028,0,0,1,23,20V17h4.03a11.989,11.989,0,0,0,8.48-3.51L36,13l.89,1.79A4.02,4.02,0,0,0,40.47,17Z" style="fill:#ffc477"/><path d="M36,28.06V32H28V28.06a8.981,8.981,0,0,0,8,0Z" style="fill:#ffb655"/><polygon points="35 32 33 36 31 36 29 32 35 32" style="fill:#ff5023"/><polygon points="33 36 35 54 32 57 29 54 31 36 33 36" style="fill:#ff6243"/><path d="M36,28.06v2a8.981,8.981,0,0,1-8,0v-2a8.981,8.981,0,0,0,8,0Z" style="fill:#ffa733"/><path d="M36,22H34a2,2,0,0,1-4,0H28a4,4,0,0,0,8,0Z"/><path d="M45.859,33.83,37,31.25v-2.6A10,10,0,0,0,42,20V18a1,1,0,0,0,1-1V13a11,11,0,0,0-22,0v4a1,1,0,0,0,1,1v2a10,10,0,0,0,5,8.647v2.6l-8.846,2.576A7.03,7.03,0,0,0,13,40.58V61a1,1,0,0,0,1,1H50a1,1,0,0,0,1-1V40.58A7.025,7.025,0,0,0,45.859,33.83ZM31.9,37H32.1l1.849,16.633L32,55.586l-1.953-1.953Zm.486-2h-.764l-1-2h2.764ZM23,13a9,9,0,0,1,18,0v3h-.528a2.983,2.983,0,0,1-2.683-1.658L36.9,12.553a1,1,0,0,0-.735-.54A.968.968,0,0,0,36,12a1,1,0,0,0-.707.293l-.485.485A10.928,10.928,0,0,1,27.029,16H23Zm1,7V18h3.029a12.906,12.906,0,0,0,8.689-3.329l.282.565a4.962,4.962,0,0,0,4,2.731V20a8,8,0,0,1-16,0Zm8,10a9.986,9.986,0,0,0,3-.461V31H29V29.539A9.986,9.986,0,0,0,32,30ZM49,60H44V41H42V60H22V41H20V60H15V40.58a5.031,5.031,0,0,1,3.7-4.83L28.142,33h.24l1.591,3.183L28.006,53.89a1,1,0,0,0,.287.817l3,3a1,1,0,0,0,1.414,0l3-3a1,1,0,0,0,.287-.817L34.027,36.183,35.618,33h.24l9.456,2.754A5.026,5.026,0,0,1,49,40.58Z"/></g></svg>