<svg xmlns="http://www.w3.org/2000/svg" viewBox="0 0 64 64"><g id="Businessman-Avatar-4" data-name="Businessman-Avatar"><path d="M20,27v2H18a3,3,0,0,1,0-6h2Z" style="fill:#ffb655"/><path d="M46,61H36l-2-7,1.38-4.15L40,51l-2-8,10.05,2.65A11.983,11.983,0,0,1,57,57.25V61Z" style="fill:#3d9ae2"/><path d="M46,23a3,3,0,0,1,0,6H44V23Z" style="fill:#ffb655"/><path d="M19,22H17V18a15,15,0,0,1,30,0v4H44.71a6,6,0,0,1-5.37-3.32L39,18l-.19.19A13.005,13.005,0,0,1,29.62,22Z" style="fill:#787680"/><path d="M45,23v4a13,13,0,0,1-26,0V22H29.62a13.005,13.005,0,0,0,9.19-3.81L39,18l.34.68A6,6,0,0,0,44.71,22H45Z" style="fill:#ffc477"/><polygon points="38 43 40 51 35.38 49.85 32 49 38 43" style="fill:#1e81ce"/><path d="M38,38.53V43l-6,6-6-6V38.53a12.98,12.98,0,0,0,12,0Z" style="fill:#ffb655"/><polygon points="34 54 36 61 28 61 30 54 34 54" style="fill:#ff6243"/><polygon points="32 49 35.38 49.85 34 54 30 54 28.62 49.85 32 49" style="fill:#ff5023"/><polygon points="32 49 28.62 49.85 24 51 26 43 32 49" style="fill:#1e81ce"/><path d="M18,61H7V57.25a11.983,11.983,0,0,1,8.95-11.6L26,43l-2,8,4.62-1.15L30,54l-2,7Z" style="fill:#3d9ae2"/><path d="M38,38.53v2a12.98,12.98,0,0,1-12,0v-2a12.98,12.98,0,0,0,12,0Z" style="fill:#ffa733"/><path d="M48.305,44.683,39,42.229V39.106A14.029,14.029,0,0,0,45.668,30H46a3.987,3.987,0,0,0,1.86-7.52A.971.971,0,0,0,48,22V18a16,16,0,0,0-32,0v4a.971.971,0,0,0,.14.48A3.987,3.987,0,0,0,18,30h.332A14.029,14.029,0,0,0,25,39.106v3.123l-9.3,2.454A12.989,12.989,0,0,0,6,57.25V61a1,1,0,0,0,1,1H57a1,1,0,0,0,1-1V57.25A12.988,12.988,0,0,0,48.305,44.683ZM33.278,53H30.721l-.813-2.446L32,50.031l2.092.523Zm-6.736-8.044,3.5,3.5-4.669,1.167Zm7.414,3.5,3.5-3.5,1.168,4.669ZM46,28V24a2,2,0,0,1,0,4ZM18,18a14,14,0,0,1,28,0v3H44.708a4.974,4.974,0,0,1-4.472-2.764l-.341-.683a1,1,0,0,0-.735-.54A.968.968,0,0,0,39,17a1,1,0,0,0-.707.293l-.192.192A11.921,11.921,0,0,1,29.615,21H18Zm0,10a2,2,0,0,1,0-4v4Zm2-1V23h9.615a13.9,13.9,0,0,0,9.11-3.367A6.934,6.934,0,0,0,44,22.954V27a12,12,0,0,1-24,0ZM32,41a13.894,13.894,0,0,0,5-.939v2.525l-5,5-5-5V40.061A13.894,13.894,0,0,0,32,41ZM8,57.25a10.99,10.99,0,0,1,8.2-10.633L24.62,44.4l-1.59,6.359a1,1,0,0,0,1.213,1.213l3.719-.93.992,2.982L27.246,60H19V53H17v7H8ZM29.326,60l1.428-5h2.492l1.428,5ZM56,60H47V53H45v7H36.755l-1.708-5.978.991-2.982,3.72.93a1,1,0,0,0,1.212-1.213L39.38,44.4,47.8,46.617A10.99,10.99,0,0,1,56,57.25Z"/><path d="M32,31a3,3,0,0,0,3-3V24H33v4a1,1,0,0,1-2,0V24H29v4A3,3,0,0,0,32,31Z"/><path d="M37.953,33.655l-1.512-1.31A5.982,5.982,0,0,1,32,34a5.988,5.988,0,0,1-4.442-1.655l-1.511,1.31A7.892,7.892,0,0,0,32,36,7.89,7.89,0,0,0,37.953,33.655Z"/><rect x="38" y="24" width="2" height="2"/><rect x="24" y="24" width="2" height="2"/></g></svg>