<svg xmlns="http://www.w3.org/2000/svg" viewBox="0 0 64 64"><g id="Teamwork-Partnership-2" data-name="Teamwork-Partnership"><path d="M23,24V40l-3,5v2H7V45L3,41V29a2.006,2.006,0,0,1,2-2,2.015,2.015,0,0,1,2,2V20a2.006,2.006,0,0,1,2-2,2.015,2.015,0,0,1,2,2V17a2.006,2.006,0,0,1,2-2,2.015,2.015,0,0,1,2,2v3a2.006,2.006,0,0,1,2-2,2.015,2.015,0,0,1,2,2v4a2,2,0,0,1,3-1.73,1.813,1.813,0,0,1,.41.32A1.955,1.955,0,0,1,23,24Z" style="fill:#ffc477"/><path d="M60.41,22.59A1.955,1.955,0,0,0,59,22a2.006,2.006,0,0,0-2,2V20a2.015,2.015,0,0,0-2-2,2.006,2.006,0,0,0-2,2V17a2.015,2.015,0,0,0-2-2,2.006,2.006,0,0,0-2,2v3a2.015,2.015,0,0,0-2-2,2.006,2.006,0,0,0-2,2v9a2.015,2.015,0,0,0-2-2,2,2,0,0,0-2,2V41l4,4v2H58V45l3-5V24A1.955,1.955,0,0,0,60.41,22.59Z" style="fill:#ffc477"/><path d="M42,12V28l-1,1.67L39,33v2H26V33l-4-4V17a2.006,2.006,0,0,1,2-2,2.015,2.015,0,0,1,2,2V8a2.006,2.006,0,0,1,2-2,2.015,2.015,0,0,1,2,2V5a2.006,2.006,0,0,1,2-2,2.015,2.015,0,0,1,2,2V8a2.006,2.006,0,0,1,2-2,2.015,2.015,0,0,1,2,2v4a2.006,2.006,0,0,1,2-2,2.015,2.015,0,0,1,2,2Z" style="fill:#ffc477"/><polygon points="60 47 60 53 59 53 45 53 44 53 44 47 45 47 58 47 60 47" style="fill:#3d9ae2"/><rect x="45" y="53" width="14" height="8" style="fill:#5aaae7"/><path d="M54.54,4.64a1.992,1.992,0,0,1,0,2.82L51,11,47.46,7.46a2,2,0,0,1,2.83-2.82l.71.7.71-.7A2,2,0,0,1,54.54,4.64Z" style="fill:#ff5023"/><polygon points="41 35 41 41 40 41 26 41 25 41 25 35 26 35 39 35 41 35" style="fill:#3d9ae2"/><rect x="26" y="41" width="14" height="20" style="fill:#5aaae7"/><path d="M36.54,23.64a1.992,1.992,0,0,1,0,2.82L33,30l-3.54-3.54a2,2,0,0,1,2.83-2.82l.71.7.71-.7A2,2,0,0,1,36.54,23.64Z" style="fill:#ff5023"/><polygon points="22 47 22 53 21 53 7 53 6 53 6 47 7 47 20 47 22 47" style="fill:#3d9ae2"/><rect x="7" y="53" width="14" height="8" style="fill:#5aaae7"/><path d="M16.54,4.64a1.992,1.992,0,0,1,0,2.82L13,11,9.46,7.46a2,2,0,0,1,2.83-2.82l.71.7.71-.7A2,2,0,0,1,16.54,4.64Z" style="fill:#ff5023"/><path d="M59,21a2.966,2.966,0,0,0-1,.184V20a3,3,0,0,0-3-3,2.966,2.966,0,0,0-1,.184V17a3,3,0,0,0-6,0v.184A2.966,2.966,0,0,0,47,17a3,3,0,0,0-3,3v6.192a3.124,3.124,0,0,0-1-.173V12a3,3,0,0,0-3-3,2.966,2.966,0,0,0-1,.184V8a3,3,0,0,0-3-3,2.966,2.966,0,0,0-1,.184V5a3,3,0,0,0-6,0v.184A2.966,2.966,0,0,0,28,5a3,3,0,0,0-3,3v6.184A2.966,2.966,0,0,0,24,14a3,3,0,0,0-3,3v4a2.966,2.966,0,0,0-1,.184V20a3,3,0,0,0-3-3,2.966,2.966,0,0,0-1,.184V17a3,3,0,0,0-6,0v.184A2.966,2.966,0,0,0,9,17a3,3,0,0,0-3,3v6.184A2.966,2.966,0,0,0,5,26a3,3,0,0,0-3,3V41a1,1,0,0,0,.293.707L6,45.414V46a1,1,0,0,0-1,1v6a1,1,0,0,0,1,1v7a1,1,0,0,0,1,1H21a1,1,0,0,0,1-1V54a1,1,0,0,0,1-1V47a1,1,0,0,0-1-1H21v-.723l2.857-4.762A1,1,0,0,0,24,40v1a1,1,0,0,0,1,1V61a1,1,0,0,0,1,1H40a1,1,0,0,0,1-1V42.414l3,3V46a1,1,0,0,0-1,1v6a1,1,0,0,0,1,1v7a1,1,0,0,0,1,1H59a1,1,0,0,0,1-1V54a1,1,0,0,0,1-1V47a1,1,0,0,0-1-1H59v-.723l2.857-4.762A1,1,0,0,0,62,40V24A3,3,0,0,0,59,21ZM26,40V36H40v4ZM23,17a1,1,0,0,1,2,0v6h2V8a1,1,0,0,1,2,0V19h2V5a1,1,0,0,1,2,0V19h2V8a1,1,0,0,1,2,0V19h2V12a1,1,0,0,1,2,0V27.723l-2.857,4.762A1,1,0,0,0,38,33v1H27V33a1,1,0,0,0-.293-.707L23,28.586ZM21,48v4H7V48ZM20,60H8V54H20Zm-.857-15.515A1,1,0,0,0,19,45v1H8V45a1,1,0,0,0-.293-.707L4,40.586V29a1,1,0,0,1,2,0v6H8V20a1,1,0,0,1,2,0V31h2V17a1,1,0,0,1,2,0V31h2V20a1,1,0,0,1,2,0V31h2V24a1,1,0,0,1,1-1v6a1,1,0,0,0,.293.707l.707.707v9.309ZM24,35V32.414l1,1V34A1,1,0,0,0,24,35ZM39,60H27V42H39ZM59,48v4H45V48ZM58,60H46V54H58Zm2-20.277-2.857,4.762A1,1,0,0,0,57,45v1H46V45a1,1,0,0,0-.293-.707L42,40.586V29.944l.857-1.429a.993.993,0,0,0,.141-.5,1,1,0,0,1,.715.291A.965.965,0,0,1,44,29v6h2V20a1,1,0,0,1,2,0V31h2V17a1,1,0,0,1,2,0V31h2V20a1,1,0,0,1,2,0V31h2V24a1,1,0,0,1,2,0Z"/><path d="M12.293,11.707a1,1,0,0,0,1.414,0l3.536-3.536A3,3,0,0,0,13,3.929,3,3,0,1,0,8.757,8.171ZM10.171,5.343a1,1,0,0,1,1.415,0l.707.707a1,1,0,0,0,1.414,0l.707-.707a1,1,0,1,1,1.415,1.414L13,9.586,10.171,6.757A1,1,0,0,1,10.171,5.343Z"/><path d="M50.293,11.707a1,1,0,0,0,1.414,0l3.535-3.535a3,3,0,0,0,0-4.242,3.071,3.071,0,0,0-4.243,0,3.072,3.072,0,0,0-4.242,0,3,3,0,0,0,0,4.242Zm-2.12-6.364a1,1,0,0,1,1.413,0l.707.707a1,1,0,0,0,1.414,0l.707-.707a1.023,1.023,0,0,1,1.414,0,1,1,0,0,1,0,1.413L51,9.585,48.172,6.757a1,1,0,0,1,0-1.414Z"/><path d="M32.293,30.707a1,1,0,0,0,1.414,0l3.535-3.535a3,3,0,0,0,0-4.242,3.071,3.071,0,0,0-4.243,0,3,3,0,0,0-4.243,4.242Zm-2.122-6.364a1,1,0,0,1,1.415,0l.707.707a1,1,0,0,0,1.414,0l.707-.707a1.023,1.023,0,0,1,1.414,0,1,1,0,0,1,0,1.413L33,28.586l-2.829-2.829A1,1,0,0,1,30.171,24.343Z"/><rect x="16" y="56" width="2" height="2"/><rect x="35" y="44" width="2" height="2"/><rect x="54" y="56" width="2" height="2"/></g></svg>