<svg xmlns="http://www.w3.org/2000/svg" viewBox="0 0 64 64"><g id="Cash-Payment"><path d="M25,23a2.006,2.006,0,0,0-2,2V21a2.006,2.006,0,0,1,2-2H59a2.006,2.006,0,0,1,2,2v4a2.006,2.006,0,0,0-2-2Z" style="fill:#00b39d"/><rect x="23" y="23" width="38" height="20" rx="2" style="fill:#00ccb3"/><path d="M47.19,30a5.989,5.989,0,0,0-10.38,0A5.857,5.857,0,0,0,36,33a5.691,5.691,0,0,0,.06.83,5.779,5.779,0,0,0,1.06,2.65,6,6,0,0,0,10.76-2.27A6.056,6.056,0,0,0,48,33,5.884,5.884,0,0,0,47.19,30Z" style="fill:#ffd422"/><path d="M57,31V42H27V31a1,1,0,0,1,1-1H56A1,1,0,0,1,57,31Z" style="fill:#3d9ae2"/><circle cx="51" cy="36" r="2" style="fill:#ff5023"/><path d="M49,36a2.006,2.006,0,0,1-2,2,1.972,1.972,0,0,1-1.17-.38,6.029,6.029,0,0,0,2.05-3.41A2,2,0,0,1,49,36Z" style="fill:#ff5023"/><path d="M47.88,34.21a6.029,6.029,0,0,1-2.05,3.41A2,2,0,0,1,47,34,1.874,1.874,0,0,1,47.88,34.21Z" style="fill:#ff5023"/><polygon points="31.66 42 27 42 27 43 27 44.69 27 46 57 46 57 43 57 42 31.66 42" style="fill:#787680"/><path d="M57,46v3a1,1,0,0,1-1,1H28a1,1,0,0,1-1-1V46Z" style="fill:#3d9ae2"/><path d="M36.59,34.54a3.752,3.752,0,0,0-.53-.71,3.963,3.963,0,0,0-2.94-1.29,4.022,4.022,0,0,0-2,.53L27,35.45l-4,2.31V27H15L9,33V47H23l4-2.31L29.93,43l1.73-1,3.46-2a3.994,3.994,0,0,0,2-3.52A4.045,4.045,0,0,0,36.59,34.54Z" style="fill:#ffc477"/><polygon points="9 47 9 48 3 48 3 30 9 30 9 33 9 47" style="fill:#3d9ae2"/><path d="M47,39a2.981,2.981,0,0,0,2-.78,3,3,0,1,0,0-4.44A3,3,0,1,0,47,39Zm4-4a1,1,0,1,1-1,1A1,1,0,0,1,51,35Zm-4,0a1,1,0,1,1-1,1A1,1,0,0,1,47,35Z"/><path d="M59,18H25a3,3,0,0,0-3,3v5H15a1,1,0,0,0-.707.293L10,30.586V30a1,1,0,0,0-1-1H3a1,1,0,0,0-1,1V48a1,1,0,0,0,1,1H9a1,1,0,0,0,1-1H23a1,1,0,0,0,.5-.134L26,46.422V49a2,2,0,0,0,2,2H56a2,2,0,0,0,2-2V44h1a3,3,0,0,0,3-3V21A3,3,0,0,0,59,18ZM25,20H59a1,1,0,0,1,1,1v1.184A2.966,2.966,0,0,0,59,22H25a2.966,2.966,0,0,0-1,.184V21A1,1,0,0,1,25,20ZM4,47V31H8V47Zm18.732-1H10V33.414L15.414,28H22v9.76a1,1,0,0,0,1.5.865l8.116-4.687a3.041,3.041,0,0,1,1.5-.4,3,3,0,0,1,2.9,3.781,2.974,2.974,0,0,1-1.4,1.813ZM56,31V41H35.388l.229-.132a4.995,4.995,0,0,0,1.84-6.826A5.019,5.019,0,0,0,30.62,32.2L28,33.717V31ZM39.011,29a4.967,4.967,0,0,1,5.978,0ZM31.925,43H56v2H28.462ZM28,49V47H56v2Zm32-8a1,1,0,0,1-1,1H58V31a2,2,0,0,0-2-2H47.723a6.959,6.959,0,0,0-11.446,0H28a2,2,0,0,0-2,2v3.872l-2,1.155V25a1,1,0,0,1,1-1H59a1,1,0,0,1,1,1Z"/><path d="M31,28V26H27a1,1,0,0,0-1,1v2h2V28Z"/><path d="M58,27a1,1,0,0,0-1-1H53v2h3v1h2Z"/><path d="M39.293,8.293l1.414,1.414,3-3a1,1,0,0,0,0-1.414l-3-3L39.293,3.707,40.586,5H25V7H40.586Z"/><path d="M24.707,52.707l-1.414-1.414-3,3a1,1,0,0,0,0,1.414l3,3,1.414-1.414L23.414,56H35V54H23.414Z"/><path d="M48.707,55.707l-1.414-1.414-3,3a1,1,0,0,0,0,1.414l3,3,1.414-1.414L47.414,59H59V57H47.414Z"/><path d="M34,11v2H49.586l-1.293,1.293,1.414,1.414,3-3a1,1,0,0,0,0-1.414l-3-3L48.293,9.707,49.586,11Z"/></g></svg>