<svg xmlns="http://www.w3.org/2000/svg" viewBox="0 0 64 64"><g id="Knowledge"><path d="M61,54v7H33V52.58a6.013,6.013,0,0,1,4.42-5.79l2.58-.7V49l7,7,7-7V46.09l2.58.7A6.013,6.013,0,0,1,61,52.58Z" style="fill:#3d9ae2"/><path d="M59.54,3.64a1.992,1.992,0,0,1,0,2.82L56,10,52.46,6.46a2,2,0,0,1,2.83-2.82l.71.7.71-.7A2,2,0,0,1,59.54,3.64Z" style="fill:#ff5023"/><path d="M56,30v3h-.29a5.374,5.374,0,0,1-.7-.04,5.986,5.986,0,0,1-4.67-3.28L50,29l-1.66,1.66A7.985,7.985,0,0,1,42.69,33H38V30a9,9,0,0,1,18,0Z" style="fill:#787680"/><path d="M44,42.42a8.124,8.124,0,0,1-2.66-1.76A8.014,8.014,0,0,1,39,35V33h3.69a7.985,7.985,0,0,0,5.65-2.34L50,29l.34.68a5.986,5.986,0,0,0,4.67,3.28L55,33v2a8.008,8.008,0,0,1-5,7.42,8.049,8.049,0,0,1-6,0Z" style="fill:#ffc477"/><polygon points="47 49 51.36 45.37 54 46.09 54 49 47 56 40 49 40 46.09 42.64 45.37 47 49" style="fill:#e6e7e8"/><path d="M51.36,45.37,47,49l-4.36-3.63L44,45V42.42a8.049,8.049,0,0,0,6,0V45Z" style="fill:#ffb655"/><path d="M31,54v7H3V52.58a6,6,0,0,1,1.63-4.1,5.92,5.92,0,0,1,2.79-1.69l2.58-.7V49l7,7,7-7V46.09l2.58.7a5.92,5.92,0,0,1,2.79,1.69A6,6,0,0,1,31,52.58Z" style="fill:#00ccb3"/><path d="M27,37.68a6.985,6.985,0,0,1,2.37,10.8,5.92,5.92,0,0,0-2.79-1.69L24,46.09l-2.64-.72L20,45V42.42A8.008,8.008,0,0,0,25,35V33h-.53a4.02,4.02,0,0,1-3.58-2.21L20,29l-1.07,1.07A9.991,9.991,0,0,1,11.86,33H9v2a8.014,8.014,0,0,0,2.34,5.66A8.124,8.124,0,0,0,14,42.42V45l-1.36.37L10,46.09l-2.58.7a5.92,5.92,0,0,0-2.79,1.69A6.985,6.985,0,0,1,7,37.68V31a10,10,0,0,1,20,0Z" style="fill:#787680"/><path d="M20,42.42A8,8,0,0,1,9,35V33h2.86a9.991,9.991,0,0,0,7.07-2.93L20,29l.89,1.79A4.02,4.02,0,0,0,24.47,33H25v2A8.008,8.008,0,0,1,20,42.42Z" style="fill:#ffc477"/><polygon points="17 49 21.36 45.37 24 46.09 24 49 17 56 10 49 10 46.09 12.64 45.37 17 49" style="fill:#e6e7e8"/><path d="M21.36,45.37,17,49l-4.36-3.63L14,45V42.42a8.049,8.049,0,0,0,6,0V45Z" style="fill:#ffb655"/><path d="M11.54,3.64a1.992,1.992,0,0,1,0,2.82L8,10,4.46,6.46A2,2,0,0,1,7.29,3.64l.71.7.71-.7A2,2,0,0,1,11.54,3.64Z" style="fill:#ff5023"/><path d="M20,42.42v1a8.049,8.049,0,0,1-6,0v-1a8.049,8.049,0,0,0,6,0Z" style="fill:#ffa733"/><path d="M50,42.42v1a8.049,8.049,0,0,1-6,0v-1a8.049,8.049,0,0,0,6,0Z" style="fill:#ffa733"/><path d="M56.843,45.825,51,44.236V43.05A9,9,0,0,0,56,35V34a1,1,0,0,0,1-1V30a10,10,0,0,0-20,0v3a1,1,0,0,0,1,1v1a9,9,0,0,0,5,8.05v1.186l-5.846,1.59A7.03,7.03,0,0,0,32,52.58a6.976,6.976,0,0,0-1.365-4.126A7.979,7.979,0,0,0,28,37.075V31A11,11,0,0,0,6,31v6.075A7.979,7.979,0,0,0,3.365,48.454,6.976,6.976,0,0,0,2,52.58V61a1,1,0,0,0,1,1H31a1,1,0,0,0,1-1,1,1,0,0,0,1,1H61a1,1,0,0,0,1-1V52.58A7.031,7.031,0,0,0,56.843,45.825Zm-30.27-7.241A5.986,5.986,0,0,1,29.19,47a6.976,6.976,0,0,0-2.347-1.177L21,44.236V43.05A9,9,0,0,0,26,35v2.68A1,1,0,0,0,26.573,38.584ZM11,46.852l1.4-.38,3.6,3V52h2V49.469l3.6-3,1.4.38v1.734l-6,6-6-6ZM17,42a7.008,7.008,0,0,1-7-7V34h1.857a10.926,10.926,0,0,0,7.779-3.222l.09-.09.274.548a4.97,4.97,0,0,0,4,2.742V35A7.008,7.008,0,0,1,17,42Zm0,2a8.971,8.971,0,0,0,2-.232V45a.989.989,0,0,0,.349.743L17,47.7l-2.349-1.956A.989.989,0,0,0,15,45V43.768A8.971,8.971,0,0,0,17,44ZM8,31a9,9,0,0,1,18,0v2a1,1,0,0,0-1-1h-.528a2.983,2.983,0,0,1-2.683-1.658L20.9,28.553a1,1,0,0,0-1.6-.26l-1.071,1.071A8.943,8.943,0,0,1,11.857,32H9a1,1,0,0,0-1,1Zm-.573,7.584A1,1,0,0,0,8,37.68V35a9,9,0,0,0,5,8.05v1.186l-5.846,1.59A6.96,6.96,0,0,0,4.81,47a5.986,5.986,0,0,1,2.617-8.418ZM30,60H4V52.58a5.024,5.024,0,0,1,3.683-4.825L9,47.4V49a1,1,0,0,0,.293.707l7,7a1,1,0,0,0,1.414,0l7-7A1,1,0,0,0,25,49V47.4l1.314.358A5.026,5.026,0,0,1,30,52.58ZM41,46.852l1.4-.38,3.6,3V52h2V49.469l3.6-3,1.4.38v1.734l-6,6-6-6ZM39,30a8,8,0,0,1,16,0v1.951a4.969,4.969,0,0,1-3.764-2.715l-.341-.683a1,1,0,0,0-1.6-.26L47.636,29.95A6.954,6.954,0,0,1,42.687,32H39Zm1,5V34h2.687a8.937,8.937,0,0,0,6.363-2.636l.7-.7A6.943,6.943,0,0,0,54,33.787V35a7,7,0,0,1-14,0Zm7,9a8.971,8.971,0,0,0,2-.232V45a.989.989,0,0,0,.349.743L47,47.7l-2.349-1.956A.989.989,0,0,0,45,45V43.768A8.971,8.971,0,0,0,47,44ZM60,60H34V52.58a5.024,5.024,0,0,1,3.683-4.825L39,47.4V49a1,1,0,0,0,.293.707l7,7a1,1,0,0,0,1.414,0l7-7A1,1,0,0,0,55,49V47.4l1.314.358A5.026,5.026,0,0,1,60,52.58Z"/><path d="M51,36H49a2,2,0,0,1-4,0H43a4,4,0,0,0,8,0Z"/><path d="M17,38a2,2,0,0,1-2-2H13a4,4,0,0,0,8,0H19A2,2,0,0,1,17,38Z"/><path d="M17,18a.994.994,0,0,0,.572-.181l4.1-2.867-1.147-1.639-2.138,1.5a13.98,13.98,0,0,1,27.232,0l-2.138-1.5-1.147,1.639,4.1,2.867a1,1,0,0,0,1.392-.245l2.868-4.1-1.638-1.147-1.471,2.1a15.976,15.976,0,0,0-31.156,0l-1.471-2.1-1.639,1.147,2.869,4.1A1,1,0,0,0,17,18Z"/><path d="M55.293,10.707a1,1,0,0,0,1.414,0l3.535-3.535a3,3,0,0,0,0-4.242,3.071,3.071,0,0,0-4.243,0,3.072,3.072,0,0,0-4.242,0,3,3,0,0,0,0,4.242Zm-2.12-6.364a1,1,0,0,1,1.413,0l.707.707a1,1,0,0,0,1.414,0l.707-.707a1.023,1.023,0,0,1,1.414,0,1,1,0,0,1,0,1.413L56,8.585,53.172,5.757a1,1,0,0,1,0-1.414Z"/><path d="M7.293,10.707a1,1,0,0,0,1.414,0l3.535-3.535a3,3,0,0,0,0-4.242A3.071,3.071,0,0,0,8,2.929a3.072,3.072,0,0,0-4.242,0,3,3,0,0,0,0,4.242ZM5.173,4.343a1,1,0,0,1,1.413,0l.707.707a1,1,0,0,0,1.414,0l.707-.707a1.023,1.023,0,0,1,1.414,0,1,1,0,0,1,0,1.413L8,8.585,5.172,5.757a1,1,0,0,1,0-1.414Z"/><path d="M32,13a1,1,0,0,1,1,1h2a3,3,0,0,0-2-2.816V10H31v1.184A2.993,2.993,0,0,0,32,17a1,1,0,1,1-1,1H29a3,3,0,0,0,2,2.816V22h2V20.816A2.993,2.993,0,0,0,32,15a1,1,0,0,1,0-2Z"/></g></svg>