<svg xmlns="http://www.w3.org/2000/svg" viewBox="0 0 64 64"><g id="Collaboration"><path d="M15.45,49.41,12,52,8.55,49.41,10,49V46.46a3.974,3.974,0,0,0,4,0V49Z" style="fill:#ffb655"/><rect x="6" y="54" width="2" height="4"/><path d="M47,58H43V54.02a4,4,0,0,1,2.9-3.85l2.65-.76L52,52l3.45-2.59,2.65.76A4,4,0,0,1,61,54.02V58Z" style="fill:#ff6243"/><path d="M59.85,26.09l-4.58,6.55-6.56-4.59,2.99-.52a19.91,19.91,0,0,0-8.23-12.91l2.87-4.1A24.944,24.944,0,0,1,56.62,26.66Z" style="fill:#ff9811"/><path d="M57,40v1h-.76a.974.974,0,0,1-.24-.02,1.958,1.958,0,0,1-1.55-1.09L54,39l-1.49.99A5.958,5.958,0,0,1,49.18,41H47V40a5,5,0,0,1,10,0Z" style="fill:#787680"/><path d="M56,41v2a4.025,4.025,0,0,1-1.17,2.83,4.225,4.225,0,0,1-.83.63A4,4,0,0,1,48,43V41h1.18a5.958,5.958,0,0,0,3.33-1.01L54,39l.45.89A1.958,1.958,0,0,0,56,40.98Z" style="fill:#ffc477"/><path d="M55.45,49.41,52,52l-3.45-2.59L50,49V46.46a3.974,3.974,0,0,0,4,0V49Z" style="fill:#ffb655"/><path d="M37,26H23V22.02a4,4,0,0,1,2.9-3.85l2.65-.76L32,20l3.45-2.59,2.65.76A4,4,0,0,1,41,22.02V26Z" style="fill:#3d9ae2"/><path d="M38.54,49.91l1.47,4.78A25.1,25.1,0,0,1,29.82,55.9l-.29,3.28-5.14-6.13,6.13-5.14-.26,3.01A20,20,0,0,0,38.54,49.91Z" style="fill:#ff9811"/><path d="M37,8V9h-.76A.974.974,0,0,1,36,8.98a1.958,1.958,0,0,1-1.55-1.09L34,7l-1.49.99A5.958,5.958,0,0,1,29.18,9H27V8A5,5,0,0,1,37,8Z" style="fill:#787680"/><path d="M36,9v2a4.025,4.025,0,0,1-1.17,2.83,4.225,4.225,0,0,1-.83.63A4,4,0,0,1,28,11V9h1.18a5.958,5.958,0,0,0,3.33-1.01L34,7l.45.89A1.958,1.958,0,0,0,36,8.98Z" style="fill:#ffc477"/><path d="M35.45,17.41,32,20l-3.45-2.59L30,17V14.46a3.974,3.974,0,0,0,4,0V17Z" style="fill:#ffb655"/><path d="M17,58H3V54.02a4,4,0,0,1,2.9-3.85l2.65-.76L12,52l3.45-2.59,2.65.76A4,4,0,0,1,21,54.02V58Z" style="fill:#00ccb3"/><path d="M20,11v8l-2.14-2.14A19.938,19.938,0,0,0,12,31H7a24.959,24.959,0,0,1,7.32-17.68L12,11Z" style="fill:#ff9811"/><path d="M17,40v1h-.76a.974.974,0,0,1-.24-.02,1.958,1.958,0,0,1-1.55-1.09L14,39l-1.49.99A5.958,5.958,0,0,1,9.18,41H7V40a5,5,0,0,1,10,0Z" style="fill:#787680"/><path d="M16,41v2a4.025,4.025,0,0,1-1.17,2.83,4.225,4.225,0,0,1-.83.63A4,4,0,0,1,8,43V41H9.18a5.958,5.958,0,0,0,3.33-1.01L14,39l.45.89A1.958,1.958,0,0,0,16,40.98Z" style="fill:#ffc477"/><path d="M14,46.46v1a3.974,3.974,0,0,1-4,0v-1a3.974,3.974,0,0,0,4,0Z" style="fill:#ffa733"/><path d="M54,46.46v1a3.974,3.974,0,0,1-4,0v-1a3.974,3.974,0,0,0,4,0Z" style="fill:#ffa733"/><path d="M34,14.46v1a3.974,3.974,0,0,1-4,0v-1a3.974,3.974,0,0,0,4,0Z" style="fill:#ffa733"/><path d="M42,22.02a5.021,5.021,0,0,0-3.625-4.812L35,16.244v-1.27A4.977,4.977,0,0,0,37,11V10a1,1,0,0,0,1-1V8A6,6,0,0,0,26,8V9a1,1,0,0,0,1,1v1a4.977,4.977,0,0,0,2,3.974v1.27l-3.374.964A5.02,5.02,0,0,0,22,22.02V26a1,1,0,0,0,1,1H41a1,1,0,0,0,1-1ZM32,4a4,4,0,0,1,4,3.972,1,1,0,0,1-.66-.526L34.9,6.554a1,1,0,0,0-1.45-.386l-1.488.992A4.987,4.987,0,0,1,29.184,8H28A4,4,0,0,1,32,4Zm-2.816,6a6.976,6.976,0,0,0,3.882-1.176l.548-.365A2.956,2.956,0,0,0,35,9.709V11a3,3,0,0,1-6,0V10ZM32,16a5,5,0,0,0,1-.1V17a.991.991,0,0,0,.345.74L32,18.75l-1.345-1.01A.991.991,0,0,0,31,17V15.9A5,5,0,0,0,32,16Zm8,9H38V22H36v3H28V22H26v3H24V22.02a3.015,3.015,0,0,1,2.176-2.889l2.174-.62L31.4,20.8a1,1,0,0,0,1.2,0l3.049-2.289,2.175.621A3.013,3.013,0,0,1,40,22.02Z"/><path d="M58.375,49.208,55,48.244v-1.27A4.977,4.977,0,0,0,57,43V42a1,1,0,0,0,1-1V40a6,6,0,0,0-12,0v1a1,1,0,0,0,1,1v1a4.977,4.977,0,0,0,2,3.974v1.27l-3.374.964A5.02,5.02,0,0,0,42,54.02V58a1,1,0,0,0,1,1H61a1,1,0,0,0,1-1V54.02A5.021,5.021,0,0,0,58.375,49.208ZM52,36a4,4,0,0,1,4,3.972,1,1,0,0,1-.66-.526l-.445-.892a1,1,0,0,0-1.45-.386l-1.488.992a4.987,4.987,0,0,1-2.773.84H48A4,4,0,0,1,52,36Zm-2.816,6a6.976,6.976,0,0,0,3.882-1.176l.548-.365A2.956,2.956,0,0,0,55,41.709V43a3,3,0,0,1-6,0V42ZM52,48a5,5,0,0,0,1-.1V49a.991.991,0,0,0,.345.74L52,50.75l-1.345-1.01A.991.991,0,0,0,51,49V47.9A5,5,0,0,0,52,48Zm8,9H58V54H56v3H48V54H46v3H44V54.02a3.015,3.015,0,0,1,2.176-2.889l2.174-.62L51.4,52.8a1,1,0,0,0,1.2,0l3.049-2.289,2.175.621A3.013,3.013,0,0,1,60,54.02Z"/><path d="M18.375,49.208,15,48.244v-1.27A4.977,4.977,0,0,0,17,43V42a1,1,0,0,0,1-1V40A6,6,0,0,0,6,40v1a1,1,0,0,0,1,1v1a4.977,4.977,0,0,0,2,3.974v1.27l-3.374.964A5.02,5.02,0,0,0,2,54.02V58a1,1,0,0,0,1,1H21a1,1,0,0,0,1-1V54.02A5.021,5.021,0,0,0,18.375,49.208ZM12,36a4,4,0,0,1,4,3.972,1,1,0,0,1-.66-.526l-.445-.892a1,1,0,0,0-1.45-.386l-1.488.992A4.987,4.987,0,0,1,9.184,40H8A4,4,0,0,1,12,36ZM9.184,42a6.976,6.976,0,0,0,3.882-1.176l.548-.365A2.956,2.956,0,0,0,15,41.709V43a3,3,0,0,1-6,0V42ZM12,48a5,5,0,0,0,1-.1V49a.991.991,0,0,0,.345.74L12,50.75l-1.345-1.01A.991.991,0,0,0,11,49V47.9A5,5,0,0,0,12,48Zm8,9H18V54H16v3H8V54H6v3H4V54.02a3.015,3.015,0,0,1,2.176-2.889l2.174-.62L11.4,52.8a1,1,0,0,0,1.2,0l3.049-2.289,2.175.621A3.013,3.013,0,0,1,20,54.02Z"/><path d="M7,32h5a1,1,0,0,0,1-1,18.867,18.867,0,0,1,4.876-12.71l1.417,1.417A1,1,0,0,0,21,19V11a1,1,0,0,0-1-1H12a1,1,0,0,0-.707,1.707l1.628,1.628A25.817,25.817,0,0,0,6,31,1,1,0,0,0,7,32Zm8.029-17.971a1,1,0,0,0,0-1.414L14.414,12H19v4.586l-.436-.435a1,1,0,0,0-1.414,0A20.85,20.85,0,0,0,11.023,30h-3A23.829,23.829,0,0,1,15.029,14.029Z"/><path d="M50.513,26.72l-1.974.348a1,1,0,0,0-.4,1.8l6.552,4.588a1,1,0,0,0,1.393-.246l4.589-6.553a1,1,0,0,0-.993-1.558l-2.268.4a25.823,25.823,0,0,0-10.5-15.8,1,1,0,0,0-1.392.245l-2.869,4.1a1,1,0,0,0,.246,1.394A18.863,18.863,0,0,1,50.513,26.72Zm-3.94-14.789a23.833,23.833,0,0,1,9.063,14.9,1,1,0,0,0,1.158.811l.856-.152-2.629,3.757-3.757-2.63.606-.107a1,1,0,0,0,.811-1.159,20.843,20.843,0,0,0-7.829-12.962Z"/><path d="M39.5,49.612a1,1,0,0,0-1.283-.652,18.875,18.875,0,0,1-6.874,1.029l.175-2a1,1,0,0,0-1.639-.853L23.75,52.282a1,1,0,0,0-.123,1.409l5.143,6.128a1,1,0,0,0,.765.358.975.975,0,0,0,.3-.047,1,1,0,0,0,.7-.866l.2-2.294a25.935,25.935,0,0,0,9.6-1.334,1,1,0,0,0,.636-1.241Zm-9.591,5.3a1,1,0,0,0-1.083.909l-.076.867L25.8,53.171l3.512-2.947-.053.613a1,1,0,0,0,.909,1.083,20.87,20.87,0,0,0,7.714-.755l.881,2.869A23.927,23.927,0,0,1,29.908,54.909Z"/></g></svg>