<svg xmlns="http://www.w3.org/2000/svg" viewBox="0 0 64 64"><g id="Teamwork-Partnership"><rect x="7" y="3" width="16" height="26" style="fill:#3d9ae2"/><rect x="35" y="7" width="26" height="16" style="fill:#3d9ae2"/><rect x="41" y="35" width="16" height="26" style="fill:#3d9ae2"/><path d="M39,15.27A2,2,0,0,0,38,17v6H36V17a2,2,0,0,1,3-1.73Z" style="fill:#1e81ce"/><path d="M42.27,7A2,2,0,0,0,42,8v9a2.015,2.015,0,0,0-2-2V8a2,2,0,0,1,.27-1Z" style="fill:#1e81ce"/><path d="M49,38a2,2,0,0,1-.27,1A2,2,0,0,0,47,38H41V36h6A2.006,2.006,0,0,1,49,38Z" style="fill:#1e81ce"/><path d="M57,40.27v2A2,2,0,0,0,56,42H47a2.015,2.015,0,0,0,2-2h7A2,2,0,0,1,57,40.27Z" style="fill:#1e81ce"/><path d="M12,10H10a2,2,0,0,1,.27-1A2,2,0,0,0,12,10Z" style="fill:#1e81ce"/><path d="M17,22a2.015,2.015,0,0,0-2,2H8a2,2,0,0,1-1-.27v-2A2,2,0,0,0,8,22Z" style="fill:#1e81ce"/><path d="M23,26v2H17a2,2,0,0,1-1.73-3A2,2,0,0,0,17,26Z" style="fill:#1e81ce"/><rect x="3" y="41" width="26" height="16" style="fill:#3d9ae2"/><path d="M24,49v7a2,2,0,0,1-.27,1h-2A2,2,0,0,0,22,56V47a2.015,2.015,0,0,0,2,2Z" style="fill:#1e81ce"/><path d="M28,41v6a2,2,0,0,1-3,1.73A2,2,0,0,0,26,47V41Z" style="fill:#1e81ce"/><path d="M22,31V29H9v2L6,36V52a2.015,2.015,0,0,0,2,2,2.006,2.006,0,0,0,2-2v4a2,2,0,0,0,.27,1,1.813,1.813,0,0,0,.32.41A1.955,1.955,0,0,0,12,58a2,2,0,0,0,2-2v3a2.015,2.015,0,0,0,2,2,2.006,2.006,0,0,0,2-2V56a2,2,0,0,0,.27,1,1.813,1.813,0,0,0,.32.41A1.955,1.955,0,0,0,20,58a2,2,0,0,0,2-2V47a2.015,2.015,0,0,0,2,2,2.006,2.006,0,0,0,2-2V35Z" style="fill:#ffc477"/><path d="M59,46H56a2,2,0,0,0,1-.27,1.813,1.813,0,0,0,.41-.32A1.955,1.955,0,0,0,58,44a2,2,0,0,0-2-2H47a2.015,2.015,0,0,0,2-2,2.006,2.006,0,0,0-2-2H35l-4,4H29V55h2l5,3H52a2.015,2.015,0,0,0,2-2,2.006,2.006,0,0,0-2-2h4a2,2,0,0,0,1-.27,1.813,1.813,0,0,0,.41-.32A1.955,1.955,0,0,0,58,52a2,2,0,0,0-2-2h3a2.015,2.015,0,0,0,2-2A2.006,2.006,0,0,0,59,46Z" style="fill:#ffc477"/><path d="M33,9,28,6H12a2.015,2.015,0,0,0-2,2,2.006,2.006,0,0,0,2,2H8a2,2,0,0,0-1,.27,1.813,1.813,0,0,0-.41.32A1.955,1.955,0,0,0,6,12a2,2,0,0,0,2,2H5a2.015,2.015,0,0,0-2,2,2.006,2.006,0,0,0,2,2H8a2,2,0,0,0-1,.27,1.813,1.813,0,0,0-.41.32A1.955,1.955,0,0,0,6,20a2,2,0,0,0,2,2h9a2.015,2.015,0,0,0-2,2,2.006,2.006,0,0,0,2,2H29l4-4h2V9Z" style="fill:#ffc477"/><path d="M57.41,10.59A1.955,1.955,0,0,0,56,10a2.006,2.006,0,0,0-2,2V8a2,2,0,0,0-.27-1,1.813,1.813,0,0,0-.32-.41A1.955,1.955,0,0,0,52,6a2,2,0,0,0-2,2V5a2.015,2.015,0,0,0-2-2,2.006,2.006,0,0,0-2,2V8a2,2,0,0,0-.27-1,1.813,1.813,0,0,0-.32-.41A1.955,1.955,0,0,0,44,6a2,2,0,0,0-2,2v9a2.015,2.015,0,0,0-2-2,2.006,2.006,0,0,0-2,2V29l4,4v2H55V33l3-5V12A1.955,1.955,0,0,0,57.41,10.59Z" style="fill:#ffc477"/><path d="M58.857,28.515A1,1,0,0,0,59,28V24h2a1,1,0,0,0,1-1V7a1,1,0,0,0-1-1H54.22A2.919,2.919,0,0,0,51,5.184V5a3,3,0,0,0-6,0v.184A2.919,2.919,0,0,0,41.78,6H35a1,1,0,0,0-1,1V8h-.723L28.515,5.143A1,1,0,0,0,28,5H24V3a1,1,0,0,0-1-1H7A1,1,0,0,0,6,3V9.78A2.919,2.919,0,0,0,5.184,13H5a3,3,0,0,0,0,6h.184A2.919,2.919,0,0,0,6,22.22V29a1,1,0,0,0,1,1H8v.723L5.143,35.485A1,1,0,0,0,5,36v4H3a1,1,0,0,0-1,1V57a1,1,0,0,0,1,1H9.78a2.919,2.919,0,0,0,3.22.816V59a3,3,0,0,0,6,0v-.184A2.919,2.919,0,0,0,22.22,58H29a1,1,0,0,0,1-1V56h.723l4.762,2.857A1,1,0,0,0,36,59h4v2a1,1,0,0,0,1,1H57a1,1,0,0,0,1-1V54.22A2.919,2.919,0,0,0,58.816,51H59a3,3,0,0,0,0-6h-.184A2.919,2.919,0,0,0,58,41.78V35a1,1,0,0,0-1-1H56v-.723ZM60,8V22H59V12a3,3,0,0,0-3-3,2.966,2.966,0,0,0-1,.184V8ZM36,8h5v6.184A2.966,2.966,0,0,0,40,14a3,3,0,0,0-3,3v5H36ZM8,4H22V5H12A3,3,0,0,0,9,8a2.966,2.966,0,0,0,.184,1H8ZM5,17a1,1,0,0,1,0-2H19V13H8a1,1,0,0,1,0-2H19V9H12a1,1,0,0,1,0-2H27.723l4.762,2.857A1,1,0,0,0,33,10h1V21H33a1,1,0,0,0-.707.293L28.586,25H17a1,1,0,0,1,0-2h6V21H8a1,1,0,0,1,0-2H19V17Zm9.184,6A2.966,2.966,0,0,0,14,24a3,3,0,0,0,3,3h5v1H8V23ZM4,56V42H5V52a3,3,0,0,0,3,3,2.966,2.966,0,0,0,1-.184V56Zm17,0a1,1,0,0,1-2,0V45H17V59a1,1,0,0,1-2,0V45H13V56a1,1,0,0,1-2,0V45H9v7a1,1,0,0,1-2,0V36.277l2.857-4.762A1,1,0,0,0,10,31V30H21v1a1,1,0,0,0,.293.707L25,35.414V47a1,1,0,0,1-2,0V41H21Zm7,0H23V49.816A2.966,2.966,0,0,0,24,50a3,3,0,0,0,3-3V42h1ZM27,40V35a1,1,0,0,0-.293-.707L23,30.586V30a1,1,0,0,0,1-1V27h5a1,1,0,0,0,.707-.293L33.414,23H34a1,1,0,0,0,1,1h2v5a1,1,0,0,0,.293.707L41,33.414V34a1,1,0,0,0-1,1v2H35a1,1,0,0,0-.707.293L30.586,41H30a1,1,0,0,0-1-1ZM56,60H42V59H52a3,3,0,0,0,3-3,2.966,2.966,0,0,0-.184-1H56Zm3-13a1,1,0,0,1,0,2H45v2H56a1,1,0,0,1,0,2H45v2h7a1,1,0,0,1,0,2H36.277l-4.762-2.857A1,1,0,0,0,31,54H30V43h1a1,1,0,0,0,.707-.293L35.414,39H47a1,1,0,0,1,0,2H41v2H56a1,1,0,0,1,0,2H45v2Zm-9.184-6A2.966,2.966,0,0,0,50,40a3,3,0,0,0-3-3H42V36H56v5ZM43,34V33a1,1,0,0,0-.293-.707L39,28.586V17a1,1,0,0,1,2,0v6h2V8a1,1,0,0,1,2,0V19h2V5a1,1,0,0,1,2,0V19h2V8a1,1,0,0,1,2,0V19h2V12a1,1,0,0,1,2,0V27.723l-2.857,4.762A1,1,0,0,0,54,33v1Z"/></g></svg>