<svg xmlns="http://www.w3.org/2000/svg" viewBox="0 0 64 64"><g id="Teach-Knowledge"><path d="M30.35,33.87a6.02,6.02,0,0,0-3.77-3.08L22.3,29.42,19,32.17,18,33l-4.36-3.63L8.42,30.79A6.013,6.013,0,0,0,4,36.58V47H31V36.58A5.921,5.921,0,0,0,30.35,33.87Z" style="fill:#3d9ae2"/><path d="M55.58,30.79,51.3,29.42,47,33l-2-1.67-2.36-1.96-5.22,1.42a6.02,6.02,0,0,0-3.77,3.08A5.921,5.921,0,0,0,33,36.58V47H60V36.58A6.013,6.013,0,0,0,55.58,30.79Z" style="fill:#00ccb3"/><polygon points="33 43 31 43 19 43 19 47 31 47 33 47 45 47 45 43 33 43" style="fill:#cc7400"/><path d="M51.3,29.42,47,33l-2-1.67V29a2.016,2.016,0,0,0-.62-1.45,2.2,2.2,0,0,0-.38-.28v-.85a8.049,8.049,0,0,0,6,0V29Z" style="fill:#ffb655"/><path d="M45,29v2.33l-2.36-1.96L44,29V27.27A2,2,0,0,1,45,29Z" style="fill:#ffb655"/><path d="M22.3,29.42,19,32.17,18,33l-4.36-3.63L15,29V26.42a8.049,8.049,0,0,0,6,0V29Z" style="fill:#ffb655"/><polygon points="61 47 61 51 59 51 5 51 3 51 3 47 4 47 19 47 31 47 33 47 45 47 55 47 60 47 61 47" style="fill:#603913"/><rect x="5" y="51" width="54" height="8" style="fill:#8b5e3c"/><path d="M56,14v3h-.29a5.374,5.374,0,0,1-.7-.04,5.986,5.986,0,0,1-4.67-3.28L50,13l-1.66,1.66A7.985,7.985,0,0,1,42.69,17H38V14a9,9,0,0,1,18,0Z" style="fill:#787680"/><path d="M50,26.42A8,8,0,0,1,39,19V17h3.69a7.985,7.985,0,0,0,5.65-2.34L50,13l.34.68a5.986,5.986,0,0,0,4.67,3.28L55,17v2A8.008,8.008,0,0,1,50,26.42Z" style="fill:#ffc477"/><path d="M50,26.42v1A8.093,8.093,0,0,1,47,28a7.836,7.836,0,0,1-2.62-.45,2.2,2.2,0,0,0-.38-.28v-.85a8.049,8.049,0,0,0,6,0Z" style="fill:#ffa733"/><path d="M27,14v3h-.29a5.374,5.374,0,0,1-.7-.04,5.986,5.986,0,0,1-4.67-3.28L21,13l-1.66,1.66A7.985,7.985,0,0,1,13.69,17H9V14a9,9,0,0,1,18,0Z" style="fill:#787680"/><path d="M21,26.42A8,8,0,0,1,10,19V17h3.69a7.985,7.985,0,0,0,5.65-2.34L21,13l.34.68a5.986,5.986,0,0,0,4.67,3.28L26,17v2A8.008,8.008,0,0,1,21,26.42Z" style="fill:#ffc477"/><path d="M21,26.42v1a8.049,8.049,0,0,1-6,0v-1a8.049,8.049,0,0,0,6,0Z" style="fill:#ffa733"/><path d="M45,29V43H19V29a2.006,2.006,0,0,1,2-2H43a2,2,0,0,1,2,2Z" style="fill:#ff9811"/><circle cx="32" cy="35" r="2" style="fill:#ffd422"/><rect x="5" y="51" width="54" height="2" style="fill:#754c29"/><path d="M32,32a3,3,0,1,0,3,3A3,3,0,0,0,32,32Zm0,4a1,1,0,1,1,1-1A1,1,0,0,1,32,36Z"/><path d="M61,46V36.58a7.016,7.016,0,0,0-5.115-6.742L51,28.272V27.05A9,9,0,0,0,56,19V18a1,1,0,0,0,1-1V14a10,10,0,0,0-20,0v3a1,1,0,0,0,1,1v1a8.983,8.983,0,0,0,3.356,7H23.644A8.983,8.983,0,0,0,27,19V18a1,1,0,0,0,1-1V14A10,10,0,0,0,8,14v3a1,1,0,0,0,1,1v1a9,9,0,0,0,5,8.05v1.186l-5.846,1.59A7.031,7.031,0,0,0,3,36.58V45a2.966,2.966,0,0,0,.184,1H3a1,1,0,0,0-1,1v4a1,1,0,0,0,1,1H4v7a1,1,0,0,0,1,1H59a1,1,0,0,0,1-1V52h1a1,1,0,0,0,1-1V47A1,1,0,0,0,61,46Zm-2-9.42V46H56V37H54v9H46V33.468l.359.3a1,1,0,0,0,1.281,0l3.88-3.231,3.794,1.216A5.026,5.026,0,0,1,59,36.58ZM44,29V42H20V29a1,1,0,0,1,1-1H43A1,1,0,0,1,44,29ZM20,44H44v2H20ZM49.347,29.745,47,31.7l-1-.836V29a2.966,2.966,0,0,0-.213-1.092A8.462,8.462,0,0,0,49,27.768V29A1,1,0,0,0,49.347,29.745ZM39,14a8,8,0,0,1,16,0v1.951a4.968,4.968,0,0,1-3.764-2.715l-.341-.683a1,1,0,0,0-.735-.54,1.015,1.015,0,0,0-.867.28L47.636,13.95A6.954,6.954,0,0,1,42.687,16H39Zm1,5V18h2.687a8.939,8.939,0,0,0,6.363-2.636l.7-.7A6.943,6.943,0,0,0,54,17.787V19a7,7,0,0,1-14,0ZM10,14a8,8,0,0,1,16,0v1.951a4.968,4.968,0,0,1-3.764-2.715l-.341-.683a1,1,0,0,0-.735-.54,1.013,1.013,0,0,0-.867.28L18.636,13.95A6.954,6.954,0,0,1,13.687,16H10Zm1,5V18h2.687a8.939,8.939,0,0,0,6.363-2.636l.7-.7A6.943,6.943,0,0,0,25,17.787V19a7,7,0,0,1-14,0Zm7,9c.063,0,.124-.008.187-.009A2.962,2.962,0,0,0,18,29v2.7l-2.349-1.956A.989.989,0,0,0,16,29V27.768A8.971,8.971,0,0,0,18,28ZM5,45V36.58a5.024,5.024,0,0,1,3.683-4.825L13.4,30.471l3.96,3.3A1,1,0,0,0,18,34v7H10V36H8v5a2,2,0,0,0,2,2h8v3H6A1,1,0,0,1,5,45ZM58,58H6V52H58Zm2-8H4V48H60Z"/><path d="M22,20H20a2,2,0,0,1-4,0H14a4,4,0,0,0,8,0Z"/><path d="M47,24a4,4,0,0,0,4-4H49a2,2,0,0,1-4,0H43A4,4,0,0,0,47,24Z"/><rect x="2" y="14" width="4" height="2"/><rect x="3" y="7.764" width="2" height="4.472" transform="translate(-6.733 9.106) rotate(-63.435)"/><rect x="1.764" y="19" width="4.472" height="2" transform="translate(-8.522 3.9) rotate(-26.565)"/><rect x="58" y="14" width="4" height="2"/><rect x="57.764" y="9" width="4.472" height="2" transform="translate(1.862 27.889) rotate(-26.565)"/><rect x="59" y="17.764" width="2" height="4.472" transform="translate(15.279 64.721) rotate(-63.435)"/><path d="M32,11a1,1,0,0,1-1-1H29a3,3,0,0,0,2,2.816V14h2V12.816A2.993,2.993,0,0,0,32,7a1,1,0,1,1,1-1h2a3,3,0,0,0-2-2.816V2H31V3.184A2.993,2.993,0,0,0,32,9a1,1,0,0,1,0,2Z"/></g></svg>