<svg xmlns="http://www.w3.org/2000/svg" viewBox="0 0 64 64"><g id="Global-Business"><path d="M43.2,27H41.74c.08-.22.16-.44.23-.67A12.239,12.239,0,0,1,43.2,27Z" style="fill:#122e44"/><path d="M41.97,26.33c-.07.23-.15.45-.23.67H36V25A14.032,14.032,0,0,1,41.97,26.33Z" style="fill:#183e5a"/><rect x="23" y="35" width="38" height="20" rx="2" style="fill:#00ccb3"/><path d="M50,19H43a25.491,25.491,0,0,0-1.03-7.33A14.192,14.192,0,0,0,45.79,9,13.931,13.931,0,0,1,50,19Z" style="fill:#378bcb"/><path d="M43,19h7a13.876,13.876,0,0,1-2.52,8H43.2a12.239,12.239,0,0,0-1.23-.67A25.491,25.491,0,0,0,43,19Z" style="fill:#2b6c9e"/><circle cx="42" cy="45" r="6" style="fill:#ffd422"/><path d="M43,19H36V13a14.032,14.032,0,0,0,5.97-1.33A25.491,25.491,0,0,1,43,19Z" style="fill:#4fa3e5"/><path d="M36,19h7a25.491,25.491,0,0,1-1.03,7.33A14.032,14.032,0,0,0,36,25Z" style="fill:#2c6fa2"/><path d="M45.79,9a14.192,14.192,0,0,1-3.82,2.67C40.73,7.67,38.52,5,36,5A13.971,13.971,0,0,1,45.79,9Z" style="fill:#72b6ea"/><path d="M36,5c2.52,0,4.73,2.67,5.97,6.67A14.032,14.032,0,0,1,36,13Z" style="fill:#84bfed"/><path d="M36,25v2H30.26c-.08-.22-.16-.44-.23-.67A14.032,14.032,0,0,1,36,25Z" style="fill:#2b6c9e"/><path d="M36,19v6a14.032,14.032,0,0,0-5.97,1.33A25.491,25.491,0,0,1,29,19Z" style="fill:#317db7"/><path d="M36,13v6H29a25.491,25.491,0,0,1,1.03-7.33A14.032,14.032,0,0,0,36,13Z" style="fill:#60ace7"/><path d="M36,5v8a14.032,14.032,0,0,1-5.97-1.33C31.27,7.67,33.48,5,36,5Z" style="fill:#95c8ef"/><path d="M59,31H25a2.006,2.006,0,0,0-2,2v4a2.006,2.006,0,0,1,2-2H59a2.006,2.006,0,0,1,2,2V33A2.006,2.006,0,0,0,59,31Z" style="fill:#00b39d"/><path d="M36,5c-2.52,0-4.73,2.67-5.97,6.67A14.192,14.192,0,0,1,26.21,9,13.971,13.971,0,0,1,36,5Z" style="fill:#a7d1f2"/><path d="M30.26,27H28.8a12.239,12.239,0,0,1,1.23-.67C30.1,26.56,30.18,26.78,30.26,27Z" style="fill:#2b6c9e"/><path d="M30.03,11.67A25.491,25.491,0,0,0,29,19H22A13.931,13.931,0,0,1,26.21,9,14.192,14.192,0,0,0,30.03,11.67Z" style="fill:#95c8ef"/><path d="M29,19a25.491,25.491,0,0,0,1.03,7.33A12.239,12.239,0,0,0,28.8,27H25a2.118,2.118,0,0,0-.44.05A13.825,13.825,0,0,1,22,19Z" style="fill:#378bcb"/><path d="M59,27H25a2.118,2.118,0,0,0-.44.05A2,2,0,0,0,23,29v4a2.006,2.006,0,0,1,2-2H59a2.006,2.006,0,0,1,2,2V29A2.006,2.006,0,0,0,59,27Z" style="fill:#009986"/><path d="M19,59v2H13l-2-1V57h6A2.006,2.006,0,0,1,19,59Z" style="fill:#754c29"/><path d="M11,20l2-2a6,6,0,0,1,6,6V35H3V24a6,6,0,0,1,6-6Z" style="fill:#3d9ae2"/><polygon points="11 57 6 57 6 35 16 35 16 57 11 57" style="fill:#787680"/><path d="M16,8v2H14.83a2.006,2.006,0,0,1-1.42-.59L12,8l-.83.83A4,4,0,0,1,8.34,10H6V8A5,5,0,0,1,16,8Z" style="fill:#787680"/><path d="M15,10v2a3.994,3.994,0,0,1-6,3.46,4.225,4.225,0,0,1-.83-.63A4.025,4.025,0,0,1,7,12V10H8.34a4,4,0,0,0,2.83-1.17L12,8l1.41,1.41a2.006,2.006,0,0,0,1.42.59Z" style="fill:#ffc477"/><path d="M13,15.46V18l-2,2L9,18V15.46a3.974,3.974,0,0,0,4,0Z" style="fill:#ffb655"/><path d="M11,57v3L9,61H3V59a2.006,2.006,0,0,1,2-2h6Z" style="fill:#8b5e3c"/><path d="M13,15.46v1a3.974,3.974,0,0,1-4,0v-1a3.974,3.974,0,0,0,4,0Z" style="fill:#ffa733"/><path d="M14,17.071v-1.1A4.977,4.977,0,0,0,16,12V11a1,1,0,0,0,1-1V8A6,6,0,0,0,5,8v2a1,1,0,0,0,1,1v1a4.977,4.977,0,0,0,2,3.974v1.1A7.011,7.011,0,0,0,2,24V35a1,1,0,0,0,1,1H5V56a3,3,0,0,0-3,3v2a1,1,0,0,0,1,1H9a1,1,0,0,0,.447-.1L11,61.118l1.553.777A1,1,0,0,0,13,62h6a1,1,0,0,0,1-1V59a3,3,0,0,0-3-3V36h2a1,1,0,0,0,1-1V24A7.011,7.011,0,0,0,14,17.071ZM7,8a4,4,0,0,1,8,0V9h-.171a1,1,0,0,1-.708-.293L12.707,7.293a1,1,0,0,0-1.414,0l-.829.829A3.02,3.02,0,0,1,8.343,9H7Zm1.343,3a4.966,4.966,0,0,0,3.535-1.464L12,9.414l.707.707A2.96,2.96,0,0,0,14,10.87V12a3,3,0,0,1-6,0V11ZM11,17a5,5,0,0,0,1-.1v.687l-1,1-1-1V16.9A5,5,0,0,0,11,17ZM8.764,60H4V59a1,1,0,0,1,1-1h5v1.382ZM18,59v1H13.236L12,59.382V58h5A1,1,0,0,1,18,59Zm-3-3H12V40H10V56H7V36h8Zm3-22H17V23H15V34H7V23H5V34H4V24a4.991,4.991,0,0,1,4.624-4.962L10,20.414V30h2V20.414l1.376-1.376A4.991,4.991,0,0,1,18,24Z"/><path d="M42,38a7,7,0,1,0,7,7A7.008,7.008,0,0,0,42,38Zm0,12a5,5,0,1,1,5-5A5.006,5.006,0,0,1,42,50Z"/><path d="M59,26H49.252a15,15,0,1,0-26.129.678A2.985,2.985,0,0,0,22,29V53a3,3,0,0,0,3,3H59a3,3,0,0,0,3-3V29A3,3,0,0,0,59,26Zm1,3v1.184A2.966,2.966,0,0,0,59,30H25a2.966,2.966,0,0,0-1,.184V29a1,1,0,0,1,1-1H59A1,1,0,0,1,60,29ZM43.974,18a26.092,26.092,0,0,0-.829-5.822A15.111,15.111,0,0,0,45.728,10.4,12.824,12.824,0,0,1,48.951,18ZM37,6.21c1.411.566,2.777,2.3,3.725,4.885A13.053,13.053,0,0,1,37,11.94Zm-2,5.73a13.023,13.023,0,0,1-3.725-.845C32.223,8.508,33.588,6.776,35,6.21Zm-4.307,1.076a14.856,14.856,0,0,0,4.307.93V18H30.025A24.349,24.349,0,0,1,30.693,13.016ZM35,20v4.06a15.08,15.08,0,0,0-4.288.919A24.861,24.861,0,0,1,30.034,20Zm6.288,4.979A15.065,15.065,0,0,0,37,24.06V20h4.966A24.861,24.861,0,0,1,41.288,24.979ZM37,18V13.946a14.845,14.845,0,0,0,4.307-.931A24.369,24.369,0,0,1,41.975,18Zm5.527-7.757a14.332,14.332,0,0,0-1.746-3.327,12.978,12.978,0,0,1,3.511,2.091A13.26,13.26,0,0,1,42.527,10.243Zm-13.054,0a13.042,13.042,0,0,1-1.765-1.236,13,13,0,0,1,3.511-2.09A14.324,14.324,0,0,0,29.473,10.242Zm-.618,1.936A26.092,26.092,0,0,0,28.026,18H23.049a12.824,12.824,0,0,1,3.223-7.6A15.146,15.146,0,0,0,28.855,12.178ZM28.035,20a26.567,26.567,0,0,0,.827,5.806c-.114.063-.222.129-.332.194H25.067a12.788,12.788,0,0,1-2.029-6ZM43.47,26c-.11-.065-.218-.131-.332-.194A26.619,26.619,0,0,0,43.965,20h5a12.863,12.863,0,0,1-2.026,6ZM60,53a1,1,0,0,1-1,1H25a1,1,0,0,1-1-1V37a1,1,0,0,1,1-1H59a1,1,0,0,1,1,1Zm0-18.816A2.966,2.966,0,0,0,59,34H25a2.966,2.966,0,0,0-1,.184V33a1,1,0,0,1,1-1H59a1,1,0,0,1,1,1Z"/><path d="M28,40h3V38H27a1,1,0,0,0-1,1v4h2Z"/><path d="M57,38H53v2h3v3h2V39A1,1,0,0,0,57,38Z"/><path d="M28,47H26v4a1,1,0,0,0,1,1h4V50H28Z"/><path d="M56,50H53v2h4a1,1,0,0,0,1-1V47H56Z"/><rect x="51" y="44" width="2" height="2"/><rect x="31" y="44" width="2" height="2"/></g></svg>