<svg xmlns="http://www.w3.org/2000/svg" viewBox="0 0 64 64"><g id="Innovation-Idea"><path d="M57,61H43V57.02a4,4,0,0,1,2.9-3.85l2.65-.76L52,55l3.45-2.59,2.65.76A4,4,0,0,1,61,57.02V61Z" style="fill:#3d9ae2"/><path d="M57,43v1h-.76a.974.974,0,0,1-.24-.02,1.958,1.958,0,0,1-1.55-1.09L54,42l-1.49.99A5.958,5.958,0,0,1,49.18,44H47V43a5,5,0,0,1,10,0Z" style="fill:#787680"/><path d="M56,44v2a4.025,4.025,0,0,1-1.17,2.83,4.225,4.225,0,0,1-.83.63A4,4,0,0,1,48,46V44h1.18a5.958,5.958,0,0,0,3.33-1.01L54,42l.45.89A1.958,1.958,0,0,0,56,43.98Z" style="fill:#ffc477"/><path d="M55.45,52.41,52,55l-3.45-2.59L50,52V49.46a3.974,3.974,0,0,0,4,0V52Z" style="fill:#ffb655"/><path d="M47,24a14.98,14.98,0,0,1-8,13.26V41H25V37.26A15,15,0,1,1,47,24Z" style="fill:#ffd422"/><path d="M39,41a2.006,2.006,0,0,1,2,2,2.015,2.015,0,0,1-2,2H25a2.006,2.006,0,0,1-2-2,2.015,2.015,0,0,1,2-2Z" style="fill:#898890"/><path d="M38,45a2.006,2.006,0,0,1,2,2,2.015,2.015,0,0,1-2,2H26a2.006,2.006,0,0,1-2-2,2.015,2.015,0,0,1,2-2Z" style="fill:#787680"/><path d="M26,49H38a4,4,0,0,1-4,4H30A4,4,0,0,1,26,49Z" style="fill:#57565c"/><path d="M17,61H3V57.02a4,4,0,0,1,2.9-3.85l2.65-.76L12,55l3.45-2.59,2.65.76A4,4,0,0,1,21,57.02V61Z" style="fill:#3d9ae2"/><path d="M17,43v1h-.76a.974.974,0,0,1-.24-.02,1.958,1.958,0,0,1-1.55-1.09L14,42l-1.49.99A5.958,5.958,0,0,1,9.18,44H7V43a5,5,0,0,1,10,0Z" style="fill:#787680"/><path d="M16,44v2a4.025,4.025,0,0,1-1.17,2.83,4.225,4.225,0,0,1-.83.63A4,4,0,0,1,8,46V44H9.18a5.958,5.958,0,0,0,3.33-1.01L14,42l.45.89A1.958,1.958,0,0,0,16,43.98Z" style="fill:#ffc477"/><path d="M15.45,52.41,12,55,8.55,52.41,10,52V49.46a3.974,3.974,0,0,0,4,0V52Z" style="fill:#ffb655"/><path d="M14,49.46v1a3.974,3.974,0,0,1-4,0v-1a3.974,3.974,0,0,0,4,0Z" style="fill:#ffa733"/><path d="M54,49.46v1a3.974,3.974,0,0,1-4,0v-1a3.974,3.974,0,0,0,4,0Z" style="fill:#ffa733"/><path d="M42,43a3,3,0,0,0-2-2.816V37.851a16,16,0,1,0-16,0v2.333a2.983,2.983,0,0,0-.6,5.345,2.958,2.958,0,0,0,1.684,4.313A5,5,0,0,0,30,54h4a5,5,0,0,0,4.915-4.158A2.958,2.958,0,0,0,40.6,45.529,2.994,2.994,0,0,0,42,43ZM18,24A14,14,0,1,1,38.532,36.378a1,1,0,0,0-.532.884V40H26V37.262a1,1,0,0,0-.532-.884A13.977,13.977,0,0,1,18,24Zm7,18H39a1,1,0,0,1,0,2H25a1,1,0,0,1,0-2Zm9,10H30a3,3,0,0,1-2.816-2h9.632A3,3,0,0,1,34,52Zm4-4H26a1,1,0,0,1,0-2H38a1,1,0,0,1,0,2Z"/><path d="M33,27H31a1,1,0,0,1-1-1H28a3,3,0,0,0,3,3v1h2V29a3,3,0,0,0,0-6H31a1,1,0,0,1,0-2h2a1,1,0,0,1,1,1h2a3,3,0,0,0-3-3V18H31v1a3,3,0,0,0,0,6h2a1,1,0,0,1,0,2Z"/><rect x="38" y="23" width="2" height="2"/><rect x="24" y="23" width="2" height="2"/><rect x="31" y="2" width="2" height="4"/><rect x="16.858" y="7.858" width="2" height="4" transform="translate(-1.739 15.518) rotate(-45.01)"/><rect x="10" y="23" width="4" height="2"/><rect x="50" y="23" width="4" height="2"/><rect x="44.142" y="8.858" width="4" height="2" transform="translate(6.544 35.515) rotate(-45)"/><path d="M18.375,52.208,15,51.244v-1.27A4.977,4.977,0,0,0,17,46V45a1,1,0,0,0,1-1V43A6,6,0,0,0,6,43v1a1,1,0,0,0,1,1v1a4.977,4.977,0,0,0,2,3.974v1.27l-3.374.964A5.02,5.02,0,0,0,2,57.02V61a1,1,0,0,0,1,1H21a1,1,0,0,0,1-1V57.02A5.021,5.021,0,0,0,18.375,52.208ZM12,39a4,4,0,0,1,4,3.972,1,1,0,0,1-.66-.526l-.445-.892a1,1,0,0,0-1.45-.386l-1.488.992A4.987,4.987,0,0,1,9.184,43H8A4,4,0,0,1,12,39ZM9.184,45a6.976,6.976,0,0,0,3.882-1.176l.548-.365A2.956,2.956,0,0,0,15,44.709V46a3,3,0,0,1-6,0V45ZM12,51a5,5,0,0,0,1-.1V52a.991.991,0,0,0,.345.74L12,53.75l-1.345-1.01A.991.991,0,0,0,11,52V50.9A5,5,0,0,0,12,51Zm8,9H18V57H16v3H8V57H6v3H4V57.02a3.015,3.015,0,0,1,2.176-2.889l2.174-.62L11.4,55.8a1,1,0,0,0,1.2,0l3.049-2.289,2.175.621A3.013,3.013,0,0,1,20,57.02Z"/><path d="M58.375,52.208,55,51.244v-1.27A4.977,4.977,0,0,0,57,46V45a1,1,0,0,0,1-1V43a6,6,0,0,0-12,0v1a1,1,0,0,0,1,1v1a4.977,4.977,0,0,0,2,3.974v1.27l-3.374.964A5.02,5.02,0,0,0,42,57.02V61a1,1,0,0,0,1,1H61a1,1,0,0,0,1-1V57.02A5.021,5.021,0,0,0,58.375,52.208ZM52,39a4,4,0,0,1,4,3.972,1,1,0,0,1-.66-.526l-.445-.892a1,1,0,0,0-1.45-.386l-1.488.992a4.987,4.987,0,0,1-2.773.84H48A4,4,0,0,1,52,39Zm-2.816,6a6.976,6.976,0,0,0,3.882-1.176l.548-.365A2.956,2.956,0,0,0,55,44.709V46a3,3,0,0,1-6,0V45ZM52,51a5,5,0,0,0,1-.1V52a.991.991,0,0,0,.345.74L52,53.75l-1.345-1.01A.991.991,0,0,0,51,52V50.9A5,5,0,0,0,52,51Zm8,9H58V57H56v3H48V57H46v3H44V57.02a3.015,3.015,0,0,1,2.176-2.889l2.174-.62L51.4,55.8a1,1,0,0,0,1.2,0l3.049-2.289,2.175.621A3.013,3.013,0,0,1,60,57.02Z"/><path d="M36.707,55.293l-1.414,1.414L36.586,58H27.414l1.293-1.293-1.414-1.414-3,3a1,1,0,0,0,0,1.414l3,3,1.414-1.414L27.414,60h9.172l-1.293,1.293,1.414,1.414,3-3a1,1,0,0,0,0-1.414Z"/></g></svg>