<svg xmlns="http://www.w3.org/2000/svg" viewBox="0 0 64 64"><g id="Leader"><polygon points="61.16 30 57.35 32.76 58.8 37.24 55 34.47 51.2 37.24 52.65 32.76 48.84 30 53.55 30 55 25.53 56.45 30 61.16 30" style="fill:#ffd422"/><polygon points="59.16 14 55.35 16.76 56.8 21.24 53 18.47 49.2 21.24 50.65 16.76 46.84 14 51.55 14 53 9.53 54.45 14 59.16 14" style="fill:#ffd422"/><polygon points="59.16 48 55.35 50.76 56.8 55.24 53 52.47 49.2 55.24 50.65 50.76 46.84 48 51.55 48 53 43.53 54.45 48 59.16 48" style="fill:#ffd422"/><path d="M32,20l2-2a5.875,5.875,0,0,1,1.93.32L44.69,3.99A2,2,0,0,1,48.42,5a1.967,1.967,0,0,1-.27.99L39,21,38,32H26L25,21,15.85,5.99A1.967,1.967,0,0,1,15.58,5a2,2,0,0,1,3.73-1.01l8.76,14.33A5.875,5.875,0,0,1,30,18Z" style="fill:#3d9ae2"/><path d="M40,59v2H34l-2-1V57h6A2.006,2.006,0,0,1,40,59Z" style="fill:#754c29"/><polygon points="32 57 27 57 26 32 38 32 37 57 32 57" style="fill:#787680"/><path d="M37,8v2H35.83a2.006,2.006,0,0,1-1.42-.59L33,8l-.83.83A4,4,0,0,1,29.34,10H27V8A5,5,0,0,1,37,8Z" style="fill:#787680"/><path d="M36,10v2a3.994,3.994,0,0,1-6,3.46,4.225,4.225,0,0,1-.83-.63A4.025,4.025,0,0,1,28,12V10h1.34a4,4,0,0,0,2.83-1.17L33,8l1.41,1.41a2.006,2.006,0,0,0,1.42.59Z" style="fill:#ffc477"/><path d="M34,15.46V18l-2,2-2-2V15.46a3.974,3.974,0,0,0,4,0Z" style="fill:#ffb655"/><path d="M32,57v3l-2,1H24V59a2.006,2.006,0,0,1,2-2h6Z" style="fill:#8b5e3c"/><polygon points="17.15 14 13.35 16.76 14.8 21.24 11 18.47 7.19 21.24 8.65 16.76 4.84 14 9.54 14 11 9.53 12.45 14 17.15 14" style="fill:#ffd422"/><polygon points="17.15 48 13.35 50.76 14.8 55.24 11 52.47 7.19 55.24 8.65 50.76 4.84 48 9.54 48 11 43.53 12.45 48 17.15 48" style="fill:#ffd422"/><polygon points="15.15 30 11.35 32.76 12.8 37.24 9 34.47 5.19 37.24 6.65 32.76 2.84 30 7.54 30 9 25.53 10.45 30 15.15 30" style="fill:#ffd422"/><path d="M34,15.46v1a3.974,3.974,0,0,1-4,0v-1a3.974,3.974,0,0,0,4,0Z" style="fill:#ffa733"/><path d="M38.04,56,39,32.09l.979-10.768L49.013,6.494A2.978,2.978,0,0,0,49.418,5,3,3,0,0,0,43.835,3.47L35.47,17.155c-.156-.033-.312-.061-.47-.084v-1.1A4.977,4.977,0,0,0,37,12V11a1,1,0,0,0,1-1V8A6,6,0,0,0,26,8v2a1,1,0,0,0,1,1v1a4.977,4.977,0,0,0,2,3.974v1.1c-.158.023-.314.051-.47.084L20.174,3.487a3,3,0,1,0-5.18,3.022l9.031,14.813L25,32.04,25.96,56A3,3,0,0,0,23,59v2a1,1,0,0,0,1,1h6a1,1,0,0,0,.447-.1L32,61.118l1.553.777A1,1,0,0,0,34,62h6a1,1,0,0,0,1-1V59A3,3,0,0,0,38.04,56ZM31,37V56H27.961L27.04,33h9.919l-.92,23H33V37ZM28,8a4,4,0,0,1,8,0V9h-.171a1,1,0,0,1-.708-.293L33.707,7.293a1,1,0,0,0-1.414,0l-.829.829A3.02,3.02,0,0,1,29.343,9H28Zm1.343,3a4.966,4.966,0,0,0,3.535-1.464L33,9.414l.707.707A2.96,2.96,0,0,0,35,10.87V12a3,3,0,0,1-6,0V11ZM32,17a5,5,0,0,0,1-.1v.687l-1,1-1-1V16.9A5,5,0,0,0,32,17ZM16.713,5.487A.975.975,0,0,1,16.578,5a1,1,0,0,1,1.877-.488l8.762,14.331a1,1,0,0,0,1.178.425,4.805,4.805,0,0,1,1.222-.235L31,20.414V28h2V20.414l1.383-1.383a4.805,4.805,0,0,1,1.222.235,1,1,0,0,0,1.178-.425L45.554,4.493A1,1,0,0,1,47.418,5a.949.949,0,0,1-.124.47L38.146,20.479A1,1,0,0,0,38,20.91L37.088,31H26.913L26,20.91a1,1,0,0,0-.142-.431ZM29.764,60H25V59a1,1,0,0,1,1-1h5v1.382ZM39,60H34.236L33,59.382V58h5a1,1,0,0,1,1,1Z"/><path d="M62.106,29.691A1,1,0,0,0,61.155,29H57.18l-1.229-3.781a1,1,0,0,0-1.9,0L52.82,29H48.845a1,1,0,0,0-.588,1.809l3.216,2.337-1.228,3.781a1,1,0,0,0,1.539,1.118L55,35.708l3.216,2.337a1,1,0,0,0,1.539-1.118l-1.228-3.781,3.216-2.337A1,1,0,0,0,62.106,29.691ZM56.4,33.073l.5,1.545-1.314-.955a1,1,0,0,0-1.176,0l-1.314.955.5-1.545a1,1,0,0,0-.363-1.118L51.922,31h1.625a1,1,0,0,0,.951-.691l.5-1.545.5,1.545a1,1,0,0,0,.951.691h1.625l-1.315.955A1,1,0,0,0,56.4,33.073Z"/><path d="M45.894,13.691a1,1,0,0,0,.363,1.118l3.216,2.337-1.228,3.781a1,1,0,0,0,1.539,1.118L53,19.708l3.216,2.337a1,1,0,0,0,1.539-1.118l-1.228-3.781,3.216-2.337A1,1,0,0,0,59.155,13H55.18L53.951,9.219a1,1,0,0,0-1.9,0L50.82,13H46.845A1,1,0,0,0,45.894,13.691ZM51.547,15a1,1,0,0,0,.951-.691l.5-1.545.5,1.545a1,1,0,0,0,.951.691h1.625l-1.315.955a1,1,0,0,0-.363,1.118l.5,1.545-1.314-.955a1,1,0,0,0-1.176,0l-1.314.955.5-1.545a1,1,0,0,0-.363-1.118L49.922,15Z"/><path d="M59.155,47H55.18l-1.229-3.781a1,1,0,0,0-1.9,0L50.82,47H46.845a1,1,0,0,0-.588,1.809l3.216,2.337-1.228,3.781a1,1,0,0,0,1.539,1.118L53,53.708l3.216,2.337a1,1,0,0,0,1.539-1.118l-1.228-3.781,3.216-2.337A1,1,0,0,0,59.155,47ZM54.4,51.073l.5,1.545-1.314-.955a1,1,0,0,0-1.176,0l-1.314.955.5-1.545a1,1,0,0,0-.363-1.118L49.922,49h1.625a1,1,0,0,0,.951-.691l.5-1.545.5,1.545a1,1,0,0,0,.951.691h1.625l-1.315.955A1,1,0,0,0,54.4,51.073Z"/><path d="M4.241,36.927A1,1,0,0,0,5.78,38.045L9,35.708l3.216,2.337a1,1,0,0,0,1.539-1.118l-1.229-3.781,3.217-2.337A1,1,0,0,0,15.152,29H11.176L9.948,25.219a1,1,0,0,0-1.9,0L6.817,29H2.841a1,1,0,0,0-.588,1.809L5.47,33.146ZM7.543,31a1,1,0,0,0,.952-.691L9,28.764l.5,1.545A1,1,0,0,0,10.45,31h1.624l-1.314.955a1,1,0,0,0-.364,1.118l.5,1.545-1.314-.955a1,1,0,0,0-1.175,0L7.1,34.618l.5-1.545a1,1,0,0,0-.364-1.118L5.919,31Z"/><path d="M17.152,13H13.176L11.948,9.219a1,1,0,0,0-1.9,0L8.817,13H4.841a1,1,0,0,0-.588,1.809L7.47,17.146,6.241,20.927A1,1,0,0,0,7.78,22.045L11,19.708l3.216,2.337a1,1,0,0,0,1.539-1.118l-1.229-3.781,3.217-2.337A1,1,0,0,0,17.152,13ZM12.4,17.073l.5,1.545-1.314-.955a1,1,0,0,0-1.175,0L9.1,18.618l.5-1.545a1,1,0,0,0-.364-1.118L7.919,15H9.543a1,1,0,0,0,.952-.691l.5-1.545.5,1.545A1,1,0,0,0,12.45,15h1.624l-1.314.955A1,1,0,0,0,12.4,17.073Z"/><path d="M17.152,47H13.176l-1.228-3.781a1,1,0,0,0-1.9,0L8.817,47H4.841a1,1,0,0,0-.588,1.809L7.47,51.146,6.241,54.927A1,1,0,0,0,7.78,56.045L11,53.708l3.216,2.337a1,1,0,0,0,1.539-1.118l-1.229-3.781,3.217-2.337A1,1,0,0,0,17.152,47ZM12.4,51.073l.5,1.545-1.314-.955a1,1,0,0,0-1.175,0L9.1,52.618l.5-1.545a1,1,0,0,0-.364-1.118L7.919,49H9.543a1,1,0,0,0,.952-.691l.5-1.545.5,1.545A1,1,0,0,0,12.45,49h1.624l-1.314.955A1,1,0,0,0,12.4,51.073Z"/></g></svg>