<svg xmlns="http://www.w3.org/2000/svg" viewBox="0 0 64 64"><g id="Leadership"><path d="M23,51c-.034,0-.066.009-.1.01a4.993,4.993,0,0,0-9.812.117A4.937,4.937,0,0,0,12,51a5,5,0,0,0,0,10H23a5,5,0,0,0,0-10Z" style="fill:#e6e7e8"/><path d="M41,51c.034,0,.066.009.1.01a4.993,4.993,0,0,1,9.812.117A4.937,4.937,0,0,1,52,51a5,5,0,0,1,0,10H41a5,5,0,0,1,0-10Z" style="fill:#e6e7e8"/><path d="M60.12,15.88A3,3,0,0,1,58,21H45.42a14.5,14.5,0,0,0-.9-2.27L47,15H58A2.993,2.993,0,0,1,60.12,15.88Z" style="fill:#ff5023"/><path d="M54,21a3,3,0,0,1,0,6H45.86A14.6,14.6,0,0,0,46,25a13.918,13.918,0,0,0-.58-4H54Z" style="fill:#ff6243"/><path d="M49,27a3,3,0,0,1,0,6H43.48a13.865,13.865,0,0,0,2.38-6Z" style="fill:#ff5023"/><path d="M48.42,5a1.967,1.967,0,0,1-.27.99L39,21,38,32H26L25,21,15.85,5.99A1.967,1.967,0,0,1,15.58,5a2,2,0,0,1,3.73-1.01l8.76,14.33A5.875,5.875,0,0,1,30,18l2,2,2-2a5.875,5.875,0,0,1,1.93.32L44.69,3.99A2,2,0,0,1,48.42,5Z" style="fill:#3d9ae2"/><polygon points="32 53 27 53 26 32 38 32 37 53 32 53" style="fill:#787680"/><path d="M37,8v2H35.83a2.006,2.006,0,0,1-1.42-.59L33,8l-.83.83A4,4,0,0,1,29.34,10H27V8A5,5,0,0,1,37,8Z" style="fill:#787680"/><path d="M38,53H32v3l2,1h6V55A2.006,2.006,0,0,0,38,53Z" style="fill:#754c29"/><path d="M36,10v2a3.994,3.994,0,0,1-6,3.46,4.225,4.225,0,0,1-.83-.63A4.025,4.025,0,0,1,28,12V10h1.34a4,4,0,0,0,2.83-1.17L33,8l1.41,1.41a2.006,2.006,0,0,0,1.42.59Z" style="fill:#ffc477"/><path d="M34,15.46V18l-2,2-2-2V15.46a3.974,3.974,0,0,0,4,0Z" style="fill:#ffb655"/><path d="M27,53H26a2.006,2.006,0,0,0-2,2v2h6l2-1V53Z" style="fill:#8b5e3c"/><path d="M20.52,33H15a3,3,0,0,1,0-6h3.14A13.865,13.865,0,0,0,20.52,33Z" style="fill:#ff5023"/><path d="M17,15l2.48,3.73a14.5,14.5,0,0,0-.9,2.27H6a3,3,0,0,1,0-6Z" style="fill:#ff5023"/><path d="M17,21h1.58A13.918,13.918,0,0,0,18,25a14.6,14.6,0,0,0,.14,2H10a3,3,0,0,1,0-6Z" style="fill:#ff6243"/><path d="M34,15.46v1a3.974,3.974,0,0,1-4,0v-1a3.974,3.974,0,0,0,4,0Z" style="fill:#ffa733"/><path d="M58,56a6.006,6.006,0,0,0-6-6c-.113,0-.227,0-.339.01a6,6,0,0,0-11.545.81l1.961.392a4,4,0,0,1,7.858.081,1,1,0,0,0,1.209.8A3.826,3.826,0,0,1,52,52a4,4,0,0,1,0,8H12a4,4,0,0,1,0-8,3.826,3.826,0,0,1,.856.095,1,1,0,0,0,1.209-.8,4,4,0,0,1,7.854-.1l1.959-.4a6,6,0,0,0-11.539-.782C12.227,50,12.113,50,12,50A5.99,5.99,0,0,0,7.54,60H2v2H62V60H56.46A5.969,5.969,0,0,0,58,56Z"/><path d="M6,22h.556A3.987,3.987,0,0,0,10,28h1.556A3.987,3.987,0,0,0,15,34h5.52a1,1,0,0,0,.818-1.575,12.775,12.775,0,0,1-2.208-5.562A13.722,13.722,0,0,1,19,25a12.932,12.932,0,0,1,.537-3.709,13.546,13.546,0,0,1,.838-2.114,1,1,0,0,0-.062-1l-2.48-3.73A1,1,0,0,0,17,14H6a4,4,0,0,0,0,8Zm2.587,3.413A2,2,0,0,1,10,22h7.307A15.006,15.006,0,0,0,17,25c0,.33.011.664.033,1H10A1.986,1.986,0,0,1,8.587,25.413ZM15,32a2,2,0,0,1,0-4h2.3a15.015,15.015,0,0,0,1.437,4ZM4.587,16.587A1.986,1.986,0,0,1,6,16H16.464l1.87,2.812c-.173.383-.326.782-.47,1.188H6a2,2,0,0,1-1.413-3.413Z"/><path d="M46.167,14.446l-2.48,3.73a1,1,0,0,0-.062,1,13.555,13.555,0,0,1,.837,2.11A12.945,12.945,0,0,1,45,25a13.7,13.7,0,0,1-.129,1.856,12.782,12.782,0,0,1-2.209,5.569A1,1,0,0,0,43.48,34H49a3.973,3.973,0,0,0,3.444-6H54a3.973,3.973,0,0,0,3.444-6H58a4,4,0,0,0,0-8H47A1,1,0,0,0,46.167,14.446ZM51,30a2,2,0,0,1-2,2H45.263A15.012,15.012,0,0,0,46.7,28H49A2,2,0,0,1,51,30Zm5-6a2,2,0,0,1-2,2H46.967c.022-.335.033-.669.033-1a15.021,15.021,0,0,0-.307-3H54A2,2,0,0,1,56,24Zm2-8a2,2,0,0,1,0,4H46.137c-.144-.405-.3-.8-.471-1.188L47.536,16Z"/><path d="M24.025,21.322,25,32.047l.95,19.958A3,3,0,0,0,23,55v2a1,1,0,0,0,1,1h6a1,1,0,0,0,.447-.1L32,57.118l1.553.777A1,1,0,0,0,34,58h6a1,1,0,0,0,1-1V55a3,3,0,0,0-2.951-2.995L39,32.09l.979-10.768L49.014,6.493A3,3,0,0,0,43.835,3.47L35.47,17.155c-.156-.033-.313-.061-.47-.084v-1.1A4.977,4.977,0,0,0,37,12V11a1,1,0,0,0,1-1V8A6,6,0,0,0,26,8v2a1,1,0,0,0,1,1v1a4.977,4.977,0,0,0,2,3.974v1.1c-.158.023-.314.051-.47.084L20.174,3.487A3,3,0,1,0,15,6.509ZM27.048,33h9.9l-.9,19H33V37H31V52H27.953Zm2.716,23H25V55a1,1,0,0,1,1-1h5v1.382ZM39,55v1H34.236L33,55.382V54h5A1,1,0,0,1,39,55ZM28,8a4,4,0,0,1,8,0V9h-.172a1.009,1.009,0,0,1-.707-.293L33.707,7.293a1,1,0,0,0-1.414,0l-.828.829A2.983,2.983,0,0,1,29.343,9H28Zm1.343,3a4.968,4.968,0,0,0,3.536-1.464L33,9.415l.707.706A2.96,2.96,0,0,0,35,10.87V12a3,3,0,0,1-6,0V11ZM32,17a5,5,0,0,0,1-.1v.687l-1,1-1-1V16.9A5,5,0,0,0,32,17ZM17.075,4.126a1.009,1.009,0,0,1,1.38.384l8.762,14.331a1,1,0,0,0,1.179.424,4.832,4.832,0,0,1,1.221-.234l1.676,1.676a1,1,0,0,0,1.414,0l1.676-1.676a4.832,4.832,0,0,1,1.221.234,1,1,0,0,0,1.179-.424L45.554,4.493A1,1,0,0,1,47.419,5a.966.966,0,0,1-.124.47L38.146,20.479A1,1,0,0,0,38,20.91L37.088,31H26.913L26,20.91a1,1,0,0,0-.142-.431L16.713,5.485A.95.95,0,0,1,16.578,5,1.013,1.013,0,0,1,17.075,4.126Z"/></g></svg>