<svg xmlns="http://www.w3.org/2000/svg" viewBox="0 0 64 64"><g id="Network"><path d="M49.53,39.66A6.01,6.01,0,0,0,44,36l-2,2-2-2a6.01,6.01,0,0,0-5.53,3.66A6.071,6.071,0,0,0,34,42v1H50V42A6.071,6.071,0,0,0,49.53,39.66Z" style="fill:#3d9ae2"/><path d="M29.53,39.66A6.01,6.01,0,0,0,24,36l-2,2-2-2a6.01,6.01,0,0,0-5.53,3.66A6.071,6.071,0,0,0,14,42v1H30V42A6.071,6.071,0,0,0,29.53,39.66Z" style="fill:#3d9ae2"/><path d="M39.53,21.66A6.01,6.01,0,0,0,34,18l-2,2-2-2a6.01,6.01,0,0,0-5.53,3.66A6.071,6.071,0,0,0,24,24v1H40V24A6.071,6.071,0,0,0,39.53,21.66Z" style="fill:#3d9ae2"/><path d="M60,60v1H44V60a6,6,0,0,1,6-6l2,2,2-2A6,6,0,0,1,60,60Z" style="fill:#3d9ae2"/><path d="M56,46v2a3.994,3.994,0,0,1-6,3.46,4.225,4.225,0,0,1-.83-.63A4.025,4.025,0,0,1,48,48V46h1.34a4,4,0,0,0,2.83-1.17L53,44l1.41,1.41a2.006,2.006,0,0,0,1.42.59Z" style="fill:#ffc477"/><path d="M54,51.46V54l-2,2-2-2V51.46a3.974,3.974,0,0,0,4,0Z" style="fill:#ffb655"/><path d="M52,39a5.025,5.025,0,0,0-4.9,4,4.712,4.712,0,0,0-.1,1v2h2.34a4,4,0,0,0,2.83-1.17L53,44l1.41,1.41a2.006,2.006,0,0,0,1.42.59H57V44A5,5,0,0,0,52,39Z" style="fill:#787680"/><path d="M46,28v2a3.994,3.994,0,0,1-6,3.46,4.225,4.225,0,0,1-.83-.63A4.025,4.025,0,0,1,38,30V28h1.34a4,4,0,0,0,2.83-1.17L43,26l1.41,1.41a2.006,2.006,0,0,0,1.42.59Z" style="fill:#ffc477"/><path d="M44,33.46V36l-2,2-2-2V33.46a3.974,3.974,0,0,0,4,0Z" style="fill:#ffb655"/><path d="M40,60v1H24V60a6,6,0,0,1,6-6l2,2,2-2A6,6,0,0,1,40,60Z" style="fill:#3d9ae2"/><path d="M42,21a5.025,5.025,0,0,0-4.9,4,4.712,4.712,0,0,0-.1,1v2h2.34a4,4,0,0,0,2.83-1.17L43,26l1.41,1.41a2.006,2.006,0,0,0,1.42.59H47V26A5,5,0,0,0,42,21Z" style="fill:#787680"/><path d="M37,8v2H35.83a2.006,2.006,0,0,1-1.42-.59L33,8l-.83.83A4,4,0,0,1,29.34,10H27V8A5,5,0,0,1,37,8Z" style="fill:#787680"/><path d="M36,46v2a3.994,3.994,0,0,1-6,3.46,4.225,4.225,0,0,1-.83-.63A4.025,4.025,0,0,1,28,48V46h1.34a4,4,0,0,0,2.83-1.17L33,44l1.41,1.41a2.006,2.006,0,0,0,1.42.59Z" style="fill:#ffc477"/><path d="M36,10v2a3.994,3.994,0,0,1-6,3.46,4.225,4.225,0,0,1-.83-.63A4.025,4.025,0,0,1,28,12V10h1.34a4,4,0,0,0,2.83-1.17L33,8l1.41,1.41a2.006,2.006,0,0,0,1.42.59Z" style="fill:#ffc477"/><path d="M34,51.46V54l-2,2-2-2V51.46a3.974,3.974,0,0,0,4,0Z" style="fill:#ffb655"/><path d="M34,15.46V18l-2,2-2-2V15.46a3.974,3.974,0,0,0,4,0Z" style="fill:#ffb655"/><path d="M36.9,43a5,5,0,0,0-9.8,0,4.712,4.712,0,0,0-.1,1v2h2.34a4,4,0,0,0,2.83-1.17L33,44l1.41,1.41a2.006,2.006,0,0,0,1.42.59H37V44A4.712,4.712,0,0,0,36.9,43Z" style="fill:#787680"/><path d="M26.9,25A5,5,0,0,0,17,26v2h2.34a4,4,0,0,0,2.83-1.17L23,26l1.41,1.41a2.006,2.006,0,0,0,1.42.59H27V26A4.712,4.712,0,0,0,26.9,25Z" style="fill:#787680"/><path d="M26,28v2a3.994,3.994,0,0,1-6,3.46,4.225,4.225,0,0,1-.83-.63A4.025,4.025,0,0,1,18,30V28h1.34a4,4,0,0,0,2.83-1.17L23,26l1.41,1.41a2.006,2.006,0,0,0,1.42.59Z" style="fill:#ffc477"/><path d="M24,33.46V36l-2,2-2-2V33.46a3.974,3.974,0,0,0,4,0Z" style="fill:#ffb655"/><path d="M20,60v1H4V60a6,6,0,0,1,6-6l2,2,2-2A6,6,0,0,1,20,60Z" style="fill:#3d9ae2"/><path d="M16.9,43A5,5,0,0,0,7,44v2H9.34a4,4,0,0,0,2.83-1.17L13,44l1.41,1.41a2.006,2.006,0,0,0,1.42.59H17V44A4.712,4.712,0,0,0,16.9,43Z" style="fill:#787680"/><path d="M16,46v2a3.994,3.994,0,0,1-6,3.46,4.225,4.225,0,0,1-.83-.63A4.025,4.025,0,0,1,8,48V46H9.34a4,4,0,0,0,2.83-1.17L13,44l1.41,1.41a2.006,2.006,0,0,0,1.42.59Z" style="fill:#ffc477"/><path d="M14,51.46V54l-2,2-2-2V51.46a3.974,3.974,0,0,0,4,0Z" style="fill:#ffb655"/><path d="M34,15.46v1a3.974,3.974,0,0,1-4,0v-1a3.974,3.974,0,0,0,4,0Z" style="fill:#ffa733"/><path d="M24,33.46v1a3.974,3.974,0,0,1-4,0v-1a3.974,3.974,0,0,0,4,0Z" style="fill:#ffa733"/><path d="M44,33.46v1a3.974,3.974,0,0,1-4,0v-1a3.974,3.974,0,0,0,4,0Z" style="fill:#ffa733"/><path d="M54,51.46v1a3.974,3.974,0,0,1-4,0v-1a3.974,3.974,0,0,0,4,0Z" style="fill:#ffa733"/><path d="M34,51.46v1a3.974,3.974,0,0,1-4,0v-1a3.974,3.974,0,0,0,4,0Z" style="fill:#ffa733"/><path d="M14,51.46v1a3.974,3.974,0,0,1-4,0v-1a3.974,3.974,0,0,0,4,0Z" style="fill:#ffa733"/><path d="M55,53.071v-1.1A4.977,4.977,0,0,0,57,48V47a1,1,0,0,0,1-1V44a5.982,5.982,0,0,0-8.023-5.641A6.979,6.979,0,0,0,45,35.071v-1.1A4.977,4.977,0,0,0,47,30V29a1,1,0,0,0,1-1V26a5.983,5.983,0,0,0-8.022-5.642A7.012,7.012,0,0,0,35,17.071v-1.1A4.977,4.977,0,0,0,37,12V11a1,1,0,0,0,1-1V8A6,6,0,0,0,26,8v2a1,1,0,0,0,1,1v1a4.977,4.977,0,0,0,2,3.974v1.1a6.979,6.979,0,0,0-4.977,3.288A5.982,5.982,0,0,0,16,26v2a1,1,0,0,0,1,1v1a4.977,4.977,0,0,0,2,3.974v1.1a6.979,6.979,0,0,0-4.977,3.288A5.982,5.982,0,0,0,6,44v2a1,1,0,0,0,1,1v1a4.977,4.977,0,0,0,2,3.974v1.1A7.011,7.011,0,0,0,3,60v1a1,1,0,0,0,1,1H20a1,1,0,0,0,1-1V60a7.011,7.011,0,0,0-6-6.929v-1.1A4.977,4.977,0,0,0,17,48V47a1,1,0,0,0,1-1V44h8v2a1,1,0,0,0,1,1v1a4.977,4.977,0,0,0,2,3.974v1.1A7.011,7.011,0,0,0,23,60v1a1,1,0,0,0,1,1H40a1,1,0,0,0,1-1V60a7.011,7.011,0,0,0-6-6.929v-1.1A4.977,4.977,0,0,0,37,48V47a1,1,0,0,0,1-1V44h8v2a1,1,0,0,0,1,1v1a4.977,4.977,0,0,0,2,3.974v1.1A7.011,7.011,0,0,0,43,60v1a1,1,0,0,0,1,1H60a1,1,0,0,0,1-1V60A7.011,7.011,0,0,0,55,53.071ZM56,44v1h-.171a1,1,0,0,1-.708-.293l-1.414-1.414a1,1,0,0,0-1.414,0l-.829.829A3.02,3.02,0,0,1,49.343,45H48V44a4,4,0,0,1,8,0ZM43,35.586l-1,1-1-1V34.9a5,5,0,0,0,2,0ZM36,45h-.171a1,1,0,0,1-.708-.293l-1.414-1.414a1,1,0,0,0-1.414,0l-.829.829A3.02,3.02,0,0,1,29.343,45H28V44a4,4,0,0,1,8,0Zm-1.977-6.641a5.884,5.884,0,0,0-4.045,0A7.012,7.012,0,0,0,25,35.071v-1.1A4.977,4.977,0,0,0,27,30V29a1,1,0,0,0,1-1V26h8v2a1,1,0,0,0,1,1v1a4.977,4.977,0,0,0,2,3.974v1.1A6.979,6.979,0,0,0,34.023,38.359ZM42,33a3,3,0,0,1-3-3V29h.343a4.966,4.966,0,0,0,3.535-1.464L43,27.414l.707.707A2.96,2.96,0,0,0,45,28.87V30A3,3,0,0,1,42,33Zm4-7v1h-.171a1,1,0,0,1-.708-.293l-1.414-1.414a1,1,0,0,0-1.414,0l-.829.829A3.02,3.02,0,0,1,39.343,27H38V26a4,4,0,0,1,8,0ZM28,8a4,4,0,0,1,8,0V9h-.171a1,1,0,0,1-.708-.293L33.707,7.293a1,1,0,0,0-1.414,0l-.829.829A3.02,3.02,0,0,1,29.343,9H28Zm1.343,3a4.966,4.966,0,0,0,3.535-1.464L33,9.414l.707.707A2.96,2.96,0,0,0,35,10.87V12a3,3,0,0,1-6,0V11ZM32,17a5,5,0,0,0,1-.1v.687l-1,1-1-1V16.9A5,5,0,0,0,32,17Zm-2.386,2.029,1.679,1.678a1,1,0,0,0,1.414,0l1.678-1.678a5,5,0,0,1,3.848,2.307A6.024,6.024,0,0,0,36.35,24h-8.7a6.021,6.021,0,0,0-1.882-2.663A4.975,4.975,0,0,1,29.614,19.029ZM18,26a4,4,0,0,1,8,0v1h-.171a1,1,0,0,1-.708-.293l-1.414-1.414a1,1,0,0,0-1.414,0l-.829.829A3.02,3.02,0,0,1,19.343,27H18Zm1.343,3a4.966,4.966,0,0,0,3.535-1.464L23,27.414l.707.707A2.96,2.96,0,0,0,25,28.87V30a3,3,0,0,1-6,0V29ZM22,35a5,5,0,0,0,1-.1v.687l-1,1-1-1V34.9A5,5,0,0,0,22,35ZM8,44a4,4,0,0,1,8,0v1h-.171a1,1,0,0,1-.708-.293l-1.414-1.414a1,1,0,0,0-1.414,0l-.829.829A3.02,3.02,0,0,1,9.343,45H8ZM19,60H5a4.991,4.991,0,0,1,4.624-4.962l1.669,1.669a1,1,0,0,0,1.414,0l1.669-1.669A4.991,4.991,0,0,1,19,60Zm-6-6.414-1,1-1-1V52.9a5,5,0,0,0,2,0ZM12,51a3,3,0,0,1-3-3V47h.343a4.966,4.966,0,0,0,3.535-1.464L13,45.414l.707.707A2.96,2.96,0,0,0,15,46.87V48A3,3,0,0,1,12,51Zm5.65-9a6.021,6.021,0,0,0-1.882-2.663,4.975,4.975,0,0,1,3.846-2.308l1.679,1.678a1,1,0,0,0,1.414,0l1.678-1.678a5,5,0,0,1,3.848,2.307A6.024,6.024,0,0,0,26.35,42ZM39,60H25a4.991,4.991,0,0,1,4.624-4.962l1.669,1.669a1,1,0,0,0,1.414,0l1.669-1.669A4.991,4.991,0,0,1,39,60Zm-6-6.414-1,1-1-1V52.9a5,5,0,0,0,2,0ZM32,51a3,3,0,0,1-3-3V47h.343a4.966,4.966,0,0,0,3.535-1.464L33,45.414l.707.707A2.96,2.96,0,0,0,35,46.87V48A3,3,0,0,1,32,51Zm5.65-9a6.021,6.021,0,0,0-1.882-2.663,4.975,4.975,0,0,1,3.846-2.308l1.679,1.678a1,1,0,0,0,1.414,0l1.679-1.678a4.975,4.975,0,0,1,3.846,2.308A6.021,6.021,0,0,0,46.35,42Zm11.693,5a4.966,4.966,0,0,0,3.535-1.464L53,45.414l.707.707A2.96,2.96,0,0,0,55,46.87V48a3,3,0,0,1-6,0V47ZM52,53a5,5,0,0,0,1-.1v.687l-1,1-1-1V52.9A5,5,0,0,0,52,53Zm-7,7a4.991,4.991,0,0,1,4.624-4.962l1.669,1.669a1,1,0,0,0,1.414,0l1.669-1.669A4.991,4.991,0,0,1,59,60Z"/></g></svg>