<svg xmlns="http://www.w3.org/2000/svg" viewBox="0 0 64 64"><g id="Partnership-2" data-name="Partnership"><path d="M44.68,21.72a11.991,11.991,0,0,1-1.5,3.61l.48.67,2.07,2.9L42.9,31.73,40,29.66l-.67-.48a11.991,11.991,0,0,1-3.61,1.5L35,35H31l-.33-2-.39-2.32a11.991,11.991,0,0,1-3.61-1.5l-2.18,1.55-1.39,1-.36-.36L20.27,28.9l1.59-2.22.96-1.35a11.991,11.991,0,0,1-1.5-3.61L17,21V17l4.32-.72a11.991,11.991,0,0,1,1.5-3.61L20.27,9.1,23.1,6.27l3.57,2.55a11.991,11.991,0,0,1,3.61-1.5L31,3h4l.72,4.32a11.991,11.991,0,0,1,3.61,1.5L42.9,6.27,45.73,9.1l-2.55,3.57a11.991,11.991,0,0,1,1.5,3.61L49,17v4Z" style="fill:#ff9811"/><rect x="41.023" y="32.366" width="3.999" height="13.997" transform="translate(-15.236 41.922) rotate(-44.971)" style="fill:#5aaae7"/><path d="M46.91,48.91a2,2,0,1,1-2.83,2.83l-1.41-1.42a1.98,1.98,0,0,1,0-2.82,1.947,1.947,0,0,1,2.42-.3,1.439,1.439,0,0,1,.41.3Z" style="fill:#ffc477"/><path d="M27.46,53.51a2,2,0,0,1-2.82-2.83,2.022,2.022,0,0,1-1.42.58,1.983,1.983,0,0,1-1.41-.58,2,2,0,0,1,0-2.83l6.98-6.99a3.985,3.985,0,0,0,3.27-1.14l4.24,4.24a2,2,0,1,0,2.83-2.83L34.3,36.3l2.36-.47,9.9,9.9L45.09,47.2a1.947,1.947,0,0,0-2.42.3,1.98,1.98,0,0,0,0,2.82,2,2,0,0,0-3.41,1.42,1.983,1.983,0,0,0,.58,1.41,2,2,0,1,0-2.83,2.83,2,2,0,0,0-3.14,2.43l-.75.75a2,2,0,0,1-2.83-2.83,1.993,1.993,0,0,1-1.41.59,2.033,2.033,0,0,1-1.42-.59A1.992,1.992,0,0,1,27.46,53.51Z" style="fill:#ffc477"/><polygon points="43.73 25.93 43.66 26 40 29.66 38.07 31.59 39.49 33 49.38 42.9 50.8 44.31 56.46 38.66 43.73 25.93" style="fill:#1e81ce"/><path d="M44.08,51.74a2,2,0,0,1-2.83,2.83l-1.41-1.42a1.983,1.983,0,0,1-.58-1.41,2,2,0,0,1,3.41-1.42Z" style="fill:#ffc477"/><path d="M41.25,54.57a1.993,1.993,0,0,1,.59,1.41,2.033,2.033,0,0,1-.59,1.42,2,2,0,0,1-2.83,0l-1.41-1.42a2,2,0,1,1,2.83-2.83Z" style="fill:#ffc477"/><path d="M38.42,57.4a1.98,1.98,0,0,1,0,2.82,1.992,1.992,0,0,1-2.82,0l-1.42-1.41a1.954,1.954,0,0,1-.31-.4,2.012,2.012,0,0,1-.27-1.01,2,2,0,0,1,3.41-1.42Z" style="fill:#ffc477"/><path d="M33.05,11H33a8,8,0,0,0-.05,16H33a8,8,0,0,0,.05-16Z" style="fill:#ffd422"/><path d="M39.13,41.13,34.3,36.3,33,35l-2-2H26.76l-9.9,9.9,4.95,4.95,6.98-6.99a3.985,3.985,0,0,0,3.27-1.14l4.24,4.24a2,2,0,1,0,2.83-2.83Z" style="fill:#ffc477"/><polygon points="24.49 30.73 23.93 30.17 22.74 31.37 14.03 40.07 16.86 42.9 26.76 33 24.49 30.73" style="fill:#00ccb3"/><polygon points="21.86 26.68 18.98 23.81 7.67 35.12 13.32 40.78 14.03 40.07 22.74 31.37 23.93 30.17 24.64 29.46 21.86 26.68" style="fill:#00b39d"/><path d="M52,19a19.082,19.082,0,0,1-.6,4.751l1.936.5A21.031,21.031,0,0,0,46.65,3.041l-1.3,1.52A18.987,18.987,0,0,1,52,19Z"/><path d="M55.006,25.708l1.913.584A25.039,25.039,0,0,0,51.634,2.333l-1.49,1.334a23.038,23.038,0,0,1,4.862,22.041Z"/><path d="M12.662,24.249l1.936-.5A19.037,19.037,0,0,1,20.65,4.561l-1.3-1.519a21.029,21.029,0,0,0-6.688,21.207Z"/><path d="M10.994,25.708A23.038,23.038,0,0,1,15.856,3.667l-1.49-1.334A25.039,25.039,0,0,0,9.081,26.292Z"/><path d="M57.163,37.95,44.435,25.222c-.008-.009-.021-.011-.03-.019a12.979,12.979,0,0,0,1.079-2.6l3.681-.614A1,1,0,0,0,50,21V17a1,1,0,0,0-.835-.986L45.484,15.4a12.911,12.911,0,0,0-1.114-2.675l2.174-3.044a1,1,0,0,0-.107-1.288l-2.83-2.83a1,1,0,0,0-1.288-.107L39.275,7.63A12.911,12.911,0,0,0,36.6,6.516l-.614-3.681A1,1,0,0,0,35,2H31a1,1,0,0,0-.986.835L29.4,6.516A12.911,12.911,0,0,0,26.725,7.63L23.681,5.456a1,1,0,0,0-1.288.107l-2.83,2.83a1,1,0,0,0-.107,1.288l2.174,3.044A12.911,12.911,0,0,0,20.516,15.4l-3.681.614A1,1,0,0,0,16,17v4a1,1,0,0,0,.835.986l3.681.614a12.959,12.959,0,0,0,.9,2.228L19.686,23.1a1,1,0,0,0-1.414,0L6.958,34.414a1,1,0,0,0,0,1.414l5.657,5.657a1,1,0,0,0,1.414,0h0l6.5,6.494a2.972,2.972,0,0,0,2.541,4.268,2.959,2.959,0,0,0,2.83,2.83A2.952,2.952,0,0,0,28.724,57.9a2.994,2.994,0,0,0,5.1,1.964l1.063,1.063a2.987,2.987,0,0,0,5.1-1.965,2.957,2.957,0,0,0,2.83-2.83,2.952,2.952,0,0,0,2.827-2.827A2.991,2.991,0,0,0,47.617,48.2l-1.058-1.058,2.826-2.832.707.708a1,1,0,0,0,1.414,0l5.657-5.657a1,1,0,0,0,0-1.414ZM23.67,24.805a11.029,11.029,0,0,1-1.376-3.31,1,1,0,0,0-.81-.761L18,20.153V17.847l3.484-.581a1,1,0,0,0,.81-.761A11.029,11.029,0,0,1,23.67,13.2a1,1,0,0,0-.036-1.106L21.576,9.208l1.632-1.632,2.881,2.058A1,1,0,0,0,27.2,9.67a11.029,11.029,0,0,1,3.31-1.376,1,1,0,0,0,.761-.81L31.847,4h2.306l.581,3.484a1,1,0,0,0,.761.81,11.029,11.029,0,0,1,3.31,1.376,1,1,0,0,0,1.106-.036l2.881-2.058,1.632,1.632-2.058,2.881A1,1,0,0,0,42.33,13.2a11.029,11.029,0,0,1,1.376,3.31,1,1,0,0,0,.81.761L48,17.847v2.306l-3.484.581a1,1,0,0,0-.81.761,11.029,11.029,0,0,1-1.376,3.31.994.994,0,0,0,.025,1.083l-2.467,2.467a.994.994,0,0,0-1.083-.025,11.029,11.029,0,0,1-3.31,1.376,1,1,0,0,0-.761.81L34.153,34h-.739l-1.707-1.707a.97.97,0,0,0-.16-.107l-.281-1.672a1,1,0,0,0-.761-.808A11.029,11.029,0,0,1,27.2,28.33a1,1,0,0,0-1.105.035l-.684.487a.977.977,0,0,0-.063-.095l-2.182-2.181.474-.666A1,1,0,0,0,23.67,24.805Zm12.492,10.1-.138.028.576-3.453c.178-.051.351-.126.527-.185a.989.989,0,0,0,.237.994l.707.707ZM27.171,32l-1.139-1.139.691-.491A13.049,13.049,0,0,0,29.4,31.485l.086.515ZM9.08,35.121l9.9-9.9,4.243,4.242-9.9,9.9Zm14.849-3.535L25.343,33l-8.485,8.485-1.415-1.414ZM27.171,34h3.415l7.839,7.839a1,1,0,1,1-1.415,1.414L32.768,39.01a1.029,1.029,0,0,0-1.414,0,3.07,3.07,0,0,1-4.243,0L25.7,40.424a4.961,4.961,0,0,0,1.235.881l-5.125,5.13L18.272,42.9ZM31.7,58.74a.993.993,0,0,1-.713-1.688l.013-.01,1.883-1.884.943-.94h0l0,0L32.414,52.8l-.709.709-2.126,2.119-.009.011a1,1,0,0,1-1.4-1.425L31,51.385l-1.414-1.414L26.757,52.8a1.022,1.022,0,0,1-1.414,0,1,1,0,0,1,0-1.413l2.828-2.829-1.414-1.414L23.929,49.97a1,1,0,1,1-1.414-1.414l6.665-6.672c.018,0,.034.005.052.005a4.968,4.968,0,0,0,2.758-.827L35.6,44.667a3,3,0,0,0,4.243-4.242l-3.51-3.51h0l8.815,8.815-.294.294a2.966,2.966,0,0,0-3.754,2.73,2.957,2.957,0,0,0-2.83,2.829,2.955,2.955,0,0,0-2.83,2.855,2.926,2.926,0,0,0-2.73,3.72l-.294.3A1,1,0,0,1,31.7,58.74Zm6.018.777a1,1,0,0,1-1.415,0L34.889,58.1a1,1,0,0,1,0-1.415,1,1,0,0,1,1.412,0h0L37.717,58.1A1,1,0,0,1,37.718,59.517Zm2.827-2.829a1.022,1.022,0,0,1-1.413,0l-1.414-1.414a1,1,0,1,1,1.414-1.415l1.414,1.415a1,1,0,0,1,0,1.414Zm2.83-2.829a1,1,0,0,1-1.415,0l-1.414-1.415a1,1,0,0,1,1.414-1.414l1.414,1.414A1,1,0,0,1,43.375,53.859ZM46.2,51.031a1.022,1.022,0,0,1-1.413,0l-1.414-1.414a1,1,0,0,1,0-1.414,1,1,0,0,1,1.414,0L46.2,49.617a1,1,0,0,1,0,1.414Zm.355-6.718-8.485-8.485,1.413-1.414L47.971,42.9ZM50.8,42.9,39.485,31.586l4.243-4.243L55.042,38.657Z"/><path d="M33,22a1,1,0,0,1-1-1H30a3,3,0,0,0,2,2.816V25h2V23.816A2.993,2.993,0,0,0,33,18a1,1,0,1,1,1-1h2a3,3,0,0,0-2-2.816V13H32v1.184A2.993,2.993,0,0,0,33,20a1,1,0,0,1,0,2Z"/><path d="M33,28a9,9,0,1,0-9-9A9.011,9.011,0,0,0,33,28Zm0-16a7,7,0,1,1-7,7A7.008,7.008,0,0,1,33,12Z"/></g></svg>