<svg xmlns="http://www.w3.org/2000/svg" viewBox="0 0 64 64"><g id="Partnership-3" data-name="Partnership"><path d="M55,5V57a4,4,0,1,1-8,0V53H13V5a2.006,2.006,0,0,1,2-2H53A2.006,2.006,0,0,1,55,5Z" style="fill:#e6e7e8"/><polygon points="55 24.2 44.73 13.93 39.07 19.59 40.49 21 50.38 30.9 51.8 32.31 55 29.12 57.46 26.66 55 24.2" style="fill:#1e81ce"/><path d="M51,61H11a4,4,0,0,1-4-4V53H47v4a3.995,3.995,0,0,0,4,4Z" style="fill:#d1d3d4"/><rect x="42.023" y="20.366" width="3.999" height="13.997" transform="translate(-6.462 39.118) rotate(-44.971)" style="fill:#5aaae7"/><path d="M47.91,36.91a2,2,0,1,1-2.83,2.83l-1.41-1.42a1.98,1.98,0,0,1,0-2.82,1.947,1.947,0,0,1,2.42-.3,1.439,1.439,0,0,1,.41.3Z" style="fill:#ffc477"/><path d="M28.46,41.51a2,2,0,0,1-2.82-2.83,2.022,2.022,0,0,1-1.42.58,1.983,1.983,0,0,1-1.41-.58,2,2,0,0,1,0-2.83l6.98-6.99a3.985,3.985,0,0,0,3.27-1.14l4.24,4.24a2,2,0,1,0,2.83-2.83L35.3,24.3l2.36-.47,9.9,9.9L46.09,35.2a1.947,1.947,0,0,0-2.42.3,1.98,1.98,0,0,0,0,2.82,2,2,0,0,0-3.41,1.42,1.983,1.983,0,0,0,.58,1.41,2,2,0,1,0-2.83,2.83,2,2,0,0,0-3.14,2.43l-.75.75a2,2,0,0,1-2.83-2.83,1.993,1.993,0,0,1-1.41.59,2.033,2.033,0,0,1-1.42-.59A1.992,1.992,0,0,1,28.46,41.51Z" style="fill:#ffc477"/><path d="M45.08,39.74a2,2,0,0,1-2.83,2.83l-1.41-1.42a1.983,1.983,0,0,1-.58-1.41,2,2,0,0,1,3.41-1.42Z" style="fill:#ffc477"/><path d="M42.25,42.57a1.993,1.993,0,0,1,.59,1.41,2.033,2.033,0,0,1-.59,1.42,2,2,0,0,1-2.83,0l-1.41-1.42a2,2,0,1,1,2.83-2.83Z" style="fill:#ffc477"/><path d="M29.79,28.86l-6.98,6.99L17.86,30.9l9.9-9.9H32l3.3,3.3,4.83,4.83a2,2,0,1,1-2.83,2.83l-4.24-4.24A3.985,3.985,0,0,1,29.79,28.86Z" style="fill:#ffc477"/><path d="M39.42,45.4a1.98,1.98,0,0,1,0,2.82,1.992,1.992,0,0,1-2.82,0l-1.42-1.41a1.954,1.954,0,0,1-.31-.4,2.012,2.012,0,0,1-.27-1.01,2,2,0,0,1,3.41-1.42Z" style="fill:#ffc477"/><rect x="14.395" y="22.534" width="14.001" height="4.002" transform="translate(-11.082 22.315) rotate(-45)" style="fill:#00ccb3"/><polygon points="19.98 11.81 13 18.79 8.67 23.12 13 27.46 14.32 28.78 15.03 28.07 24.93 18.17 25.64 17.46 19.98 11.81" style="fill:#00b39d"/><path d="M58.456,26.657a1,1,0,0,0-.293-.707L56,23.787V5a3,3,0,0,0-3-3H15a3,3,0,0,0-3,3V18.373L7.958,22.414a1,1,0,0,0,0,1.414L12,27.87V52H7a1,1,0,0,0-1,1v4a5.006,5.006,0,0,0,5,5H51a5.006,5.006,0,0,0,5-5V29.527l2.163-2.163A1,1,0,0,0,58.456,26.657ZM14,5a1,1,0,0,1,1-1H53a1,1,0,0,1,1,1V21.787l-8.565-8.565a1.029,1.029,0,0,0-1.414,0l-5.657,5.657a1,1,0,0,0,0,1.414l.707.707-1.909,1.909-1.533.306-2.922-2.922A1,1,0,0,0,32,20H28.171l-1.828-1.828h0a1,1,0,0,0,0-1.414L20.686,11.1a1,1,0,0,0-1.414,0L14,16.373ZM44.375,41.859a1,1,0,0,1-1.415,0l-1.414-1.415a1,1,0,0,1,1.414-1.414l1.414,1.414A1,1,0,0,1,44.375,41.859Zm-2.536,2.122a.99.99,0,0,1-.294.707,1.022,1.022,0,0,1-1.413,0l-1.414-1.414a1,1,0,1,1,1.414-1.415l1.414,1.415A.993.993,0,0,1,41.839,43.981Zm-3.121,3.536a1,1,0,0,1-1.415,0L35.889,46.1a1,1,0,0,1,0-1.415,1,1,0,0,1,1.412,0h0L38.717,46.1A1,1,0,0,1,38.718,47.517Zm-4.243-4.243a2.992,2.992,0,0,0-.767,2.884l-.294.3a1,1,0,0,1-1.427-1.4l.013-.01,1.883-1.884.943-.94h0l0,0L33.414,40.8l-.709.709-2.126,2.119-.009.011a1,1,0,0,1-1.4-1.425L32,39.385l-1.414-1.414L27.757,40.8a1.022,1.022,0,0,1-1.414,0,1,1,0,0,1,0-1.413l2.828-2.829-1.414-1.414L24.929,37.97a1,1,0,1,1-1.414-1.414l6.665-6.672c.018,0,.034,0,.052,0a4.968,4.968,0,0,0,2.758-.827L36.6,32.667a3,3,0,0,0,4.243-4.242l-3.51-3.51h0l8.815,8.815-.294.294a2.966,2.966,0,0,0-3.754,2.73,2.957,2.957,0,0,0-2.83,2.829,2.955,2.955,0,0,0-2.83,2.855A2.967,2.967,0,0,0,34.475,43.274ZM17.858,29.485l-1.415-1.414,8.486-8.485L26.343,21ZM28.171,22h3.415l7.839,7.839a1,1,0,1,1-1.415,1.414L33.768,27.01a1.029,1.029,0,0,0-1.414,0,3.07,3.07,0,0,1-4.243,0L26.7,28.424a4.961,4.961,0,0,0,1.235.881l-5.125,5.13L19.272,30.9ZM45.789,39.031l-1.414-1.414a1,1,0,0,1,0-1.414,1,1,0,0,1,1.414,0L47.2,37.617a1,1,0,0,1,0,1.414A1.022,1.022,0,0,1,45.789,39.031Zm1.768-6.718-8.485-8.485,1.413-1.414L48.971,30.9ZM19.979,13.222l4.243,4.242-9.9,9.9L10.08,23.121ZM11,60a3,3,0,0,1-3-3V54H46v3a4.987,4.987,0,0,0,1,3Zm43-3a3,3,0,1,1-6,0V53a1,1,0,0,0-1-1H14V29.714a.987.987,0,0,0,.322.064,1,1,0,0,0,.707-.293h0l2.122,2.121,4.373,4.373a2.972,2.972,0,0,0,2.541,4.268,2.959,2.959,0,0,0,2.83,2.83A2.952,2.952,0,0,0,29.724,45.9a2.994,2.994,0,0,0,5.1,1.964l1.063,1.063a2.987,2.987,0,0,0,5.1-1.965,2.957,2.957,0,0,0,2.83-2.83,2.952,2.952,0,0,0,2.827-2.827A2.991,2.991,0,0,0,48.617,36.2l-1.058-1.058.708-.708s.007-.012.012-.017l2.106-2.107.707.708a1,1,0,0,0,1.414,0L54,31.526ZM51.8,30.9,40.485,19.586l4.243-4.243L56.042,26.657Z"/><rect x="23" y="8" width="4" height="2"/><rect x="29" y="8" width="20" height="2"/><rect x="26" y="12" width="8" height="2"/><rect x="36" y="12" width="4" height="2"/><rect x="46" y="46" width="4" height="2"/><rect x="18" y="46" width="8" height="2"/><rect x="18" y="42" width="4" height="2"/></g></svg>