<svg xmlns="http://www.w3.org/2000/svg" viewBox="0 0 64 64"><g id="Paticipatation"><path d="M60.21,9.44a1.983,1.983,0,0,0-1.41-.58,2.014,2.014,0,0,0-1.37.54l-7.82,7.82,7.77-7.78a.176.176,0,0,1,.05-.04l2.08-2.08a2,2,0,1,0-2.83-2.83L54.6,6.57a2,2,0,0,0-2.87-2.78L48.92,6.6a2,2,0,0,0-2.85-2.81l-9.9,9.9-1.41,5.65-1.42,1.42.38.38,8.82,8.81.23-.23,1.18-1.18h5.66l7.07-7.08a1.992,1.992,0,0,0,0-2.82,1.992,1.992,0,0,0-2.83,0l6.36-6.37A2,2,0,0,0,60.21,9.44Z" style="fill:#ffc477"/><path d="M60.21,54.56a2,2,0,0,0,0-2.83l-6.36-6.37a1.992,1.992,0,0,0,2.83,0,1.992,1.992,0,0,0,0-2.82l-7.07-7.08H43.95l-1.18-1.18-.23-.23-8.82,8.81-.38.38,1.42,1.42,1.41,5.65,9.9,9.9a2,2,0,0,0,2.85-2.81l2.81,2.81a2,2,0,0,0,2.87-2.78l-7.82-7.82,7.78,7.77a.176.176,0,0,1,.04.05l2.08,2.08a2,2,0,0,0,2.83-2.83L57.43,54.6a2.014,2.014,0,0,0,1.37.54A1.983,1.983,0,0,0,60.21,54.56Z" style="fill:#ffc477"/><path d="M29.24,19.34l-1.41-5.65-9.9-9.9A2,2,0,0,0,15.08,6.6L12.27,3.79A2,2,0,0,0,9.4,6.57L7.32,4.49A2,2,0,0,0,4.49,7.32L6.57,9.4a.176.176,0,0,1,.05.04l7.77,7.78L6.57,9.4A2.014,2.014,0,0,0,5.2,8.86a1.983,1.983,0,0,0-1.41.58,2,2,0,0,0,0,2.83l6.36,6.37a1.992,1.992,0,0,0-2.83,0,1.992,1.992,0,0,0,0,2.82l7.07,7.08h5.66l1.18,1.18.23.23,8.82-8.81.38-.38Z" style="fill:#ffc477"/><path d="M30.28,42.86l-8.82-8.81-.23.23-1.18,1.18H14.39L7.32,42.54a1.992,1.992,0,0,0,0,2.82,1.992,1.992,0,0,0,2.83,0L3.79,51.73a2,2,0,0,0,0,2.83,1.983,1.983,0,0,0,1.41.58,2.014,2.014,0,0,0,1.37-.54L4.49,56.68a2,2,0,1,0,2.83,2.83L9.4,57.43a.176.176,0,0,1,.04-.05l7.78-7.77L9.4,57.43a2,2,0,0,0,2.87,2.78l2.81-2.81a2,2,0,0,0,2.85,2.81l9.9-9.9,1.41-5.65,1.42-1.42Z" style="fill:#ffc477"/><path d="M43,32a11.45,11.45,0,0,1-.23,2.28,11.009,11.009,0,0,1-9.05,8.58,10.636,10.636,0,0,1-3.44,0,11.009,11.009,0,0,1-9.05-8.58,11.416,11.416,0,0,1,0-4.56,11.009,11.009,0,0,1,9.05-8.58,10.636,10.636,0,0,1,3.44,0,11.009,11.009,0,0,1,9.05,8.58A11.45,11.45,0,0,1,43,32Z" style="fill:#ff6243"/><path d="M32.05,24H32a8,8,0,0,0-.05,16H32a8,8,0,0,0,.05-16Z" style="fill:#ffd422"/><path d="M61.8,53.145a2.98,2.98,0,0,0-.878-2.122l-4.365-4.372a2.9,2.9,0,0,0,.835-.584,2.992,2.992,0,0,0,0-4.234l-7.071-7.08a1,1,0,0,0-.707-.293H44.364l-.533-.534a11.059,11.059,0,0,0,0-3.852l.533-.534H49.61a1,1,0,0,0,.707-.293l7.07-7.08a2.991,2.991,0,0,0,.009-4.225,2.739,2.739,0,0,0-.856-.581l4.377-4.383a3,3,0,0,0,0-4.245,2.8,2.8,0,0,0-.839-.566l.139-.14a3,3,0,0,0,0-4.243,3.063,3.063,0,0,0-4.244,0l-.129.13a3.01,3.01,0,0,0-.577-.83,3.063,3.063,0,0,0-4.244,0l-.84.839a2.969,2.969,0,0,0-.576-.839,3.063,3.063,0,0,0-4.244,0l-9.9,9.9a.993.993,0,0,0-.263.465l-1.344,5.381-1.2,1.2C32.435,20.021,32.22,20,32,20s-.435.021-.652.033l-1.2-1.2L28.8,13.448a.993.993,0,0,0-.263-.465l-9.9-9.9a3.063,3.063,0,0,0-4.244,0,2.969,2.969,0,0,0-.576.839l-.84-.839a3.063,3.063,0,0,0-4.244,0,3.01,3.01,0,0,0-.577.83l-.129-.129a3.064,3.064,0,0,0-4.244,0,3,3,0,0,0,0,4.244l.14.14a2.807,2.807,0,0,0-.84.566,3,3,0,0,0,0,4.244L7.459,17.36a2.729,2.729,0,0,0-.846.573,2.992,2.992,0,0,0,0,4.234l7.071,7.08a1,1,0,0,0,.707.293h5.246l.533.534a11.059,11.059,0,0,0,0,3.852l-.533.534H14.39a1,1,0,0,0-.707.293l-7.07,7.08A2.991,2.991,0,0,0,6.6,46.058a2.932,2.932,0,0,0,.844.593L3.083,51.022a2.972,2.972,0,0,0,.831,4.819l-.131.132a3,3,0,1,0,4.244,4.244l.129-.129a2.987,2.987,0,0,0,4.821.829l.84-.839a2.981,2.981,0,0,0,4.82.839l9.9-9.9a.993.993,0,0,0,.263-.465l1.344-5.381,1.2-1.2c.217.012.432.033.652.033s.435-.021.652-.033l1.2,1.2L35.2,50.552a.993.993,0,0,0,.263.465l9.9,9.9a2.967,2.967,0,0,0,4.82-.839l.84.839a2.977,2.977,0,0,0,4.82-.83l.13.129a3,3,0,0,0,4.244-4.243l-.132-.131a2.942,2.942,0,0,0,1.71-2.7Zm-26.328-33.1a1,1,0,0,0,.263-.465L37.073,14.2l9.7-9.7a1,1,0,0,1,1.429,1.4l-4.962,4.956,1.413,1.416L52.437,4.5a1.017,1.017,0,0,1,1.416,0,.994.994,0,0,1,.017,1.389h0c-.02.022-.04.043-.058.066l-7.74,7.73L47.486,15.1l9.9-9.9a1.012,1.012,0,0,1,1.415,0,1,1,0,0,1,0,1.415l-9.9,9.9,1.415,1.413,7.793-7.793a1.03,1.03,0,0,1,1.393.013,1,1,0,0,1,0,1.416L48.9,22.173l1.414,1.414,4.241-4.24h0l.008-.008a.952.952,0,0,1,.694-.288.974.974,0,0,1,.713.3,1,1,0,0,1,0,1.406L49.2,27.54H43.95a1,1,0,0,0-.707.293l0,0a12.032,12.032,0,0,0-8.146-7.417Zm-14.71,7.786a1,1,0,0,0-.707-.293H14.805L8.027,20.753a1,1,0,0,1,.009-1.415.992.992,0,0,1,1.407.009l4.24,4.24L15.1,22.173,4.5,11.562a1,1,0,0,1,0-1.415,1.059,1.059,0,0,1,1.366-.04l7.82,7.82L15.1,16.514l-9.9-9.9A1,1,0,0,1,5.2,5.2a1.014,1.014,0,0,1,1.415,0l9.9,9.9,1.413-1.415L10.182,5.947c-.016-.021-.035-.04-.053-.06h0A.994.994,0,0,1,10.147,4.5a1.015,1.015,0,0,1,1.416,0l7.78,7.771,1.413-1.416L15.794,5.9a1,1,0,0,1,1.429-1.4l9.7,9.7,1.343,5.381a1,1,0,0,0,.263.465l.373.372a12.032,12.032,0,0,0-8.146,7.417Zm7.776,16.12a1,1,0,0,0-.263.465L26.927,49.8l-9.7,9.7a1,1,0,0,1-1.429-1.4l4.962-4.956-1.413-1.416-4.982,4.976-2.8,2.8a1.016,1.016,0,0,1-1.416,0,.994.994,0,0,1-.017-1.389l7.8-7.8h0L16.514,48.9l-9.9,9.9a1.014,1.014,0,0,1-1.415,0,1,1,0,0,1,0-1.415l9.9-9.9-1.415-1.413-7.73,7.74c-.021.017-.042.034-.062.052A1.028,1.028,0,0,1,4.5,53.853a1,1,0,0,1,0-1.416l6.359-6.371,4.24-4.239-1.414-1.414-4.241,4.24h0l-.008.008a.952.952,0,0,1-.694.288.974.974,0,0,1-.713-.3,1,1,0,0,1,0-1.406l6.778-6.787H20.05a1,1,0,0,0,.707-.293l0,0a12.032,12.032,0,0,0,8.146,7.417ZM22,32A10,10,0,1,1,32,42,10.011,10.011,0,0,1,22,32ZM58.8,58.8a1.014,1.014,0,0,1-1.415,0l-9.9-9.9-.706.708-.707.707h0l7.8,7.8a.994.994,0,0,1-.017,1.389,1.017,1.017,0,0,1-1.416,0l-7.78-7.771-1.413,1.416L48.206,58.1a1,1,0,0,1-1.429,1.4l-9.7-9.7L35.73,44.418a1,1,0,0,0-.263-.465l-.373-.372a12.032,12.032,0,0,0,8.146-7.417l0,0a1,1,0,0,0,.707.293H49.2l6.778,6.787a1,1,0,0,1-.009,1.415.992.992,0,0,1-1.407-.009l-4.24-4.24L48.9,41.827,59.5,52.438a1,1,0,0,1,0,1.415,1.028,1.028,0,0,1-1.394.012c-.02-.018-.041-.035-.062-.052l-7.73-7.74L48.9,47.486l9.9,9.9a1,1,0,0,1,0,1.415Z"/><path d="M32,29a1,1,0,0,1,1,1h2a3,3,0,0,0-2-2.816V26H31v1.184A2.993,2.993,0,0,0,32,33a1,1,0,1,1-1,1H29a3,3,0,0,0,2,2.816V38h2V36.816A2.993,2.993,0,0,0,32,31a1,1,0,0,1,0-2Z"/><path d="M32,23a9,9,0,1,0,9,9A9.011,9.011,0,0,0,32,23Zm0,16a7,7,0,1,1,7-7A7.008,7.008,0,0,1,32,39Z"/></g></svg>