<svg xmlns="http://www.w3.org/2000/svg" viewBox="0 0 64 64"><g id="Paticipatation-2" data-name="Paticipatation"><path d="M37.29,35.46a1.948,1.948,0,0,1-.58,1.32l-1.88,1.88-.92.91-1.34,1.34-.57.58-1.64,1.63a1.981,1.981,0,0,1,1.4-.56.661.661,0,0,1,.24.03,1.832,1.832,0,0,1,1.17.55,2,2,0,0,1,0,2.83L32,47.14l-1,1-6.31,6.32H19.03l-1.41,1.41-9.2-9.19,1.42-1.42,1.41-5.65L22.52,28.33l.04-.04a2.033,2.033,0,0,1,1.42-.59,1.993,1.993,0,0,1,1.41.59.435.435,0,0,1,.06.07,1.994,1.994,0,0,1-.06,2.76l.61-.61,2.22-2.22a2,2,0,0,1,1.42-.59,1.472,1.472,0,0,1,.36.04,1.988,1.988,0,0,1,1.63,2.06,1.948,1.948,0,0,1-.58,1.32L33.17,29a2.059,2.059,0,0,1,1.41-.58A2,2,0,0,1,36,31.83L34.83,33l-.83.83-.12.12a1.059,1.059,0,0,1,.12-.1,1.9,1.9,0,0,1,1.2-.48.34.34,0,0,1,.1-.01,2,2,0,0,1,1.99,2.1Z" style="fill:#ffc477"/><polygon points="56.99 45.26 61.23 49.51 49.92 60.82 45.68 56.58 46.38 55.87 55.58 46.68 56.99 45.26" style="fill:#3d9ae2"/><polygon points="41 3 41 9 39 9 26 9 25 9 25 3 41 3" style="fill:#3d9ae2"/><path d="M42,16V32a1.955,1.955,0,0,1-.59,1.41,3.084,3.084,0,0,1-.27.24A2.046,2.046,0,0,1,40,34a2.006,2.006,0,0,1-2-2v4a.808.808,0,0,1-.01.16A2.01,2.01,0,0,1,36,38a2.315,2.315,0,0,1-.46-.05A2.015,2.015,0,0,1,34,36v3a1.791,1.791,0,0,1-.09.57,1.987,1.987,0,0,1-1.34,1.34,1.85,1.85,0,0,1-1.14,0,2,2,0,0,1-1.34-1.34A1.791,1.791,0,0,1,30,39V36a1.955,1.955,0,0,1-.59,1.41,2.007,2.007,0,0,1-.95.54A2.315,2.315,0,0,1,28,38a2,2,0,0,1-1.99-1.84A.808.808,0,0,1,26,36V27a1.775,1.775,0,0,1-.1.61,1.8,1.8,0,0,1-.45.75.176.176,0,0,1-.04.05,1.975,1.975,0,0,1-2.89-.08A1.927,1.927,0,0,1,22,27V15l4-4V9H39v2Z" style="fill:#ffc477"/><polygon points="17.62 55.87 18.32 56.58 14.08 60.82 2.77 49.51 7.01 45.26 8.42 46.68 17.62 55.87" style="fill:#3d9ae2"/><path d="M55.58,46.68l-9.2,9.19-1.41-1.41H39.31L32,47.14l-1.17-1.17a2,2,0,0,1,0-2.83A1.832,1.832,0,0,1,32,42.59a.661.661,0,0,1,.24-.03,1.981,1.981,0,0,1,1.4.56L32,41.49l-.57-.58-1.34-1.34-.92-.91-1.88-1.88a1.948,1.948,0,0,1-.58-1.32,2,2,0,0,1,1.99-2.1.34.34,0,0,1,.1.01,1.9,1.9,0,0,1,1.2.48,1.059,1.059,0,0,1,.12.1L30,33.83,29.17,33,28,31.83a2,2,0,0,1,1.42-3.41,2.059,2.059,0,0,1,1.41.58l2.12,2.12a1.948,1.948,0,0,1-.58-1.32A1.988,1.988,0,0,1,34,27.74a1.472,1.472,0,0,1,.36-.04,2,2,0,0,1,1.42.59L38,30.51l.61.61a2.005,2.005,0,0,1,1.41-3.42,2.033,2.033,0,0,1,1.42.59l.56.56L52.75,39.61l1.41,5.65Z" style="fill:#ffc477"/><path d="M27,32.83A2,2,0,0,1,27,30a2.092,2.092,0,0,1,.59-.41A2.015,2.015,0,0,0,28,31.83L29.17,33l.83.83.12.12a1.059,1.059,0,0,0-.12-.1,1.9,1.9,0,0,0-1.2-.48.34.34,0,0,0-.1-.01,1.924,1.924,0,0,0-.93.24Z" style="fill:#ffb655"/><path d="M32.95,31.12l-1.34-1.34a1.6,1.6,0,0,1,.34-.49,1.835,1.835,0,0,1,.6-.41,1.851,1.851,0,0,0-.18.92A1.948,1.948,0,0,0,32.95,31.12Z" style="fill:#ffb655"/><path d="M30.43,41.91l-1.34-1.34-.92-.91-1.88-1.88a1.948,1.948,0,0,1-.58-1.32,1.992,1.992,0,0,1,.58-1.51,1.835,1.835,0,0,1,.6-.41,1.851,1.851,0,0,0-.18.92,1.948,1.948,0,0,0,.58,1.32l1.88,1.88.92.91,1.34,1.34.57.58,1.64,1.63a1.981,1.981,0,0,0-1.4-.56.661.661,0,0,0-.24.03,1.667,1.667,0,0,0-.69.2l-.31-.3Z" style="fill:#ffb655"/><path d="M38,30.51l-.74-.74a2.036,2.036,0,0,1,.35-.48,2.092,2.092,0,0,1,.59-.41,2.015,2.015,0,0,0,.41,2.24Z" style="fill:#ffb655"/><path d="M32,47.14l-1,1-1.17-1.17a2,2,0,0,1,0-2.83,1.96,1.96,0,0,1,.59-.41,2.015,2.015,0,0,0,.41,2.24Z" style="fill:#ffb655"/><path d="M61.938,48.8l-4.24-4.25a1,1,0,0,0-.708-.294h0a1,1,0,0,0-.708.3l-.706.706-.512-.512L53.72,39.368a1.008,1.008,0,0,0-.262-.465L43,28.437V16a1,1,0,0,0-.143-.515L40,10.723V10h1a1,1,0,0,0,1-1V3a1,1,0,0,0-1-1H25a1,1,0,0,0-1,1V9a1,1,0,0,0,1,1v.586l-3.707,3.707A1,1,0,0,0,21,15V27a2.969,2.969,0,0,0,.252,1.184L10.542,38.9a1.008,1.008,0,0,0-.262.465L8.937,44.749l-.515.514-.706-.706a1,1,0,0,0-1.414,0L2.059,48.8a1,1,0,0,0,0,1.414L13.373,61.527a1,1,0,0,0,1.414,0l4.242-4.243a1,1,0,0,0,0-1.411l.413-.413H24.69a1,1,0,0,0,.707-.293L32,48.556l6.6,6.611a1,1,0,0,0,.707.293h5.246l.415.415,0,0a1,1,0,0,0,0,1.409l4.24,4.24a1,1,0,0,0,1.414,0l11.31-11.31A1,1,0,0,0,61.938,48.8ZM26,4H40V8H26Zm.707,7.707A1,1,0,0,0,27,11V10H38v1a1,1,0,0,0,.143.515L41,16.277V26.9a3.126,3.126,0,0,0-2,.012V25H37v3.1l-.513-.513A2.987,2.987,0,0,0,35,26.773V25H33v2.036a2.841,2.841,0,0,0-1.332,1.388l-.131-.131A2.934,2.934,0,0,0,31,27.874V25H29v2.452a2.989,2.989,0,0,0-1.707.841,2.942,2.942,0,0,0-.444.585,2.946,2.946,0,0,0-.2-.5A2.931,2.931,0,0,0,27,27V21H25v5.9a3.009,3.009,0,0,0-2,0V15.414ZM14.08,59.406l-9.9-9.9,2.829-2.828,9.9,9.9ZM24.275,53.46H19.03a1,1,0,0,0-.707.293l-.705.7L9.837,46.677l.71-.71a1.006,1.006,0,0,0,.263-.465l1.343-5.381,11.1-11.115a1.011,1.011,0,0,1,1.409-.024c.016.019.031.038.048.056a.991.991,0,0,1-.032,1.375h0l-4.95,4.95,1.414,1.414,4.95-4.95h0a3.016,3.016,0,0,0,.446-.589,2.962,2.962,0,0,0,.749,1.3l.125.125a3.024,3.024,0,0,0-.835.581,2.984,2.984,0,0,0-.847,1.777l-.433.433-2.74,2.74,1.414,1.414,2.383-2.383a2.924,2.924,0,0,0,.223.263l1.175,1.171-2.365,2.365,1.414,1.414,2.367-2.367.132.131a.893.893,0,0,0,.077.086l1.2,1.2-5.19,5.185,1.414,1.414,2.6-2.6a2.975,2.975,0,0,0,.717,1.189l.463.464Zm15.45,0-8.188-8.2a1,1,0,0,1,0-1.416A.891.891,0,0,1,32,43.59a.984.984,0,0,0,.242-.03.984.984,0,0,1,.689.266l0,0h0l4.258,4.258,1.414-1.414-10.62-10.61a.961.961,0,0,1-.279-.658,1,1,0,0,1,.956-1.044,1.054,1.054,0,0,0,.113.009,1.025,1.025,0,0,1,.636.287l7.78,7.78,1.414-1.414-9.9-9.9a1,1,0,0,1,0-1.416.99.99,0,0,1,.713-.287.955.955,0,0,1,.3.05.921.921,0,0,1,.4.237l9.9,9.9,1.414-1.414L33.648,30.4a.96.96,0,0,1-.279-.66A1,1,0,0,1,33.657,29a1.077,1.077,0,0,1,.588-.287.527.527,0,0,1,.115-.01,1.006,1.006,0,0,1,.713.3l7.78,7.78,1.414-1.414-4.95-4.95a1,1,0,0,1,0-1.416,1.022,1.022,0,0,1,1.416,0L51.847,40.121,53.19,45.5a1.006,1.006,0,0,0,.263.465l.708.708L46.38,54.456l-.7-.7a1,1,0,0,0-.707-.293Zm10.2,5.946-2.831-2.831,9.9-9.9,2.824,2.832Z"/><path d="M19.65,17.561l-1.3-1.52a21.031,21.031,0,0,0-7.115,19.108l1.977-.3A19.189,19.189,0,0,1,13,32,18.987,18.987,0,0,1,19.65,17.561Z"/><path d="M33.049,52.975l-.1-2c-.63.031-1.272.031-1.9,0l-.1,2c.347.016.7.025,1.049.025S32.7,52.991,33.049,52.975Z"/><path d="M52.9,34.1c.069-.691.1-1.4.1-2.1a20.986,20.986,0,0,0-7.35-15.959l-1.3,1.52A18.987,18.987,0,0,1,51,32c0,.636-.032,1.276-.094,1.9Z"/><path d="M9.5,36.792A23.039,23.039,0,0,1,22.417,11.085l-.834-1.817a25.042,25.042,0,0,0-14.04,27.94Z"/><path d="M28.166,54.682l-.332,1.972a25.253,25.253,0,0,0,8.332,0l-.332-1.972A23.38,23.38,0,0,1,28.166,54.682Z"/><path d="M55,32a23.126,23.126,0,0,1-.5,4.792l1.957.416A25.044,25.044,0,0,0,44.5,10.345l-1,1.732A23.087,23.087,0,0,1,55,32Z"/></g></svg>