<svg xmlns="http://www.w3.org/2000/svg" viewBox="0 0 64 64"><g id="Promote"><path d="M27,32V48l-3,5v2H11V53L7,49V37a2.006,2.006,0,0,1,2-2,2.015,2.015,0,0,1,2,2V28a2.006,2.006,0,0,1,2-2,2.015,2.015,0,0,1,2,2V25a2.006,2.006,0,0,1,2-2,2.015,2.015,0,0,1,2,2v3a2.006,2.006,0,0,1,2-2,2.015,2.015,0,0,1,2,2v4a1.891,1.891,0,0,1,.18-.82A2,2,0,0,1,25,30a2.015,2.015,0,0,1,2,2Z" style="fill:#ffc477"/><path d="M27,35v6H16V34.58a5.979,5.979,0,0,1,1-3.32,6.092,6.092,0,0,1,3.42-2.47l.58-.16,2-.54V31Z" style="fill:#ffb655"/><path d="M57,37V49l-4,4v2H40V53l-3-5V32a2.015,2.015,0,0,1,2-2,2,2,0,0,1,1.82,1.18A1.891,1.891,0,0,1,41,32V28a2.015,2.015,0,0,1,2-2,2.006,2.006,0,0,1,2,2V25a2.015,2.015,0,0,1,2-2,2.006,2.006,0,0,1,2,2v3a2.015,2.015,0,0,1,2-2,2.006,2.006,0,0,1,2,2v9a2.015,2.015,0,0,1,2-2A2.006,2.006,0,0,1,57,37Z" style="fill:#ffc477"/><path d="M48,34.58V41H37V35l4-4V28.09l2,.54.58.16A6.092,6.092,0,0,1,47,31.26,5.979,5.979,0,0,1,48,34.58Z" style="fill:#ffb655"/><path d="M58.7,10a1,1,0,0,1,.55,1.83l-2.56,1.71a.994.994,0,0,0-.36,1.22l1.03,2.41a1,1,0,0,1-1.56,1.16l-2.16-1.8a1,1,0,0,0-1.28,0l-2.16,1.8a1,1,0,0,1-1.56-1.16l1.03-2.41a.994.994,0,0,0-.36-1.22l-2.56-1.71A1,1,0,0,1,47.3,10h2.78a1,1,0,0,0,.96-.7l1.01-3.23a.993.993,0,0,1,1.9,0L54.96,9.3a1,1,0,0,0,.96.7Z" style="fill:#ffd422"/><polygon points="54 55 54 61 38 61 38 55 40 55 53 55 54 55" style="fill:#3d9ae2"/><path d="M41,12v3h-.29a5.374,5.374,0,0,1-.7-.04,5.986,5.986,0,0,1-4.67-3.28L35,11l-1.66,1.66A7.985,7.985,0,0,1,27.69,15H23V12a9,9,0,0,1,18,0Z" style="fill:#787680"/><path d="M35,24.42A8,8,0,0,1,24,17V15h3.69a7.985,7.985,0,0,0,5.65-2.34L35,11l.34.68a5.986,5.986,0,0,0,4.67,3.28L40,15v2A8.008,8.008,0,0,1,35,24.42Z" style="fill:#ffc477"/><path d="M36.36,27.37,32,31l-4.36-3.63L29,27V24.42a8.049,8.049,0,0,0,6,0V27Z" style="fill:#ffb655"/><polygon points="36.36 27.37 32 31 27.64 27.37 25 28.09 25 30 25 31 27 33 32 38 37 33 39 31 39 30 39 28.09 36.36 27.37" style="fill:#e6e7e8"/><polygon points="26 55 26 61 10 61 10 55 11 55 24 55 26 55" style="fill:#3d9ae2"/><path d="M45,31.26a6.092,6.092,0,0,0-3.42-2.47L41,28.63l-2-.54V31l-2,2-5,5-5-5-2-2V28.09l-2,.54-.58.16A6.092,6.092,0,0,0,19,31.26a5.979,5.979,0,0,0-1,3.32V41H46V34.58A5.979,5.979,0,0,0,45,31.26Z" style="fill:#3d9ae2"/><path d="M16.7,10a1,1,0,0,1,.55,1.83l-2.56,1.71a.994.994,0,0,0-.36,1.22l1.03,2.41a1,1,0,0,1-1.56,1.16l-2.16-1.8a1,1,0,0,0-1.28,0L8.2,18.33a1,1,0,0,1-1.56-1.16l1.03-2.41a.994.994,0,0,0-.36-1.22L4.75,11.83A1,1,0,0,1,5.3,10H8.08a1,1,0,0,0,.96-.7l1.01-3.23a.993.993,0,0,1,1.9,0L12.96,9.3a1,1,0,0,0,.96.7Z" style="fill:#ffd422"/><path d="M35,24.42v1a8.049,8.049,0,0,1-6,0v-1a8.049,8.049,0,0,0,6,0Z" style="fill:#ffa733"/><path d="M55,34a3.012,3.012,0,0,0-1,.181V28a2.978,2.978,0,0,0-4-2.819V25a3,3,0,0,0-3-3,3.017,3.017,0,0,0-3,3v.184A2.966,2.966,0,0,0,43,25a3.013,3.013,0,0,0-2.923,2.345L36,26.236V25.05A9,9,0,0,0,41,17V16a1,1,0,0,0,1-1V12a10,10,0,0,0-20,0v3a1,1,0,0,0,1,1v1a9,9,0,0,0,5,8.05v1.186l-4.076,1.109a2.885,2.885,0,0,0-.8-1.453A2.928,2.928,0,0,0,20,25.184V25a3.015,3.015,0,0,0-3-3,3,3,0,0,0-3,3v.182A2.975,2.975,0,0,0,10,28v6.182A2.975,2.975,0,0,0,6,37V49a1,1,0,0,0,.293.707L10,53.414V54a1,1,0,0,0-1,1v6a1,1,0,0,0,1,1H26a1,1,0,0,0,1-1V55a1,1,0,0,0-1-1H25v-.723l2.857-4.762A1,1,0,0,0,28,48V42h8v6a1,1,0,0,0,.143.515L39,53.277V54H38a1,1,0,0,0-1,1v6a1,1,0,0,0,1,1H54a1,1,0,0,0,1-1V55a1,1,0,0,0-1-1v-.586l3.707-3.707A1,1,0,0,0,58,49V37A3,3,0,0,0,55,34Zm-36,.58a5.024,5.024,0,0,1,3.683-4.825L24,29.4V31a1,1,0,0,0,.293.707l7,7a1,1,0,0,0,1.414,0l7-7A1,1,0,0,0,40,31V29.4l1.314.358A5.026,5.026,0,0,1,45,34.58V40H19Zm12.36-2.811a1,1,0,0,0,1.28,0l3.96-3.3,1.4.38v1.734l-6,6-6-6V28.852l1.4-.38ZM43,27a1,1,0,0,1,1,1v.849a6.976,6.976,0,0,0-1.978-.958.97.97,0,0,1,.284-.6A.957.957,0,0,1,43,27ZM24,12a8,8,0,0,1,16,0v1.951a4.969,4.969,0,0,1-3.764-2.715l-.341-.683a1,1,0,0,0-1.6-.26L32.636,11.95A6.954,6.954,0,0,1,27.687,14H24Zm1,5V16h2.687a8.937,8.937,0,0,0,6.363-2.636l.7-.7A6.943,6.943,0,0,0,39,15.787V17a7,7,0,0,1-14,0Zm7,9a8.971,8.971,0,0,0,2-.232V27a.989.989,0,0,0,.349.743L32,29.7l-2.349-1.956A.989.989,0,0,0,30,27V25.768A8.971,8.971,0,0,0,32,26ZM21,27a.978.978,0,0,1,.713.306.95.95,0,0,1,.266.585A6.966,6.966,0,0,0,20,28.848V28A1,1,0,0,1,21,27Zm4,33H11V56H25Zm1-12.277-2.857,4.762A1,1,0,0,0,23,53v1H12V53a1,1,0,0,0-.293-.707L8,48.586V37a1,1,0,0,1,1-1,.978.978,0,0,1,.713.306A.965.965,0,0,1,10,37v6h2V28a1,1,0,0,1,1-1,.978.978,0,0,1,.713.306A.965.965,0,0,1,14,28V39h2V25a1,1,0,0,1,1-1,.978.978,0,0,1,.713.306A.965.965,0,0,1,18,25v6.021a6.944,6.944,0,0,0-1,3.559V41a1,1,0,0,0,1,1h8ZM53,60H39V56H53Zm3-11.414-3.707,3.707A1,1,0,0,0,52,53v1H41V53a1,1,0,0,0-.143-.515L38,47.723V42h8a1,1,0,0,0,1-1V34.58a6.944,6.944,0,0,0-1-3.559V25a.978.978,0,0,1,.306-.712A.957.957,0,0,1,47,24a1,1,0,0,1,1,1V39h2V28a.978.978,0,0,1,.306-.712A.957.957,0,0,1,51,27a1,1,0,0,1,1,1V43h2V37a.978.978,0,0,1,.306-.712A.957.957,0,0,1,55,36a1,1,0,0,1,1,1Z"/><path d="M36,18H34a2,2,0,0,1-4,0H28a4,4,0,0,0,8,0Z"/><path d="M6.364,19.168A1.971,1.971,0,0,0,8.841,19.1L11,17.3l2.16,1.8a2,2,0,0,0,3.118-2.324l-1.031-2.406,2.56-1.707A2,2,0,0,0,16.7,9H13.916L12.91,5.769a2,2,0,0,0-3.82,0L8.084,9H5.3a2,2,0,0,0-1.11,3.664l2.56,1.707L5.722,16.777A1.968,1.968,0,0,0,6.364,19.168ZM5.3,11H8.084a1.992,1.992,0,0,0,1.91-1.4L11,6.364l1.006,3.23A1.991,1.991,0,0,0,13.916,11H16.7l-2.559,1.707a2,2,0,0,0-.729,2.452l1.031,2.406-2.16-1.8a2,2,0,0,0-2.561,0l-2.159,1.8,1.031-2.406a2,2,0,0,0-.729-2.452Z"/><path d="M60.611,10.42A1.988,1.988,0,0,0,58.7,9H55.916L54.91,5.769a2,2,0,0,0-3.82,0L50.084,9H47.3a2,2,0,0,0-1.11,3.664l2.56,1.707-1.031,2.406A2,2,0,0,0,50.841,19.1L53,17.3l2.16,1.8a2,2,0,0,0,3.118-2.324l-1.031-2.406,2.56-1.707A1.989,1.989,0,0,0,60.611,10.42Zm-4.473,2.287a2,2,0,0,0-.729,2.452l1.031,2.406-2.16-1.8a2,2,0,0,0-2.561,0l-2.159,1.8,1.031-2.406a2,2,0,0,0-.729-2.452L47.3,11h2.781a1.992,1.992,0,0,0,1.91-1.4L53,6.364l1.006,3.23A1.991,1.991,0,0,0,55.916,11H58.7Z"/></g></svg>