<svg xmlns="http://www.w3.org/2000/svg" viewBox="0 0 64 64"><g id="Customer"><path d="M45,3H41a2.006,2.006,0,0,1,2,2V59a2.006,2.006,0,0,1-2,2h4a2.006,2.006,0,0,0,2-2V5A2.006,2.006,0,0,0,45,3Z" style="fill:#bcbec0"/><path d="M41,3H37a2.006,2.006,0,0,1,2,2V59a2.006,2.006,0,0,1-2,2h4a2.006,2.006,0,0,0,2-2V5A2.006,2.006,0,0,0,41,3Z" style="fill:#d1d3d4"/><rect x="3" y="3" width="36" height="58" rx="2" style="fill:#e6e7e8"/><path d="M61,29A16.013,16.013,0,0,1,47,44.88a16.727,16.727,0,0,1-4,0,15.726,15.726,0,0,1-4-1.06,15.494,15.494,0,0,1-3.55-2.01l-8.2,1.9L26,44l4.03-7.39.47-.87a15.939,15.939,0,0,1-1.46-5.77c-.03-.32-.04-.64-.04-.97A15.977,15.977,0,0,1,39,14.17a15.3,15.3,0,0,1,4-1.04,15.45,15.45,0,0,1,4,0A16,16,0,0,1,61,29Z" style="fill:#ffd422"/><polygon points="35 3 35 11 33 7 31 11 31 3 35 3" style="fill:#ff6243"/><path d="M47,29.46V32l-2,2-2-2V29.46a3.974,3.974,0,0,0,4,0Z" style="fill:#ffb655"/><path d="M48.83,24a2.006,2.006,0,0,1-1.42-.59L47,23l-1-1-.83.83A3.947,3.947,0,0,1,43,23.94a3.683,3.683,0,0,1-.66.06H41v2a4.025,4.025,0,0,0,1.17,2.83,4.225,4.225,0,0,0,.83.63A4,4,0,0,0,49,26V24Z" style="fill:#ffc477"/><path d="M47,29.46v1a3.974,3.974,0,0,1-4,0v-1a3.974,3.974,0,0,0,4,0Z" style="fill:#ffa733"/><path d="M47,17.41a5.083,5.083,0,0,0-4,0A5.029,5.029,0,0,0,40,22v2h2.34a3.683,3.683,0,0,0,.66-.06,3.947,3.947,0,0,0,2.17-1.11L46,22l1,1,.41.41a2.006,2.006,0,0,0,1.42.59H50V22A5.029,5.029,0,0,0,47,17.41Z" style="fill:#787680"/><path d="M47,32l-2,2-2-2a6.022,6.022,0,0,0-6,6v1H53V38A6,6,0,0,0,47,32Z" style="fill:#3d9ae2"/><path d="M39,43.82v2a15.494,15.494,0,0,1-3.55-2.01L26,46l1.25-2.29,8.2-1.9A15.494,15.494,0,0,0,39,43.82Z" style="fill:#d1d3d4"/><path d="M48,31.071v-1.1A4.977,4.977,0,0,0,50,26V25a1,1,0,0,0,1-1V22a6,6,0,0,0-12,0v2a1,1,0,0,0,1,1v1a4.977,4.977,0,0,0,2,3.974v1.1A7.011,7.011,0,0,0,36,38v1a1,1,0,0,0,1,1H53a1,1,0,0,0,1-1V38A7.011,7.011,0,0,0,48,31.071ZM41,22a4,4,0,0,1,8,0v1h-.172a1.009,1.009,0,0,1-.707-.293l-1.414-1.414a1,1,0,0,0-1.414,0l-.828.829A2.983,2.983,0,0,1,42.343,23H41Zm1.343,3a4.968,4.968,0,0,0,3.536-1.464L46,23.415l.707.706A2.96,2.96,0,0,0,48,24.87V26a3,3,0,0,1-6,0V25ZM45,31a5,5,0,0,0,1-.1v.687l-1,1-1-1V30.9A5,5,0,0,0,45,31Zm-7,7a4.991,4.991,0,0,1,4.624-4.962l1.669,1.669a1,1,0,0,0,1.414,0l1.669-1.669A4.991,4.991,0,0,1,52,38Z"/><path d="M62,29A17.016,17.016,0,0,0,48,12.281V5a3,3,0,0,0-3-3H5A3,3,0,0,0,2,5V59a3,3,0,0,0,3,3H45a3,3,0,0,0,3-3V45.719A17.016,17.016,0,0,0,62,29ZM46,5v7.051c-.333-.02-.662-.051-1-.051s-.667.031-1,.051V5a2.966,2.966,0,0,0-.184-1H45A1,1,0,0,1,46,5ZM42,5v7.281a16.817,16.817,0,0,0-2,.472V5a2.966,2.966,0,0,0-.184-1H41A1,1,0,0,1,42,5ZM32,4h2V6.764l-.1-.211a1.042,1.042,0,0,0-1.79,0l-.1.211ZM5,60a1,1,0,0,1-1-1V5A1,1,0,0,1,5,4H30v7a1,1,0,0,0,1.895.447L33,9.236l1.1,2.211A1,1,0,0,0,36,11V4h1a1,1,0,0,1,1,1v8.526A17.01,17.01,0,0,0,28,29a16.79,16.79,0,0,0,1.39,6.7l-4.268,7.823a1,1,0,0,0,1.1,1.453l9-2.083A17.147,17.147,0,0,0,38,44.471V59a1,1,0,0,1-1,1Zm35,0h-.184A2.966,2.966,0,0,0,40,59V45.243a16.827,16.827,0,0,0,2,.481V59a1,1,0,0,1-1,1Zm6-1a1,1,0,0,1-1,1H43.816A2.966,2.966,0,0,0,44,59V45.962c.332.019.665.038,1,.038s.667-.031,1-.051ZM45,44a14.861,14.861,0,0,1-8.954-2.988,1,1,0,0,0-.6-.2,1.016,1.016,0,0,0-.225.026l-7.278,1.684,3.439-6.3a1,1,0,0,0,.028-.9A14.862,14.862,0,0,1,30,29,15,15,0,1,1,45,44Z"/><rect x="8" y="8" width="4" height="2"/><rect x="14" y="8" width="8" height="2"/><rect x="8" y="12" width="14" height="2"/><rect x="8" y="18" width="6" height="2"/><rect x="16" y="18" width="12" height="2"/><rect x="8" y="22" width="18" height="2"/><rect x="8" y="26" width="12" height="2"/><rect x="22" y="26" width="4" height="2"/><rect x="8" y="30" width="18" height="2"/><rect x="8" y="34" width="18" height="2"/><rect x="8" y="38" width="8" height="2"/><rect x="18" y="38" width="6" height="2"/><rect x="8" y="42" width="14" height="2"/><rect x="24" y="48" width="8" height="2"/><rect x="24" y="52" width="8" height="2"/></g></svg>