<svg xmlns="http://www.w3.org/2000/svg" viewBox="0 0 64 64"><g id="Retire"><rect x="29" y="7" width="30" height="54" style="fill:#a97c50"/><polygon points="61 3 61 7 59 7 29 7 27 7 27 3 61 3" style="fill:#754c29"/><polygon points="54 43 54 53 52 55 36 55 34 53 34 43 36 41 52 41 54 43" style="fill:#8b5e3c"/><polygon points="34 31 34 26 34 17 34 13 36 11 52 11 54 13 54 35 52 37 36 37 34 35 34 31" style="fill:#8b5e3c"/><path d="M19,59v2H13l-2-1V57h6A2.006,2.006,0,0,1,19,59Z" style="fill:#754c29"/><path d="M11,20l2-2a6,6,0,0,1,6,6V35H3V24a6,6,0,0,1,6-6Z" style="fill:#3d9ae2"/><polygon points="11 57 6 57 6 35 16 35 16 57 11 57" style="fill:#787680"/><path d="M16,8v2H14.83a2.006,2.006,0,0,1-1.42-.59L12,8l-.83.83A4,4,0,0,1,8.34,10H6V8A5,5,0,0,1,16,8Z" style="fill:#787680"/><path d="M15,10v2a3.994,3.994,0,0,1-6,3.46,4.225,4.225,0,0,1-.83-.63A4.025,4.025,0,0,1,7,12V10H8.34a4,4,0,0,0,2.83-1.17L12,8l1.41,1.41a2.006,2.006,0,0,0,1.42.59Z" style="fill:#ffc477"/><path d="M13,15.46V18l-2,2L9,18V15.46a3.974,3.974,0,0,0,4,0Z" style="fill:#ffb655"/><path d="M11,57v3L9,61H3V59a2.006,2.006,0,0,1,2-2h6Z" style="fill:#8b5e3c"/><path d="M13,15.46v1a3.974,3.974,0,0,1-4,0v-1a3.974,3.974,0,0,0,4,0Z" style="fill:#ffa733"/><rect x="29" y="7" width="30" height="2" style="fill:#8b5e3c"/><path d="M14,17.071v-1.1A4.977,4.977,0,0,0,16,12V11a1,1,0,0,0,1-1V8A6,6,0,0,0,5,8v2a1,1,0,0,0,1,1v1a4.977,4.977,0,0,0,2,3.974v1.1A7.011,7.011,0,0,0,2,24V35a1,1,0,0,0,1,1H5V56a3,3,0,0,0-3,3v2a1,1,0,0,0,1,1H9a1,1,0,0,0,.447-.1L11,61.118l1.553.777A1,1,0,0,0,13,62h6a1,1,0,0,0,1-1V59a3,3,0,0,0-3-3V36h2a1,1,0,0,0,1-1V24A7.011,7.011,0,0,0,14,17.071ZM7,8a4,4,0,0,1,8,0V9h-.171a1,1,0,0,1-.708-.293L12.707,7.293a1,1,0,0,0-1.414,0l-.829.829A3.02,3.02,0,0,1,8.343,9H7Zm1.343,3a4.966,4.966,0,0,0,3.535-1.464L12,9.414l.707.707A2.96,2.96,0,0,0,14,10.87V12a3,3,0,0,1-6,0V11ZM11,17a5,5,0,0,0,1-.1v.687l-1,1-1-1V16.9A5,5,0,0,0,11,17ZM8.764,60H4V59a1,1,0,0,1,1-1h5v1.382ZM18,59v1H13.236L12,59.382V58h5A1,1,0,0,1,18,59Zm-3-3H12V40H10V56H7V36h8Zm3-22H17V23H15V34H7V23H5V34H4V24a4.991,4.991,0,0,1,4.624-4.962L10,20.414V30h2V20.414l1.376-1.376A4.991,4.991,0,0,1,18,24Z"/><path d="M61,2H27a1,1,0,0,0-1,1V7a1,1,0,0,0,1,1h1v6h2V8H58V60H30V29H28V61a1,1,0,0,0,1,1H59a1,1,0,0,0,1-1V8h1a1,1,0,0,0,1-1V3A1,1,0,0,0,61,2ZM60,6H28V4H60Z"/><rect x="28" y="20" width="2" height="3"/><path d="M52.707,40.293A1,1,0,0,0,52,40H36a1,1,0,0,0-.707.293l-2,2A1,1,0,0,0,33,43V53a1,1,0,0,0,.293.707l2,2A1,1,0,0,0,36,56H52a1,1,0,0,0,.707-.293l2-2A1,1,0,0,0,55,53V43a1,1,0,0,0-.293-.707ZM53,52.586,51.586,54H36.414L35,52.586V43.414L36.414,42H51.586L53,43.414Z"/><path d="M26,27h7v8a1,1,0,0,0,.293.707l2,2A1,1,0,0,0,36,38H52a1,1,0,0,0,.707-.293l2-2A1,1,0,0,0,55,35V13a1,1,0,0,0-.293-.707l-2-2A1,1,0,0,0,52,10H36a1,1,0,0,0-.707.293l-2,2A1,1,0,0,0,33,13v3H23v2H33v7H26Zm9-9h3.586l-1.293,1.293,1.414,1.414,3-3a1,1,0,0,0,0-1.414l-3-3-1.414,1.414L38.586,16H35V13.414L36.414,12H51.586L53,13.414V34.586L51.586,36H36.414L35,34.586V27h6.586l-1.293,1.293,1.414,1.414,3-3a1,1,0,0,0,0-1.414l-3-3-1.414,1.414L41.586,25H35Z"/><rect x="22" y="25" width="2" height="2"/></g></svg>