<svg xmlns="http://www.w3.org/2000/svg" viewBox="0 0 64 64"><g id="Skill-Process"><path d="M39,37.58V55H5V37.58a6.015,6.015,0,0,1,4.18-5.72c.08-.02.16-.05.24-.07l6.19-1.8.03.1L22,41l6.36-10.91.03-.1,6.19,1.8c.08.02.16.05.24.07a6.036,6.036,0,0,1,3.92,3.99,5.738,5.738,0,0,1,.25,1.49A1.927,1.927,0,0,1,39,37.58Z" style="fill:#3d9ae2"/><path d="M57.66,49.67a10.861,10.861,0,0,1-1.24,2.98l1.89,2.84-2.82,2.82-2.84-1.89a10.861,10.861,0,0,1-2.98,1.24L49,61H45l-.67-3.34a10.861,10.861,0,0,1-2.98-1.24l-2.84,1.89-2.82-2.82.33-.49,1.56-2.35a10.861,10.861,0,0,1-1.24-2.98L33,49V45l.95-.19,2.39-.48a10.861,10.861,0,0,1,1.24-2.98l-1.89-2.84,2.82-2.82.23.16,2.61,1.73a10.861,10.861,0,0,1,2.98-1.24L45,33h4l.67,3.34a10.861,10.861,0,0,1,2.98,1.24l2.84-1.89,2.82,2.82-1.89,2.84a10.861,10.861,0,0,1,1.24,2.98L61,45v4Z" style="fill:#ff9811"/><path d="M33,45v4l3.34.67a10.861,10.861,0,0,0,1.24,2.98L36.02,55h-2l1.56-2.35a10.861,10.861,0,0,1-1.24-2.98L31,49V45l.95-.19,2.39-.48a10.861,10.861,0,0,1,1.24-2.98l-1.89-2.84,2.82-2.82.23.16.97.64-2.02,2.02,1.89,2.84a10.861,10.861,0,0,0-1.24,2.98l-2.39.48Z" style="fill:#1e81ce"/><circle cx="47" cy="47" r="6" style="fill:#ffd422"/><path d="M32,21.68A6.97,6.97,0,0,1,36,28a6.824,6.824,0,0,1-1.18,3.86c-.08-.02-.16-.05-.24-.07l-6.19-1.8L25,29V26.42A8.008,8.008,0,0,0,30,19V15h-.53a4.02,4.02,0,0,1-3.58-2.21L25,11l-1.07,1.07A9.991,9.991,0,0,1,16.86,15H14v4a8.014,8.014,0,0,0,2.34,5.66A8.124,8.124,0,0,0,19,26.42V29l-3.39.99-6.19,1.8c-.08.02-.16.05-.24.07A6.824,6.824,0,0,1,8,28a6.97,6.97,0,0,1,4-6.32V13a10,10,0,0,1,20,0Z" style="fill:#787680"/><path d="M25,26.42A8,8,0,0,1,14,19V15h2.86a9.991,9.991,0,0,0,7.07-2.93L25,11l.89,1.79A4.02,4.02,0,0,0,29.47,15H30v4A8.008,8.008,0,0,1,25,26.42Z" style="fill:#ffc477"/><path d="M28.39,29.99l-.03.1L22,41,15.64,30.09l-.03-.1L19,29V26.42a8.049,8.049,0,0,0,6,0V29Z" style="fill:#ffb655"/><path d="M25,26.42v1a8.049,8.049,0,0,1-6,0v-1a8.049,8.049,0,0,0,6,0Z" style="fill:#ffa733"/><path d="M25,26.42v1a8.049,8.049,0,0,1-6,0v-1a8.049,8.049,0,0,0,6,0Z" style="fill:#ffa733"/><path d="M22,22a2,2,0,0,1-2-2H18a4,4,0,0,0,8,0H24A2,2,0,0,1,22,22Z"/><path d="M61.2,44.02l-2.737-.548a12.073,12.073,0,0,0-.861-2.08l1.548-2.323a1,1,0,0,0-.125-1.261l-2.829-2.829a1,1,0,0,0-1.261-.125L52.607,36.4a11.879,11.879,0,0,0-2.079-.862L49.98,32.8A1,1,0,0,0,49,32H45a1,1,0,0,0-.98.8l-.548,2.737a11.879,11.879,0,0,0-2.079.862l-1.837-1.224a7.014,7.014,0,0,0-3.317-3.789A7.977,7.977,0,0,0,33,21.075V13a11,11,0,0,0-22,0v8.075A7.975,7.975,0,0,0,7.758,31.382,6.985,6.985,0,0,0,4,37.58V55a1,1,0,0,0,1,1H34.845a.933.933,0,0,0,.134.192l2.829,2.829a1,1,0,0,0,1.261.125L41.393,57.6a11.879,11.879,0,0,0,2.079.862L44.02,61.2A1,1,0,0,0,45,62h4a1,1,0,0,0,.98-.8l.548-2.737a11.879,11.879,0,0,0,2.079-.862l2.324,1.549a1,1,0,0,0,1.261-.125l2.829-2.829a1,1,0,0,0,.125-1.261L57.6,52.608a12.073,12.073,0,0,0,.861-2.08L61.2,49.98A1,1,0,0,0,62,49V45A1,1,0,0,0,61.2,44.02ZM31.573,22.584A5.937,5.937,0,0,1,35,28a5.845,5.845,0,0,1-.651,2.681L26,28.25v-1.2A9,9,0,0,0,31,19v2.68A1,1,0,0,0,31.573,22.584ZM22,26a7.008,7.008,0,0,1-7-7V16h1.857a10.926,10.926,0,0,0,7.779-3.222l.09-.09.274.548a4.97,4.97,0,0,0,4,2.742V19A7.008,7.008,0,0,1,22,26Zm-2,3V27.768a8.737,8.737,0,0,0,4,0V29a1,1,0,0,0,.721.96l2.186.637L22,39.015,17.093,30.6l2.186-.637A1,1,0,0,0,20,29ZM13,13a9,9,0,0,1,18,0v2a1,1,0,0,0-1-1h-.528a2.983,2.983,0,0,1-2.683-1.658L25.9,10.553a1,1,0,0,0-1.6-.26l-1.071,1.071A8.943,8.943,0,0,1,16.857,14H14a1,1,0,0,0-1,1Zm-.573,9.584a1,1,0,0,0,.573-.9V19a9,9,0,0,0,5,8.05v1.2L9.652,30.682A5.84,5.84,0,0,1,9,28,5.937,5.937,0,0,1,12.427,22.584ZM6,37.58a4.989,4.989,0,0,1,3.422-4.75c.058-.015.277-.08.277-.08l5.414-1.577L21.136,41.5a1,1,0,0,0,1.728,0l6.023-10.33L34.3,32.75l.1.03c.063.019.115.033.109.031a5.041,5.041,0,0,1,2.94,2.524l-2.473,2.473a1,1,0,0,0-.125,1.261L36.4,41.392a12.073,12.073,0,0,0-.861,2.08l-.565.113A7.241,7.241,0,0,0,32,37.936V36H30v2.5a1,1,0,0,0,.532.884A5.156,5.156,0,0,1,33,43.98l-.2.04A1,1,0,0,0,32,45v2.273a4.239,4.239,0,0,1-1.465,1.342A1,1,0,0,0,30,49.5V54H14V49.5a1,1,0,0,0-.532-.884,5.551,5.551,0,0,1,0-9.232A1,1,0,0,0,14,38.5V36H12v1.936a7.629,7.629,0,0,0,0,12.128V54H6ZM35.475,54H32V50.065c.133-.09.259-.192.385-.293a.979.979,0,0,0,.419.208l2.737.548a12.073,12.073,0,0,0,.861,2.08ZM60,48.18l-2.536.508a1,1,0,0,0-.775.738,9.9,9.9,0,0,1-1.122,2.71,1,1,0,0,0,.026,1.07l1.433,2.152-1.669,1.669-2.151-1.435a1,1,0,0,0-1.07-.025,9.873,9.873,0,0,1-2.71,1.123,1,1,0,0,0-.739.774L48.181,60H45.819l-.507-2.536a1,1,0,0,0-.738-.774,9.873,9.873,0,0,1-2.71-1.123,1,1,0,0,0-1.07.025l-2.151,1.435-1.669-1.669,1.433-2.152a1,1,0,0,0,.026-1.07,9.9,9.9,0,0,1-1.122-2.71,1,1,0,0,0-.775-.738L34,48.18V45.82l2.536-.508a1,1,0,0,0,.775-.738,9.9,9.9,0,0,1,1.122-2.71,1,1,0,0,0-.026-1.07l-1.433-2.152,1.669-1.669,2.151,1.435a1,1,0,0,0,1.07.025,9.873,9.873,0,0,1,2.71-1.123,1,1,0,0,0,.738-.774L45.819,34h2.362l.506,2.536a1,1,0,0,0,.739.774,9.873,9.873,0,0,1,2.71,1.123,1,1,0,0,0,1.07-.025l2.151-1.435,1.669,1.669-1.433,2.152a1,1,0,0,0-.026,1.07,9.9,9.9,0,0,1,1.122,2.71,1,1,0,0,0,.775.738L60,45.82Z"/><path d="M47,40a7,7,0,1,0,7,7A7.008,7.008,0,0,0,47,40Zm0,12a5,5,0,1,1,5-5A5.006,5.006,0,0,1,47,52Z"/><path d="M39.6,29.494l.779,1.841a17.021,17.021,0,0,1,19.546,4.626l1.519-1.3A19.016,19.016,0,0,0,39.6,29.494Z"/><path d="M47,26a21.029,21.029,0,0,1,13.357,4.8l1.274-1.542a23.052,23.052,0,0,0-18.812-4.874l.362,1.967A21.283,21.283,0,0,1,47,26Z"/><path d="M41.272,26.791l-.544-1.925c-.7.2-1.408.435-2.092.7l.728,1.864C39.988,27.188,40.63,26.972,41.272,26.791Z"/></g></svg>