<svg xmlns="http://www.w3.org/2000/svg" viewBox="0 0 64 64"><g id="Teamwork"><path d="M30.33,35.83a6.039,6.039,0,0,0-3.75-3.04l-1.22-.33L20,31H14L7.42,32.79A6.013,6.013,0,0,0,3,38.58V50H31V38.58A5.976,5.976,0,0,0,30.33,35.83Z" style="fill:#00ccb3"/><polygon points="18.91 43.19 18 35 16 35 15 44 17 46 17.3 45.7 19 44 18.91 43.19" style="fill:#ff6243"/><polygon points="20 31 18 35 16 35 14 31 20 31" style="fill:#ff5023"/><path d="M56.58,32.79,50,31H44l-5.36,1.46-1.22.33a6.039,6.039,0,0,0-3.75,3.04A5.976,5.976,0,0,0,33,38.58V50H61V38.58A6.013,6.013,0,0,0,56.58,32.79Z" style="fill:#e6e7e8"/><polygon points="50 31 48 35 46 35 44 31 50 31" style="fill:#ff5023"/><polygon points="48 35 46 35 45.09 43.19 45 44 46.7 45.7 47 46 49 44 48 35" style="fill:#ff6243"/><path d="M46.7,45.7a6.016,6.016,0,0,0-4.12-3.91L35,39H29l-7.58,2.79A6.016,6.016,0,0,0,17.3,45.7a6.166,6.166,0,0,0-.3,1.88V58H47V47.58A6.166,6.166,0,0,0,46.7,45.7Z" style="fill:#3d9ae2"/><path d="M50.34,14.68,50,14l-1.66,1.66A7.985,7.985,0,0,1,42.69,18H39v2a7.987,7.987,0,0,0,2,5.29c.11.13.22.25.34.37A8.026,8.026,0,0,0,50,27.42,8.008,8.008,0,0,0,55,20V18l.01-.04A5.986,5.986,0,0,1,50.34,14.68Z" style="fill:#ffc477"/><path d="M50,27.42V31H44V27.42a8.049,8.049,0,0,0,6,0Z" style="fill:#ffb655"/><path d="M47,6a9,9,0,0,0-9,9v3h4.69a7.985,7.985,0,0,0,5.65-2.34L50,14l.34.68a5.986,5.986,0,0,0,4.67,3.28,5.374,5.374,0,0,0,.7.04H56V15A9,9,0,0,0,47,6Z" style="fill:#787680"/><path d="M24.59,17.89a5.975,5.975,0,0,1-4.25-3.21L20,14l-1.66,1.66A7.985,7.985,0,0,1,12.69,18H9v2a8.014,8.014,0,0,0,2.34,5.66A8.026,8.026,0,0,0,20,27.42,8.018,8.018,0,0,0,25,20V18l.01-.04C24.87,17.94,24.73,17.92,24.59,17.89Z" style="fill:#ffc477"/><path d="M17,6a9,9,0,0,0-9,9v3h4.69a7.985,7.985,0,0,0,5.65-2.34L20,14l.34.68a5.975,5.975,0,0,0,4.25,3.21c.14.03.28.05.42.07a5.374,5.374,0,0,0,.7.04H26V15A9,9,0,0,0,17,6Z" style="fill:#787680"/><path d="M20,27.42V31H14V27.42a8.049,8.049,0,0,0,6,0Z" style="fill:#ffb655"/><polygon points="33.78 50 33 43 31 43 30.22 50 30 52 32 54 34 52 33.78 50" style="fill:#ff6243"/><polygon points="33 39 31 39 29 39 31 43 33 43 35 39 33 39" style="fill:#ff5023"/><path d="M35,35.42V39H29V35.42a8.54,8.54,0,0,0,1.33.41,8.288,8.288,0,0,0,3.34,0A8.54,8.54,0,0,0,35,35.42Z" style="fill:#ffb655"/><path d="M35.34,22.68,35,22l-1.66,1.66A7.985,7.985,0,0,1,27.69,26H24v2a7.936,7.936,0,0,0,1.36,4.46,8.7,8.7,0,0,0,.98,1.2A8.124,8.124,0,0,0,29,35.42a8.54,8.54,0,0,0,1.33.41,8.288,8.288,0,0,0,3.34,0A8.54,8.54,0,0,0,35,35.42,8.016,8.016,0,0,0,40,28V26l.01-.04A5.986,5.986,0,0,1,35.34,22.68Z" style="fill:#ffc477"/><path d="M39.48,18A9,9,0,0,0,23,23v3h4.69a7.985,7.985,0,0,0,5.65-2.34L35,22l.34.68a5.986,5.986,0,0,0,4.67,3.28,5.374,5.374,0,0,0,.7.04H41V23A8.94,8.94,0,0,0,39.48,18Z" style="fill:#787680"/><path d="M20,27.42v1a8.049,8.049,0,0,1-6,0v-1a8.049,8.049,0,0,0,6,0Z" style="fill:#ffa733"/><path d="M35,35.42v1a8.54,8.54,0,0,1-1.33.41,8.288,8.288,0,0,1-3.34,0A8.54,8.54,0,0,1,29,36.42v-1a8.54,8.54,0,0,0,1.33.41,8.288,8.288,0,0,0,3.34,0A8.54,8.54,0,0,0,35,35.42Z" style="fill:#ffa733"/><path d="M50,27.42v1a8.049,8.049,0,0,1-6,0v-1a8.049,8.049,0,0,0,6,0Z" style="fill:#ffa733"/><path d="M32,31a2,2,0,0,1-2-2H28a4,4,0,0,0,8,0H34A2,2,0,0,1,32,31Z"/><path d="M21,21H19a2,2,0,0,1-4,0H13a4,4,0,0,0,8,0Z"/><path d="M47,23a2,2,0,0,1-2-2H43a4,4,0,0,0,8,0H49A2,2,0,0,1,47,23Z"/><path d="M56.843,31.825,51,30.236V28.05A9,9,0,0,0,56,20V19a1,1,0,0,0,1-1V15a9.994,9.994,0,0,0-19.968-.628,9.914,9.914,0,0,0-10.064,0A9.994,9.994,0,0,0,7,15v3a1,1,0,0,0,1,1v1a8.986,8.986,0,0,0,2.635,6.37A9.087,9.087,0,0,0,13,28.057v2.179l-5.846,1.59A7.031,7.031,0,0,0,2,38.58V50a1,1,0,0,0,1,1H16v7a1,1,0,0,0,1,1H47a1,1,0,0,0,1-1V51H61a1,1,0,0,0,1-1V38.58A7.032,7.032,0,0,0,56.843,31.825Zm-8.89,11.808-.741.741a7.061,7.061,0,0,0-1.079-1.523L46.9,36h.21Zm-15,8L32,52.586l-.953-.953L31.9,44h.21ZM22.709,26.941A.978.978,0,0,0,23,27v1a8.936,8.936,0,0,0,.494,2.915L21,30.236V28.05A8.948,8.948,0,0,0,22.709,26.941ZM47.382,34h-.764l-1-2h2.764ZM41,28V27a.953.953,0,0,0,.273-.055A9.056,9.056,0,0,0,43,28.057v2.179l-2.494.679A8.936,8.936,0,0,0,41,28Zm-2,0a7,7,0,0,1-14,0V27h2.687a8.939,8.939,0,0,0,6.363-2.636l.7-.7A6.943,6.943,0,0,0,39,26.787ZM17.382,34h-.764l-1-2h2.764ZM16.9,36h.21l.763,6.862a7.065,7.065,0,0,0-1.078,1.514l-.743-.743Zm2.825,5.422-.694-6.238,1.5-3,4.241,1.155A9.045,9.045,0,0,0,28,36.05V38.3l-6.846,2.523A6.98,6.98,0,0,0,19.72,41.422ZM32.382,42h-.764l-1-2h2.764ZM34,38H30V36.768a8.737,8.737,0,0,0,4,0Zm2-1.95a9.045,9.045,0,0,0,3.231-2.715l4.241-1.155,1.5,3-.692,6.227a6.623,6.623,0,0,0-1.357-.559L36,38.3ZM49,30H45V28.769a8.755,8.755,0,0,0,4,0Zm-2-3a6.992,6.992,0,0,1-4.952-2.045c-.017-.017-.031-.036-.048-.053V23a9.929,9.929,0,0,0-.841-4H42.69a8.93,8.93,0,0,0,6.357-2.633l.7-.7A6.943,6.943,0,0,0,54,18.786V20A7.008,7.008,0,0,1,47,27ZM39,15a8,8,0,0,1,16,0v1.95a4.971,4.971,0,0,1-3.766-2.717l-.339-.68a1,1,0,0,0-1.6-.26l-1.66,1.66A6.947,6.947,0,0,1,42.69,17H39.981A10.048,10.048,0,0,0,39,15.871Zm1,8v1.951a4.968,4.968,0,0,1-3.764-2.715l-.341-.683a1,1,0,0,0-1.6-.26L32.636,22.95A6.954,6.954,0,0,1,27.687,25H24V23a8,8,0,0,1,16,0ZM9,15a8,8,0,0,1,16,0v.871a10,10,0,0,0-.8.892,4.946,4.946,0,0,1-2.962-2.53l-.339-.68a1,1,0,0,0-1.6-.26l-1.66,1.66A6.947,6.947,0,0,1,12.69,17H9Zm1,5V19h2.69a8.93,8.93,0,0,0,6.357-2.633l.7-.7a7.038,7.038,0,0,0,3.343,2.816A9.923,9.923,0,0,0,22,23v1.884A6.989,6.989,0,0,1,10,20Zm7,9a8.955,8.955,0,0,0,2-.23V30H15V28.769A9.053,9.053,0,0,0,17,29ZM9,49V40H7v9H4V38.58a5.024,5.024,0,0,1,3.683-4.825l5.789-1.575,1.5,3-.968,8.706a1,1,0,0,0,.287.817l1.8,1.8A6.974,6.974,0,0,0,16,47.58V49Zm37,8H43V48H41v9H23V48H21v9H18V47.58a5.057,5.057,0,0,1,3.765-4.851l6.741-2.482,1.468,2.937-.968,8.706a1,1,0,0,0,.287.817l2,2a1,1,0,0,0,1.414,0l2-2a1,1,0,0,0,.287-.817l-.968-8.706,1.469-2.937,6.819,2.507A5.026,5.026,0,0,1,46,47.58Zm14-8H57V40H55v9H48V47.58a6.974,6.974,0,0,0-.09-1.076l1.8-1.8a1,1,0,0,0,.287-.817l-.968-8.706,1.5-3,5.786,1.574A5.026,5.026,0,0,1,60,38.58Z"/></g></svg>